<svg width="202" height="63" viewBox="0 0 202 63" fill="none" xmlns="http://www.w3.org/2000/svg">
<rect width="202" height="62.5915" rx="11.3803" fill="#33303E"/>
<path d="M68.8289 24.5785C68.7367 24.5785 68.6654 24.5533 68.6151 24.503C68.5648 24.4443 68.5396 24.373 68.5396 24.2892V16.0755C68.5396 15.9833 68.5648 15.912 68.6151 15.8617C68.6654 15.803 68.7367 15.7737 68.8289 15.7737H71.6842C72.5479 15.7737 73.2439 15.9036 73.7722 16.1636C74.3005 16.4235 74.6862 16.8093 74.9294 17.3208C75.1726 17.8239 75.2984 18.4445 75.3068 19.1824C75.3151 19.5597 75.3193 19.891 75.3193 20.1761C75.3193 20.4612 75.3151 20.7882 75.3068 21.1572C75.29 21.9287 75.16 22.5702 74.9168 23.0817C74.682 23.5848 74.3047 23.9622 73.7848 24.2137C73.2733 24.4569 72.594 24.5785 71.7471 24.5785H68.8289ZM69.7723 23.5093H71.6842C72.2628 23.5093 72.724 23.4297 73.0678 23.2703C73.4116 23.111 73.659 22.8553 73.8099 22.5031C73.9693 22.1509 74.0531 21.6855 74.0615 21.1069C74.0783 20.8553 74.0867 20.6373 74.0867 20.4528C74.0867 20.2599 74.0867 20.0713 74.0867 19.8868C74.0867 19.6939 74.0783 19.4759 74.0615 19.2327C74.0447 18.4193 73.8519 17.8197 73.4829 17.434C73.1139 17.0399 72.4934 16.8428 71.6213 16.8428H69.7723V23.5093ZM79.7274 24.7043C79.0901 24.7043 78.5577 24.5827 78.13 24.3395C77.7023 24.0963 77.3753 23.7609 77.1489 23.3332C76.9225 22.8972 76.7967 22.4024 76.7715 21.849C76.7632 21.7064 76.759 21.5262 76.759 21.3081C76.759 21.0817 76.7632 20.9014 76.7715 20.7673C76.7967 20.2054 76.9225 19.7107 77.1489 19.283C77.3837 18.8554 77.7149 18.5199 78.1426 18.2768C78.5702 18.0336 79.0985 17.912 79.7274 17.912C80.3564 17.912 80.8847 18.0336 81.3123 18.2768C81.74 18.5199 82.067 18.8554 82.2934 19.283C82.5282 19.7107 82.6582 20.2054 82.6834 20.7673C82.6917 20.9014 82.6959 21.0817 82.6959 21.3081C82.6959 21.5262 82.6917 21.7064 82.6834 21.849C82.6582 22.4024 82.5324 22.8972 82.306 23.3332C82.0796 23.7609 81.7526 24.0963 81.3249 24.3395C80.8972 24.5827 80.3647 24.7043 79.7274 24.7043ZM79.7274 23.7357C80.2474 23.7357 80.6624 23.5722 80.9727 23.2452C81.283 22.9098 81.4507 22.4234 81.4758 21.7861C81.4842 21.6603 81.4884 21.501 81.4884 21.3081C81.4884 21.1153 81.4842 20.9559 81.4758 20.8302C81.4507 20.1929 81.283 19.7107 80.9727 19.3836C80.6624 19.0482 80.2474 18.8805 79.7274 18.8805C79.2075 18.8805 78.7883 19.0482 78.4696 19.3836C78.1594 19.7107 77.9958 20.1929 77.9791 20.8302C77.9707 20.9559 77.9665 21.1153 77.9665 21.3081C77.9665 21.501 77.9707 21.6603 77.9791 21.7861C77.9958 22.4234 78.1594 22.9098 78.4696 23.2452C78.7883 23.5722 79.2075 23.7357 79.7274 23.7357ZM85.8348 24.5785C85.7258 24.5785 85.6419 24.5533 85.5832 24.503C85.5245 24.4443 85.4742 24.3647 85.4323 24.264L83.6462 18.4277C83.6294 18.3858 83.621 18.3438 83.621 18.3019C83.621 18.2264 83.6462 18.1636 83.6965 18.1132C83.7552 18.0629 83.8181 18.0378 83.8852 18.0378H84.4386C84.5309 18.0378 84.6021 18.0629 84.6524 18.1132C84.7028 18.1636 84.7363 18.2097 84.7531 18.2516L86.1493 22.9936L87.6461 18.3019C87.6629 18.2432 87.6964 18.1845 87.7467 18.1258C87.8054 18.0671 87.8893 18.0378 87.9983 18.0378H88.4259C88.535 18.0378 88.6188 18.0671 88.6775 18.1258C88.7362 18.1845 88.7698 18.2432 88.7781 18.3019L90.275 22.9936L91.6711 18.2516C91.6795 18.2097 91.7089 18.1636 91.7592 18.1132C91.8095 18.0629 91.8808 18.0378 91.973 18.0378H92.5265C92.6019 18.0378 92.6648 18.0629 92.7151 18.1132C92.7655 18.1636 92.7906 18.2264 92.7906 18.3019C92.7906 18.3438 92.7822 18.3858 92.7655 18.4277L90.9793 24.264C90.9542 24.3647 90.9081 24.4443 90.841 24.503C90.7823 24.5533 90.6942 24.5785 90.5768 24.5785H90.0863C89.9773 24.5785 89.885 24.5533 89.8096 24.503C89.7425 24.4443 89.6964 24.3647 89.6712 24.264L88.2121 19.761L86.753 24.264C86.7195 24.3647 86.6692 24.4443 86.6021 24.503C86.535 24.5533 86.4428 24.5785 86.3254 24.5785H85.8348ZM94.4731 24.5785C94.3892 24.5785 94.3179 24.5533 94.2592 24.503C94.2089 24.4443 94.1838 24.373 94.1838 24.2892V18.3271C94.1838 18.2432 94.2089 18.1761 94.2592 18.1258C94.3179 18.0671 94.3892 18.0378 94.4731 18.0378H95.0642C95.1481 18.0378 95.2152 18.0671 95.2655 18.1258C95.3242 18.1761 95.3535 18.2432 95.3535 18.3271V18.8805C95.5716 18.5954 95.8441 18.3648 96.1711 18.1887C96.5066 18.0042 96.9342 17.912 97.4541 17.912C97.9992 17.912 98.4604 18.0336 98.8377 18.2768C99.2235 18.5115 99.5128 18.8428 99.7056 19.2704C99.8985 19.6897 99.9949 20.1803 99.9949 20.7421V24.2892C99.9949 24.373 99.9698 24.4443 99.9195 24.503C99.8692 24.5533 99.8021 24.5785 99.7182 24.5785H99.0893C99.0055 24.5785 98.9342 24.5533 98.8755 24.503C98.8252 24.4443 98.8 24.373 98.8 24.2892V20.805C98.8 20.218 98.6575 19.761 98.3723 19.434C98.0872 19.0985 97.668 18.9308 97.1145 18.9308C96.5946 18.9308 96.1753 19.0985 95.8567 19.434C95.5464 19.761 95.3913 20.218 95.3913 20.805V24.2892C95.3913 24.373 95.3619 24.4443 95.3032 24.503C95.2529 24.5533 95.1858 24.5785 95.102 24.5785H94.4731ZM102.114 24.5785C102.03 24.5785 101.959 24.5533 101.9 24.503C101.85 24.4443 101.824 24.373 101.824 24.2892V15.9372C101.824 15.8533 101.85 15.7862 101.9 15.7359C101.959 15.6772 102.03 15.6479 102.114 15.6479H102.705C102.797 15.6479 102.868 15.6772 102.919 15.7359C102.969 15.7862 102.994 15.8533 102.994 15.9372V24.2892C102.994 24.373 102.969 24.4443 102.919 24.503C102.868 24.5533 102.797 24.5785 102.705 24.5785H102.114ZM107.55 24.7043C106.912 24.7043 106.38 24.5827 105.952 24.3395C105.524 24.0963 105.197 23.7609 104.971 23.3332C104.745 22.8972 104.619 22.4024 104.594 21.849C104.585 21.7064 104.581 21.5262 104.581 21.3081C104.581 21.0817 104.585 20.9014 104.594 20.7673C104.619 20.2054 104.745 19.7107 104.971 19.283C105.206 18.8554 105.537 18.5199 105.965 18.2768C106.392 18.0336 106.921 17.912 107.55 17.912C108.179 17.912 108.707 18.0336 109.134 18.2768C109.562 18.5199 109.889 18.8554 110.116 19.283C110.35 19.7107 110.48 20.2054 110.506 20.7673C110.514 20.9014 110.518 21.0817 110.518 21.3081C110.518 21.5262 110.514 21.7064 110.506 21.849C110.48 22.4024 110.355 22.8972 110.128 23.3332C109.902 23.7609 109.575 24.0963 109.147 24.3395C108.719 24.5827 108.187 24.7043 107.55 24.7043ZM107.55 23.7357C108.07 23.7357 108.485 23.5722 108.795 23.2452C109.105 22.9098 109.273 22.4234 109.298 21.7861C109.306 21.6603 109.311 21.501 109.311 21.3081C109.311 21.1153 109.306 20.9559 109.298 20.8302C109.273 20.1929 109.105 19.7107 108.795 19.3836C108.485 19.0482 108.07 18.8805 107.55 18.8805C107.03 18.8805 106.61 19.0482 106.292 19.3836C105.982 19.7107 105.818 20.1929 105.801 20.8302C105.793 20.9559 105.789 21.1153 105.789 21.3081C105.789 21.501 105.793 21.6603 105.801 21.7861C105.818 22.4234 105.982 22.9098 106.292 23.2452C106.61 23.5722 107.03 23.7357 107.55 23.7357ZM113.917 24.7043C113.498 24.7043 113.116 24.6204 112.772 24.4527C112.429 24.285 112.152 24.0586 111.942 23.7735C111.733 23.4884 111.628 23.1655 111.628 22.8049C111.628 22.2263 111.863 21.7651 112.332 21.4213C112.802 21.0775 113.414 20.8511 114.169 20.7421L116.043 20.478V20.1132C116.043 19.7107 115.925 19.3962 115.691 19.1698C115.464 18.9434 115.091 18.8302 114.571 18.8302C114.194 18.8302 113.888 18.9057 113.653 19.0566C113.426 19.2076 113.267 19.4004 113.175 19.6352C113.125 19.761 113.036 19.8239 112.911 19.8239H112.345C112.252 19.8239 112.181 19.7987 112.131 19.7484C112.089 19.6897 112.068 19.6226 112.068 19.5472C112.068 19.4214 112.114 19.2662 112.206 19.0818C112.307 18.8973 112.458 18.717 112.659 18.5409C112.86 18.3648 113.116 18.2181 113.426 18.1007C113.745 17.9749 114.131 17.912 114.584 17.912C115.087 17.912 115.51 17.9791 115.854 18.1132C116.198 18.239 116.466 18.4109 116.659 18.6289C116.86 18.847 117.003 19.0943 117.087 19.3711C117.179 19.6478 117.225 19.9287 117.225 20.2138V24.2892C117.225 24.373 117.196 24.4443 117.137 24.503C117.087 24.5533 117.02 24.5785 116.936 24.5785H116.357C116.265 24.5785 116.194 24.5533 116.143 24.503C116.093 24.4443 116.068 24.373 116.068 24.2892V23.7483C115.959 23.8993 115.812 24.0502 115.628 24.2011C115.443 24.3437 115.213 24.4653 114.936 24.5659C114.659 24.6582 114.319 24.7043 113.917 24.7043ZM114.181 23.7609C114.525 23.7609 114.839 23.6896 115.125 23.5471C115.41 23.3961 115.632 23.1655 115.791 22.8553C115.959 22.545 116.043 22.1551 116.043 21.6855V21.3333L114.584 21.5471C113.988 21.631 113.54 21.7735 113.238 21.9748C112.936 22.1676 112.785 22.415 112.785 22.7169C112.785 22.9517 112.852 23.1488 112.986 23.3081C113.129 23.459 113.305 23.5722 113.514 23.6477C113.732 23.7232 113.955 23.7609 114.181 23.7609ZM121.423 24.7043C120.962 24.7043 120.564 24.6246 120.228 24.4653C119.893 24.2976 119.616 24.0754 119.398 23.7986C119.188 23.5135 119.029 23.1907 118.92 22.8301C118.819 22.4695 118.761 22.088 118.744 21.6855C118.736 21.5513 118.731 21.4255 118.731 21.3081C118.731 21.1907 118.736 21.0649 118.744 20.9308C118.761 20.5367 118.819 20.1593 118.92 19.7987C119.029 19.4382 119.188 19.1153 119.398 18.8302C119.616 18.5451 119.893 18.3229 120.228 18.1635C120.564 17.9958 120.962 17.912 121.423 17.912C121.918 17.912 122.329 18 122.656 18.1761C122.983 18.3522 123.251 18.5702 123.461 18.8302V15.9372C123.461 15.8533 123.486 15.7862 123.536 15.7359C123.595 15.6772 123.666 15.6479 123.75 15.6479H124.354C124.438 15.6479 124.505 15.6772 124.555 15.7359C124.614 15.7862 124.643 15.8533 124.643 15.9372V24.2892C124.643 24.373 124.614 24.4443 124.555 24.503C124.505 24.5533 124.438 24.5785 124.354 24.5785H123.788C123.696 24.5785 123.624 24.5533 123.574 24.503C123.524 24.4443 123.499 24.373 123.499 24.2892V23.7609C123.289 24.0292 123.016 24.2556 122.681 24.4401C122.346 24.6162 121.926 24.7043 121.423 24.7043ZM121.687 23.6854C122.107 23.6854 122.442 23.589 122.694 23.3961C122.945 23.2033 123.134 22.9601 123.26 22.6666C123.385 22.3647 123.452 22.0586 123.461 21.7484C123.469 21.6142 123.473 21.4549 123.473 21.2704C123.473 21.0775 123.469 20.914 123.461 20.7798C123.452 20.4863 123.381 20.197 123.247 19.9119C123.121 19.6268 122.928 19.392 122.668 19.2076C122.417 19.0231 122.09 18.9308 121.687 18.9308C121.26 18.9308 120.92 19.0273 120.668 19.2201C120.417 19.4046 120.237 19.652 120.128 19.9622C120.019 20.2641 119.956 20.5912 119.939 20.9434C119.931 21.1865 119.931 21.4297 119.939 21.6729C119.956 22.0251 120.019 22.3563 120.128 22.6666C120.237 22.9685 120.417 23.2158 120.668 23.4087C120.92 23.5932 121.26 23.6854 121.687 23.6854ZM131.542 24.5785C131.416 24.5785 131.316 24.5491 131.24 24.4904C131.173 24.4317 131.119 24.3563 131.077 24.264L128.75 18.4277C128.733 18.3858 128.725 18.3438 128.725 18.3019C128.725 18.2264 128.75 18.1636 128.8 18.1132C128.85 18.0629 128.913 18.0378 128.989 18.0378H129.593C129.685 18.0378 129.756 18.0629 129.806 18.1132C129.857 18.1636 129.886 18.2097 129.894 18.2516L131.819 23.2075L133.731 18.2516C133.748 18.2097 133.777 18.1636 133.819 18.1132C133.869 18.0629 133.94 18.0378 134.033 18.0378H134.649C134.716 18.0378 134.775 18.0629 134.825 18.1132C134.884 18.1636 134.913 18.2264 134.913 18.3019C134.913 18.3438 134.905 18.3858 134.888 18.4277L132.548 24.264C132.515 24.3563 132.46 24.4317 132.385 24.4904C132.318 24.5491 132.217 24.5785 132.083 24.5785H131.542ZM136.52 24.5785C136.436 24.5785 136.364 24.5533 136.306 24.503C136.255 24.4443 136.23 24.373 136.23 24.2892V18.3271C136.23 18.2432 136.255 18.1761 136.306 18.1258C136.364 18.0671 136.436 18.0378 136.52 18.0378H137.123C137.207 18.0378 137.274 18.0671 137.325 18.1258C137.375 18.1761 137.4 18.2432 137.4 18.3271V24.2892C137.4 24.373 137.375 24.4443 137.325 24.503C137.274 24.5533 137.207 24.5785 137.123 24.5785H136.52ZM136.419 16.8177C136.335 16.8177 136.264 16.7925 136.205 16.7422C136.155 16.6835 136.13 16.6122 136.13 16.5284V15.8491C136.13 15.7653 136.155 15.6982 136.205 15.6479C136.264 15.5892 136.335 15.5598 136.419 15.5598H137.211C137.295 15.5598 137.362 15.5892 137.413 15.6479C137.471 15.6982 137.501 15.7653 137.501 15.8491V16.5284C137.501 16.6122 137.471 16.6835 137.413 16.7422C137.362 16.7925 137.295 16.8177 137.211 16.8177H136.419ZM141.1 24.7043C140.681 24.7043 140.3 24.6204 139.956 24.4527C139.612 24.285 139.335 24.0586 139.126 23.7735C138.916 23.4884 138.811 23.1655 138.811 22.8049C138.811 22.2263 139.046 21.7651 139.516 21.4213C139.985 21.0775 140.597 20.8511 141.352 20.7421L143.226 20.478V20.1132C143.226 19.7107 143.109 19.3962 142.874 19.1698C142.648 18.9434 142.274 18.8302 141.754 18.8302C141.377 18.8302 141.071 18.9057 140.836 19.0566C140.61 19.2076 140.451 19.4004 140.358 19.6352C140.308 19.761 140.22 19.8239 140.094 19.8239H139.528C139.436 19.8239 139.365 19.7987 139.314 19.7484C139.272 19.6897 139.251 19.6226 139.251 19.5472C139.251 19.4214 139.298 19.2662 139.39 19.0818C139.49 18.8973 139.641 18.717 139.843 18.5409C140.044 18.3648 140.3 18.2181 140.61 18.1007C140.928 17.9749 141.314 17.912 141.767 17.912C142.27 17.912 142.694 17.9791 143.037 18.1132C143.381 18.239 143.65 18.4109 143.842 18.6289C144.044 18.847 144.186 19.0943 144.27 19.3711C144.362 19.6478 144.408 19.9287 144.408 20.2138V24.2892C144.408 24.373 144.379 24.4443 144.32 24.503C144.27 24.5533 144.203 24.5785 144.119 24.5785H143.541C143.448 24.5785 143.377 24.5533 143.327 24.503C143.276 24.4443 143.251 24.373 143.251 24.2892V23.7483C143.142 23.8993 142.996 24.0502 142.811 24.2011C142.627 24.3437 142.396 24.4653 142.119 24.5659C141.843 24.6582 141.503 24.7043 141.1 24.7043ZM141.365 23.7609C141.708 23.7609 142.023 23.6896 142.308 23.5471C142.593 23.3961 142.815 23.1655 142.975 22.8553C143.142 22.545 143.226 22.1551 143.226 21.6855V21.3333L141.767 21.5471C141.172 21.631 140.723 21.7735 140.421 21.9748C140.119 22.1676 139.968 22.415 139.968 22.7169C139.968 22.9517 140.035 23.1488 140.17 23.3081C140.312 23.459 140.488 23.5722 140.698 23.6477C140.916 23.7232 141.138 23.7609 141.365 23.7609Z" fill="white"/>
<path d="M67.9484 45.3495C67.859 45.3495 67.7751 45.3159 67.6969 45.2489C67.6298 45.1706 67.5963 45.0867 67.5963 44.9973C67.5963 44.9414 67.6018 44.8911 67.613 44.8464L71.5542 34.0793C71.5878 33.9563 71.6549 33.8501 71.7555 33.7607C71.8673 33.66 72.0182 33.6097 72.2083 33.6097H74.6904C74.8805 33.6097 75.0258 33.66 75.1265 33.7607C75.2383 33.8501 75.311 33.9563 75.3445 34.0793L79.2689 44.8464C79.2913 44.8911 79.3025 44.9414 79.3025 44.9973C79.3025 45.0867 79.2633 45.1706 79.1851 45.2489C79.118 45.3159 79.0341 45.3495 78.9335 45.3495H76.8707C76.703 45.3495 76.5744 45.3104 76.4849 45.2321C76.4067 45.1426 76.3564 45.0644 76.334 44.9973L75.6799 43.2866H71.202L70.5647 44.9973C70.5424 45.0644 70.4921 45.1426 70.4138 45.2321C70.3355 45.3104 70.2014 45.3495 70.0113 45.3495H67.9484ZM71.8897 40.8716H75.0091L73.4326 36.444L71.8897 40.8716ZM80.8592 48.536C80.7362 48.536 80.6356 48.4969 80.5573 48.4186C80.479 48.3403 80.4399 48.2397 80.4399 48.1167V37.0478C80.4399 36.9248 80.479 36.8242 80.5573 36.7459C80.6356 36.6677 80.7362 36.6285 80.8592 36.6285H82.7543C82.8661 36.6285 82.9611 36.6677 83.0394 36.7459C83.1289 36.8242 83.1736 36.9248 83.1736 37.0478V37.6683C83.4307 37.3217 83.7718 37.0366 84.1966 36.813C84.6215 36.5782 85.147 36.4608 85.7731 36.4608C86.3321 36.4608 86.8241 36.5503 87.249 36.7291C87.6738 36.8969 88.0372 37.1484 88.3391 37.4838C88.641 37.8193 88.8758 38.2274 89.0435 38.7081C89.2224 39.1889 89.323 39.7424 89.3453 40.3685C89.3565 40.5921 89.3621 40.7989 89.3621 40.989C89.3621 41.1791 89.3565 41.3859 89.3453 41.6095C89.323 42.2133 89.2279 42.7556 89.0602 43.2363C88.8925 43.7171 88.6577 44.1252 88.3558 44.4606C88.054 44.796 87.685 45.0588 87.249 45.2489C86.8241 45.4278 86.3321 45.5172 85.7731 45.5172C85.2252 45.5172 84.7445 45.4222 84.3308 45.2321C83.9283 45.0308 83.5929 44.7513 83.3245 44.3935V48.1167C83.3245 48.2397 83.2854 48.3403 83.2071 48.4186C83.1289 48.4969 83.0282 48.536 82.9052 48.536H80.8592ZM84.8675 43.2699C85.2476 43.2699 85.5439 43.1916 85.7563 43.0351C85.9688 42.8785 86.1197 42.6661 86.2091 42.3978C86.3098 42.1294 86.3713 41.8331 86.3936 41.5089C86.416 41.1623 86.416 40.8157 86.3936 40.4691C86.3713 40.1449 86.3098 39.8486 86.2091 39.5802C86.1197 39.3119 85.9688 39.0995 85.7563 38.9429C85.5439 38.7864 85.2476 38.7081 84.8675 38.7081C84.4985 38.7081 84.2022 38.792 83.9786 38.9597C83.755 39.1162 83.5929 39.3231 83.4922 39.5802C83.3916 39.8374 83.3357 40.1169 83.3245 40.4188C83.3133 40.6312 83.3078 40.8381 83.3078 41.0393C83.3078 41.2406 83.3133 41.453 83.3245 41.6766C83.3357 41.9561 83.3972 42.2189 83.509 42.4649C83.6208 42.6997 83.7885 42.8953 84.0121 43.0518C84.2358 43.1972 84.5209 43.2699 84.8675 43.2699ZM91.4394 48.536C91.3164 48.536 91.2158 48.4969 91.1375 48.4186C91.0592 48.3403 91.0201 48.2397 91.0201 48.1167V37.0478C91.0201 36.9248 91.0592 36.8242 91.1375 36.7459C91.2158 36.6677 91.3164 36.6285 91.4394 36.6285H93.3345C93.4463 36.6285 93.5413 36.6677 93.6196 36.7459C93.7091 36.8242 93.7538 36.9248 93.7538 37.0478V37.6683C94.0109 37.3217 94.3519 37.0366 94.7768 36.813C95.2017 36.5782 95.7272 36.4608 96.3533 36.4608C96.9123 36.4608 97.4043 36.5503 97.8292 36.7291C98.254 36.8969 98.6174 37.1484 98.9193 37.4838C99.2212 37.8193 99.456 38.2274 99.6237 38.7081C99.8026 39.1889 99.9032 39.7424 99.9255 40.3685C99.9367 40.5921 99.9423 40.7989 99.9423 40.989C99.9423 41.1791 99.9367 41.3859 99.9255 41.6095C99.9032 42.2133 99.8081 42.7556 99.6404 43.2363C99.4727 43.7171 99.2379 44.1252 98.936 44.4606C98.6342 44.796 98.2652 45.0588 97.8292 45.2489C97.4043 45.4278 96.9123 45.5172 96.3533 45.5172C95.8054 45.5172 95.3247 45.4222 94.911 45.2321C94.5085 45.0308 94.1731 44.7513 93.9047 44.3935V48.1167C93.9047 48.2397 93.8656 48.3403 93.7873 48.4186C93.7091 48.4969 93.6084 48.536 93.4854 48.536H91.4394ZM95.4477 43.2699C95.8278 43.2699 96.1241 43.1916 96.3365 43.0351C96.549 42.8785 96.6999 42.6661 96.7893 42.3978C96.89 42.1294 96.9515 41.8331 96.9738 41.5089C96.9962 41.1623 96.9962 40.8157 96.9738 40.4691C96.9515 40.1449 96.89 39.8486 96.7893 39.5802C96.6999 39.3119 96.549 39.0995 96.3365 38.9429C96.1241 38.7864 95.8278 38.7081 95.4477 38.7081C95.0787 38.7081 94.7824 38.792 94.5588 38.9597C94.3352 39.1162 94.1731 39.3231 94.0724 39.5802C93.9718 39.8374 93.9159 40.1169 93.9047 40.4188C93.8935 40.6312 93.8879 40.8381 93.8879 41.0393C93.8879 41.2406 93.8935 41.453 93.9047 41.6766C93.9159 41.9561 93.9774 42.2189 94.0892 42.4649C94.201 42.6997 94.3687 42.8953 94.5923 43.0518C94.8159 43.1972 95.1011 43.2699 95.4477 43.2699ZM102.02 45.3495C101.897 45.3495 101.796 45.3104 101.718 45.2321C101.639 45.1538 101.6 45.0532 101.6 44.9302V33.8613C101.6 33.7383 101.639 33.6377 101.718 33.5594C101.796 33.4811 101.897 33.442 102.02 33.442H103.999C104.122 33.442 104.222 33.4811 104.3 33.5594C104.379 33.6377 104.418 33.7383 104.418 33.8613V44.9302C104.418 45.0532 104.379 45.1538 104.3 45.2321C104.222 45.3104 104.122 45.3495 103.999 45.3495H102.02ZM110.424 45.5172C109.105 45.5172 108.054 45.1594 107.271 44.4438C106.488 43.7283 106.08 42.6661 106.047 41.2573C106.047 41.1791 106.047 41.0784 106.047 40.9555C106.047 40.8325 106.047 40.7374 106.047 40.6704C106.08 39.7871 106.276 39.0324 106.634 38.4063C107.003 37.769 107.506 37.2882 108.143 36.9639C108.792 36.6285 109.546 36.4608 110.407 36.4608C111.391 36.4608 112.202 36.6565 112.839 37.0478C113.488 37.4391 113.974 37.9702 114.298 38.6411C114.622 39.3119 114.785 40.0778 114.785 40.9387V41.3412C114.785 41.4642 114.74 41.5648 114.65 41.6431C114.572 41.7213 114.477 41.7605 114.365 41.7605H108.999C108.999 41.7717 108.999 41.7884 108.999 41.8108C108.999 41.8331 108.999 41.8555 108.999 41.8779C109.01 42.2021 109.066 42.4984 109.166 42.7667C109.267 43.0351 109.423 43.2475 109.636 43.404C109.848 43.5606 110.105 43.6388 110.407 43.6388C110.631 43.6388 110.815 43.6053 110.961 43.5382C111.117 43.4599 111.246 43.3761 111.347 43.2866C111.447 43.186 111.525 43.1022 111.581 43.0351C111.682 42.9233 111.76 42.8562 111.816 42.8338C111.883 42.8003 111.984 42.7835 112.118 42.7835H114.198C114.309 42.7835 114.399 42.8171 114.466 42.8841C114.544 42.94 114.578 43.0239 114.567 43.1357C114.555 43.3258 114.46 43.555 114.281 43.8233C114.103 44.0917 113.84 44.36 113.493 44.6283C113.158 44.8855 112.733 45.0979 112.219 45.2656C111.704 45.4333 111.106 45.5172 110.424 45.5172ZM108.999 40.1001H111.833V40.0666C111.833 39.7088 111.777 39.3958 111.665 39.1274C111.565 38.8591 111.402 38.6522 111.179 38.5069C110.966 38.3615 110.709 38.2889 110.407 38.2889C110.105 38.2889 109.848 38.3615 109.636 38.5069C109.435 38.6522 109.278 38.8591 109.166 39.1274C109.054 39.3958 108.999 39.7088 108.999 40.0666V40.1001ZM124.489 45.5172C123.371 45.5172 122.443 45.3607 121.705 45.0476C120.967 44.7234 120.408 44.3041 120.028 43.7898C119.648 43.2755 119.447 42.7276 119.424 42.1462C119.424 42.0568 119.458 41.9785 119.525 41.9114C119.603 41.8331 119.692 41.794 119.793 41.794H121.906C122.063 41.794 122.18 41.822 122.258 41.8779C122.348 41.9338 122.426 42.0065 122.493 42.0959C122.583 42.2636 122.706 42.4257 122.862 42.5823C123.03 42.7388 123.242 42.8674 123.5 42.968C123.768 43.0574 124.098 43.1022 124.489 43.1022C125.138 43.1022 125.624 43.0015 125.948 42.8003C126.284 42.599 126.451 42.3251 126.451 41.9785C126.451 41.7325 126.362 41.5313 126.183 41.3747C126.004 41.207 125.713 41.0617 125.311 40.9387C124.919 40.8045 124.394 40.6704 123.734 40.5362C122.885 40.3573 122.158 40.1281 121.554 39.8486C120.962 39.5579 120.509 39.1833 120.196 38.7249C119.883 38.2553 119.726 37.6739 119.726 36.9807C119.726 36.2987 119.916 35.6893 120.296 35.1527C120.688 34.616 121.23 34.1967 121.923 33.8948C122.616 33.593 123.438 33.442 124.388 33.442C125.16 33.442 125.836 33.5426 126.418 33.7439C127.01 33.9451 127.508 34.2135 127.91 34.5489C128.313 34.8843 128.615 35.2421 128.816 35.6223C129.028 35.9912 129.14 36.3546 129.151 36.7124C129.151 36.8018 129.118 36.8857 129.051 36.9639C128.984 37.031 128.9 37.0646 128.799 37.0646H126.585C126.462 37.0646 126.356 37.0422 126.267 36.9975C126.177 36.9528 126.099 36.8801 126.032 36.7795C125.965 36.5335 125.786 36.3211 125.495 36.1422C125.216 35.9521 124.847 35.857 124.388 35.857C123.896 35.857 123.511 35.9465 123.231 36.1254C122.963 36.2931 122.829 36.5558 122.829 36.9136C122.829 37.1372 122.901 37.3329 123.047 37.5006C123.203 37.6683 123.455 37.8137 123.801 37.9367C124.159 38.0597 124.646 38.1882 125.26 38.3224C126.278 38.5125 127.1 38.7529 127.726 39.0436C128.352 39.3231 128.81 39.692 129.101 40.1504C129.392 40.5977 129.537 41.1623 129.537 41.8443C129.537 42.6046 129.319 43.2643 128.883 43.8233C128.458 44.3712 127.866 44.7905 127.105 45.0811C126.345 45.3718 125.473 45.5172 124.489 45.5172ZM135.493 45.3495C134.777 45.3495 134.157 45.2377 133.631 45.0141C133.117 44.7793 132.72 44.4215 132.44 43.9407C132.161 43.4488 132.021 42.8171 132.021 42.0456V38.8255H130.713C130.59 38.8255 130.484 38.7864 130.394 38.7081C130.316 38.6299 130.277 38.5292 130.277 38.4063V37.0478C130.277 36.9248 130.316 36.8242 130.394 36.7459C130.484 36.6677 130.59 36.6285 130.713 36.6285H132.021V33.8613C132.021 33.7383 132.06 33.6377 132.138 33.5594C132.228 33.4811 132.329 33.442 132.44 33.442H134.386C134.509 33.442 134.609 33.4811 134.688 33.5594C134.766 33.6377 134.805 33.7383 134.805 33.8613V36.6285H136.901C137.024 36.6285 137.125 36.6677 137.203 36.7459C137.282 36.8242 137.321 36.9248 137.321 37.0478V38.4063C137.321 38.5292 137.282 38.6299 137.203 38.7081C137.125 38.7864 137.024 38.8255 136.901 38.8255H134.805V41.8108C134.805 42.1909 134.878 42.4928 135.023 42.7164C135.168 42.94 135.414 43.0518 135.761 43.0518H137.052C137.175 43.0518 137.276 43.091 137.354 43.1692C137.433 43.2475 137.472 43.3481 137.472 43.4711V44.9302C137.472 45.0532 137.433 45.1538 137.354 45.2321C137.276 45.3104 137.175 45.3495 137.052 45.3495H135.493ZM142.986 45.5172C142.047 45.5172 141.253 45.3663 140.604 45.0644C139.967 44.7625 139.475 44.332 139.129 43.773C138.793 43.2028 138.603 42.5264 138.558 41.7437C138.547 41.5201 138.542 41.2685 138.542 40.989C138.542 40.6983 138.547 40.4467 138.558 40.2343C138.603 39.4405 138.804 38.764 139.162 38.205C139.52 37.646 140.017 37.2155 140.655 36.9136C141.303 36.6117 142.08 36.4608 142.986 36.4608C143.903 36.4608 144.68 36.6117 145.317 36.9136C145.966 37.2155 146.469 37.646 146.827 38.205C147.184 38.764 147.386 39.4405 147.43 40.2343C147.441 40.4467 147.447 40.6983 147.447 40.989C147.447 41.2685 147.441 41.5201 147.43 41.7437C147.386 42.5264 147.19 43.2028 146.843 43.773C146.508 44.332 146.016 44.7625 145.367 45.0644C144.73 45.3663 143.936 45.5172 142.986 45.5172ZM142.986 43.4711C143.489 43.4711 143.852 43.3202 144.076 43.0183C144.311 42.7164 144.445 42.2636 144.479 41.6598C144.49 41.4921 144.495 41.2685 144.495 40.989C144.495 40.7095 144.49 40.4859 144.479 40.3182C144.445 39.7256 144.311 39.2784 144.076 38.9765C143.852 38.6634 143.489 38.5069 142.986 38.5069C142.494 38.5069 142.131 38.6634 141.896 38.9765C141.661 39.2784 141.532 39.7256 141.51 40.3182C141.499 40.4859 141.493 40.7095 141.493 40.989C141.493 41.2685 141.499 41.4921 141.51 41.6598C141.532 42.2636 141.661 42.7164 141.896 43.0183C142.131 43.3202 142.494 43.4711 142.986 43.4711ZM149.516 45.3495C149.393 45.3495 149.292 45.3104 149.214 45.2321C149.136 45.1538 149.097 45.0532 149.097 44.9302V37.0478C149.097 36.936 149.136 36.841 149.214 36.7627C149.292 36.6732 149.393 36.6285 149.516 36.6285H151.444C151.567 36.6285 151.668 36.6732 151.746 36.7627C151.825 36.841 151.864 36.936 151.864 37.0478V37.7186C152.166 37.372 152.523 37.1037 152.937 36.9136C153.362 36.7236 153.837 36.6285 154.363 36.6285H155.101C155.212 36.6285 155.307 36.6677 155.386 36.7459C155.475 36.8242 155.52 36.9248 155.52 37.0478V38.7752C155.52 38.887 155.475 38.9877 155.386 39.0771C155.307 39.1554 155.212 39.1945 155.101 39.1945H153.474C153.015 39.1945 152.658 39.3231 152.4 39.5802C152.154 39.8262 152.031 40.1784 152.031 40.6368V44.9302C152.031 45.0532 151.987 45.1538 151.897 45.2321C151.819 45.3104 151.718 45.3495 151.595 45.3495H149.516ZM160.672 45.5172C159.353 45.5172 158.302 45.1594 157.519 44.4438C156.736 43.7283 156.328 42.6661 156.295 41.2573C156.295 41.1791 156.295 41.0784 156.295 40.9555C156.295 40.8325 156.295 40.7374 156.295 40.6704C156.328 39.7871 156.524 39.0324 156.882 38.4063C157.251 37.769 157.754 37.2882 158.391 36.9639C159.039 36.6285 159.794 36.4608 160.655 36.4608C161.639 36.4608 162.45 36.6565 163.087 37.0478C163.735 37.4391 164.222 37.9702 164.546 38.6411C164.87 39.3119 165.032 40.0778 165.032 40.9387V41.3412C165.032 41.4642 164.988 41.5648 164.898 41.6431C164.82 41.7213 164.725 41.7605 164.613 41.7605H159.246C159.246 41.7717 159.246 41.7884 159.246 41.8108C159.246 41.8331 159.246 41.8555 159.246 41.8779C159.258 42.2021 159.313 42.4984 159.414 42.7667C159.515 43.0351 159.671 43.2475 159.884 43.404C160.096 43.5606 160.353 43.6388 160.655 43.6388C160.879 43.6388 161.063 43.6053 161.209 43.5382C161.365 43.4599 161.494 43.3761 161.594 43.2866C161.695 43.186 161.773 43.1022 161.829 43.0351C161.93 42.9233 162.008 42.8562 162.064 42.8338C162.131 42.8003 162.232 42.7835 162.366 42.7835H164.445C164.557 42.7835 164.647 42.8171 164.714 42.8841C164.792 42.94 164.826 43.0239 164.814 43.1357C164.803 43.3258 164.708 43.555 164.529 43.8233C164.35 44.0917 164.088 44.36 163.741 44.6283C163.406 44.8855 162.981 45.0979 162.466 45.2656C161.952 45.4333 161.354 45.5172 160.672 45.5172ZM159.246 40.1001H162.081V40.0666C162.081 39.7088 162.025 39.3958 161.913 39.1274C161.812 38.8591 161.65 38.6522 161.427 38.5069C161.214 38.3615 160.957 38.2889 160.655 38.2889C160.353 38.2889 160.096 38.3615 159.884 38.5069C159.682 38.6522 159.526 38.8591 159.414 39.1274C159.302 39.3958 159.246 39.7088 159.246 40.0666V40.1001Z" fill="white"/>
<path d="M36.7344 42.414C36.1491 42.0292 35.6305 41.5538 35.1983 41.0059C34.7228 40.4404 34.2824 39.8471 33.8792 39.2293C32.9331 37.8595 32.1912 36.3624 31.6761 34.784C31.0574 32.9505 30.7578 31.1931 30.7578 29.4743C30.7578 27.5546 31.178 25.8788 31.9999 24.4707C32.6091 23.3701 33.5048 22.4504 34.5944 21.8067C35.6503 21.1585 36.8635 20.8038 38.1063 20.7799C38.5413 20.7799 39.0098 20.8422 39.507 20.9614C39.8641 21.0613 40.2992 21.219 40.8307 21.4152C41.5069 21.6728 41.8789 21.8305 42.005 21.869C42.4011 22.012 42.7341 22.0743 42.9957 22.0743C43.1942 22.0743 43.4743 22.012 43.7925 21.9167C43.9715 21.8543 44.3092 21.7443 44.7925 21.5399C45.2711 21.3675 45.6477 21.2199 45.9473 21.1099C46.4065 20.9761 46.8508 20.8523 47.2469 20.79C47.7165 20.7168 48.193 20.6974 48.6671 20.7322C49.4886 20.7853 50.2977 20.9573 51.0686 21.2429C52.3293 21.7443 53.3487 22.5272 54.1075 23.6401C53.7868 23.8355 53.4858 24.0608 53.2086 24.313C52.6053 24.8416 52.0914 25.4621 51.6864 26.1511C51.157 27.0926 50.8826 28.1533 50.8896 29.2304C50.9091 30.5533 51.2523 31.7184 51.9285 32.7259C52.4257 33.4726 53.0718 34.1112 53.8273 34.6025C54.2141 34.8601 54.5472 35.037 54.8663 35.1562C54.7169 35.6146 54.5574 36.0583 54.3691 36.4983C53.942 37.4851 53.4244 38.4311 52.8227 39.3246C52.2866 40.0938 51.8664 40.6667 51.5473 41.0481C51.0501 41.6302 50.5714 42.0748 50.0882 42.3847C49.5566 42.7331 48.9287 42.9192 48.2905 42.9192C47.8582 42.9356 47.4261 42.8839 47.0104 42.7661C46.6532 42.6469 46.2998 42.5176 45.952 42.37C45.5903 42.2059 45.2174 42.0671 44.8361 41.9547C43.8933 41.7154 42.9049 41.7139 41.9614 41.9502C41.5746 42.0602 41.2026 42.1885 40.8353 42.3462C40.3186 42.5607 39.9754 42.7046 39.7769 42.7661C39.3808 42.8807 38.9699 42.9522 38.5543 42.976C37.9115 42.976 37.3123 42.7945 36.7186 42.4269L36.7344 42.414ZM45.2127 19.8485C44.3723 20.2638 43.5699 20.4407 42.7731 20.383C42.6478 19.59 42.7731 18.7787 43.1061 17.8903C43.3896 17.1378 43.8085 16.4421 44.3426 15.8368C44.9066 15.1997 45.5909 14.6775 46.3573 14.2995C47.1736 13.8842 47.9519 13.6596 48.6958 13.6266C48.7923 14.4572 48.6958 15.274 48.3869 16.1568C48.1011 16.9372 47.6829 17.6638 47.1504 18.3056C46.6069 18.9436 45.9399 19.4679 45.1886 19.8476L45.2127 19.8485Z" fill="white"/>
</svg>
