<?xml version="1.0" encoding="UTF-8"?>
<svg id="Capa_1" data-name="Capa 1" xmlns="http://www.w3.org/2000/svg" xmlns:xlink="http://www.w3.org/1999/xlink" version="1.1" viewBox="0 0 343 219">
  <defs>
    <style>
      .cls-1 {
        clip-path: url(#clippath);
      }

      .cls-2, .cls-3, .cls-4, .cls-5 {
        fill: none;
      }

      .cls-2, .cls-6, .cls-7, .cls-8, .cls-9, .cls-10, .cls-11, .cls-12, .cls-13 {
        stroke-width: 0px;
      }

      .cls-3 {
        stroke-miterlimit: 10;
      }

      .cls-3, .cls-4 {
        stroke: #fff;
      }

      .cls-4 {
        stroke-linecap: round;
        stroke-linejoin: round;
        stroke-width: 2.8px;
      }

      .cls-14 {
        clip-path: url(#clippath-1);
      }

      .cls-6 {
        fill: #000;
      }

      .cls-7 {
        fill: url(#Degradado_sin_nombre-2);
      }

      .cls-8 {
        fill: url(#Degradado_sin_nombre_3);
      }

      .cls-9 {
        fill: url(#Degradado_sin_nombre_2);
      }

      .cls-10 {
        fill: url(#Degradado_sin_nombre_6);
      }

      .cls-11 {
        fill: url(#Degradado_sin_nombre);
      }

      .cls-15 {
        font-family: MyriadPro-Regular, 'Myriad Pro';
        font-size: 12px;
      }

      .cls-15, .cls-13 {
        fill: #fff;
      }

      .cls-16 {
        opacity: .6;
      }

      .cls-12 {
        fill: #f9f9f9;
      }

      .cls-17 {
        fill: url(#Degradado_sin_nombre_4);
        stroke: url(#Degradado_sin_nombre_5);
        stroke-width: .6px;
      }

      .cls-5 {
        isolation: isolate;
        opacity: .5;
        stroke: #bfb985;
        stroke-linejoin: bevel;
        stroke-width: .7px;
      }
    </style>
    <clipPath id="clippath">
      <rect class="cls-2" x=".9" width="341.7" height="218.5" rx="6.7" ry="6.7"/>
    </clipPath>
    <linearGradient id="Degradado_sin_nombre" data-name="Degradado sin nombre" x1=".9" y1="110.8" x2="342.6" y2="110.8" gradientTransform="translate(0 220) scale(1 -1)" gradientUnits="userSpaceOnUse">
      <stop offset="0" stop-color="#606060"/>
      <stop offset="1" stop-color="#7d7d7d"/>
    </linearGradient>
    <clipPath id="clippath-1">
      <rect class="cls-2" x="-371.3" y="196.1" width="341.7" height="218.5" rx="6.7" ry="6.7"/>
    </clipPath>
    <linearGradient id="Degradado_sin_nombre-2" data-name="Degradado sin nombre" x1="-371.3" y1="-85.3" x2="-29.6" y2="-85.3" xlink:href="#Degradado_sin_nombre"/>
    <linearGradient id="Degradado_sin_nombre_2" data-name="Degradado sin nombre 2" x1="-45.7" y1="55.8" x2="-45.7" y2="-85.1" gradientTransform="translate(0 220) scale(1 -1)" gradientUnits="userSpaceOnUse">
      <stop offset="0" stop-color="#00e977"/>
      <stop offset="1" stop-color="#02fb7e" stop-opacity=".1"/>
    </linearGradient>
    <linearGradient id="Degradado_sin_nombre_3" data-name="Degradado sin nombre 3" x1="-309.3" y1="-110.2" x2="-309.3" y2="-251.1" gradientTransform="translate(0 220) scale(1 -1)" gradientUnits="userSpaceOnUse">
      <stop offset="0" stop-color="#00e977"/>
      <stop offset="1" stop-color="#02fb7e" stop-opacity=".1"/>
    </linearGradient>
    <linearGradient id="Degradado_sin_nombre_4" data-name="Degradado sin nombre 4" x1="-316.1" y1="859.7" x2="-300" y2="906.4" gradientTransform="translate(0 -572)" gradientUnits="userSpaceOnUse">
      <stop offset="0" stop-color="#dcd59e"/>
      <stop offset="1" stop-color="#cbbb82"/>
    </linearGradient>
    <linearGradient id="Degradado_sin_nombre_5" data-name="Degradado sin nombre 5" x1="-323.6" y1="854.8" x2="-303.2" y2="886.8" gradientTransform="translate(0 -572)" gradientUnits="userSpaceOnUse">
      <stop offset="0" stop-color="#fbf3c0"/>
      <stop offset="1" stop-color="#ccbc84"/>
    </linearGradient>
    <linearGradient id="Degradado_sin_nombre_6" data-name="Degradado sin nombre 6" x1="-297.7" y1="3.7" x2="-297.7" y2="-14.1" gradientTransform="translate(0 220) scale(1 -1)" gradientUnits="userSpaceOnUse">
      <stop offset="0" stop-color="#00e977"/>
      <stop offset="1" stop-color="#02fb7e"/>
    </linearGradient>
  </defs>
  <g class="cls-1">
    <rect class="cls-11" x=".9" width="341.7" height="218.5" rx="6.7" ry="6.7"/>
  </g>
  <g class="cls-14">
    <g>
      <rect class="cls-7" x="-371.3" y="196.1" width="341.7" height="218.5" rx="6.7" ry="6.7"/>
      <path class="cls-9" d="M-25.6,304.9c-2,.5-2.5,2.5-2.5,4.8,0,4.3,1.7,9.1,1.7,12.9,0,10.9-5.9,16.3-17.8,16.3s-18.1-6.6-18.1-15.6,1.5-9.3,1.5-12.9-.2-4.1-2.5-4.3c-40.4-3.4-51.5-21.7-51.5-36.2s7.9-25.1,27.5-25.2c15.6,0,16.1,9.3,16.3,14,.5,14,6.2,18.1,24,18.1s24.5-4.3,24.5-17.2-2-13.6-17.3-15.6c-31.2-3.8-69.6-10.8-69.6-50.2s12.6-39.6,45-45.1c1.7-.2,2.5-2,2.5-4.3,0-4.1-1.7-9.1-1.7-12.9,0-10.9,5.9-16.3,17.8-16.3s18.1,6.6,18.1,15.6-1.5,9.5-1.5,12.9.3,4.3,2.5,4.8c36.9,5.4,43.8,26.3,43.8,35.8s-9.2,22.9-25.3,22.9-15.4-7.7-15.6-13.4c-.8-11.1-2.5-19.7-23-19.7s-21,5.7-21,16.1,9.4,15.4,24.8,17.7c30.9,4.5,66.4,12,66.4,48.9s-13.4,41.9-49,48.3v-.2Z"/>
      <path class="cls-8" d="M-289.2,470.9c-2,.5-2.5,2.5-2.5,4.8,0,4.3,1.7,9.1,1.7,12.9,0,10.9-5.9,16.3-17.8,16.3s-18.1-6.6-18.1-15.6,1.5-9.3,1.5-12.9-.2-4.1-2.5-4.3c-40.4-3.4-51.5-21.7-51.5-36.2s7.9-25.1,27.5-25.2c15.6,0,16.1,9.3,16.3,14,.5,14,6.2,18.1,24,18.1s24.5-4.3,24.5-17.2-2-13.6-17.3-15.6c-31.1-3.8-69.5-10.8-69.5-50.2s12.6-39.6,45-45.1c1.7-.2,2.5-2,2.5-4.3,0-4.1-1.7-9.1-1.7-12.9,0-10.9,5.9-16.3,17.8-16.3s18.1,6.6,18.1,15.6-1.5,9.5-1.5,12.9.3,4.3,2.5,4.8c36.9,5.4,43.8,26.3,43.8,35.8s-9.2,22.9-25.3,22.9-15.4-7.7-15.6-13.4c-.8-11.1-2.5-19.7-23-19.7s-21,5.7-21,16.1,9.4,15.4,24.8,17.7c30.9,4.5,66.4,12,66.4,48.9s-13.4,41.9-49,48.3v-.2Z"/>
      <g class="cls-16">
        <path class="cls-4" d="M-278.3,307.9c1.1-1.1,1.8-2.7,1.8-4.3s-.6-3.2-1.8-4.3"/>
        <path class="cls-4" d="M-273.6,310.8c1.6-2,2.5-4.6,2.5-7.2s-.9-5.1-2.5-7.2"/>
        <path class="cls-4" d="M-269.5,313.6c2.2-2.9,3.4-6.4,3.4-10s-1.2-7.1-3.3-10"/>
        <path class="cls-4" d="M-264.9,290.7c2.8,3.9,4.3,8.5,4.2,13.3,0,4.8-1.7,9.4-4.7,13.1"/>
      </g>
      <rect class="cls-17" x="-334.6" y="285.6" width="47.5" height="34.4" rx="-119.8" ry="-119.8"/>
      <g>
        <path class="cls-5" d="M-309.8,287c-.4-.8-1.6-.8-2,0l-4.2,8.6s2.1,6.3,0,13.5l4.2,9.5c.4.9,1.7.9,2.1,0l4.2-9.5s-2.1-3.9,0-13.5l-4.2-8.6h0Z"/>
        <path class="cls-5" d="M-334.8,295.5h18.7"/>
        <path class="cls-5" d="M-306,295.5h19.2"/>
        <path class="cls-5" d="M-334.8,309h18.7"/>
        <path class="cls-5" d="M-306,309h19.2"/>
      </g>
      <path class="cls-13" d="M-65.3,378.5c-1.6-.6-3.2-.8-4.9-.8-5.4,0-9.2,2.7-9.2,6.5s2.7,4.4,4.8,5.3c2.1,1,2.8,1.6,2.8,2.4,0,1.3-1.7,1.9-3.3,1.9s-3.3-.3-5.1-1l-.7-.3-.8,4.4c1.3.5,3.7,1,6.1,1,5.7,0,9.5-2.6,9.5-6.7s-1.4-3.9-4.5-5.3c-1.9-.9-3.1-1.5-3.1-2.4s1-1.7,3.1-1.7,2.8.2,4.1.8l.5.2.8-4.2h-.1,0ZM-51.4,378.1h-4.2c-1.3,0-2.3.4-2.9,1.6l-8.1,17.9h5.7l1.1-2.9h7c.2.7.7,2.9.7,2.9h5l-4.4-19.5h0ZM-87.1,377.9h5.4l-3.4,19.6h-5.4l3.4-19.6h0ZM-101,388.7l.6,2.7,5.3-13.3h5.8l-8.6,19.5h-5.8l-4.7-16.5c0-.3-.3-.5-.5-.7-1.7-.9-3.5-1.5-5.4-1.9v-.4h8.8c1.2,0,2.1.4,2.5,1.7l1.9,9h.1ZM-58.1,390.7l2.2-5.5s.4-1.1.7-1.9l.4,1.7,1.3,5.6h-4.6Z"/>
      <g>
        <path class="cls-13" d="M-343.4,390.2v6.1h-2.7v-14.8h6.3c3.2,0,4.9,1.7,4.9,4s-1.1,3.1-2.3,3.5c.9.3,2,1.1,2,3.7v.7c0,1,0,2.2.2,2.9h-2.7c-.3-.6-.3-1.8-.3-3.3v-.2c0-1.8-.5-2.6-3-2.6h-2.4ZM-343.4,388h2.9c1.9,0,2.7-.7,2.7-2.1s-.9-2.1-2.6-2.1h-3v4.2h0Z"/>
        <path class="cls-13" d="M-322.5,390.8c0,3.3-1.9,5.8-5.4,5.8s-5.3-2.4-5.3-5.7,2-5.8,5.4-5.8,5.2,2.3,5.2,5.7h0ZM-330.5,390.8c0,2.2,1,3.6,2.7,3.6s2.6-1.4,2.6-3.6-.9-3.7-2.6-3.7-2.6,1.3-2.6,3.6h-.1Z"/>
        <path class="cls-13" d="M-320.3,380.7h2.7v2.6h-2.7v-2.6ZM-320.3,385.3h2.7v11h-2.7v-11Z"/>
        <path class="cls-13" d="M-306.3,390.2v6.1h-2.7v-14.8h6.3c3.2,0,4.9,1.7,4.9,4s-1.1,3.1-2.3,3.5c.9.3,2,1.1,2,3.7v.7c0,1,0,2.2.2,2.9h-2.7c-.3-.6-.3-1.8-.3-3.3v-.2c0-1.8-.5-2.6-3-2.6h-2.4,0ZM-306.3,388h2.9c1.9,0,2.7-.7,2.7-2.1s-.9-2.1-2.6-2.1h-3v4.2h0Z"/>
        <path class="cls-13" d="M-285.5,390.8c0,3.3-1.9,5.8-5.4,5.8s-5.3-2.4-5.3-5.7,2-5.8,5.4-5.8,5.2,2.3,5.2,5.7h.1ZM-293.5,390.8c0,2.2,1,3.6,2.7,3.6s2.6-1.4,2.6-3.6-.9-3.7-2.6-3.7-2.6,1.3-2.6,3.6h0Z"/>
        <path class="cls-13" d="M-283.3,388.2v-2.8h2.6c0,.3,0,1,0,1.4.5-.9,1.5-1.7,3.1-1.7s2.5.8,2.9,1.8c.6-.9,1.6-1.8,3.4-1.8s3.5,1.1,3.5,4v7.2h-2.6v-6.9c0-1.1-.4-2.2-1.8-2.2s-2.1,1-2.1,2.8v6.3h-2.6v-6.8c0-1.2-.3-2.3-1.8-2.3s-2.1,1-2.1,2.9v6.1h-2.6v-8.2.2Z"/>
        <path class="cls-13" d="M-262.8,391.4c0,1.7.8,3.1,2.5,3.1s1.9-.6,2.2-1.4h2.7c-.4,1.4-1.6,3.5-4.9,3.5s-5.1-2.7-5.1-5.6,1.7-5.9,5.2-5.9,4.9,2.8,4.9,5.4,0,.6,0,.9h-7.5ZM-258,389.7c0-1.5-.7-2.7-2.3-2.7s-2.3,1.1-2.4,2.7h4.7Z"/>
        <path class="cls-13" d="M-253.1,388.3v-3h2.6v2c.5-1.3,1.7-2.3,3.6-2.3v2.6c-2.2,0-3.6.8-3.6,3.7v5h-2.7v-8h0Z"/>
        <path class="cls-13" d="M-235.2,390.8c0,3.3-1.9,5.8-5.4,5.8s-5.3-2.4-5.3-5.7,2-5.8,5.4-5.8,5.2,2.3,5.2,5.7h.1ZM-243.1,390.8c0,2.2,1,3.6,2.7,3.6s2.6-1.4,2.6-3.6-.9-3.7-2.6-3.7-2.6,1.3-2.6,3.6h0Z"/>
        <path class="cls-13" d="M-227.3,381.5h5.7c4.3,0,7.1,2.8,7.1,7.2s-2.7,7.6-7.2,7.6h-5.6v-14.8ZM-224.5,394.1h2.6c3.1,0,4.5-2.2,4.5-5.3s-1.3-5-4.4-5h-2.7v10.3h0Z"/>
        <path class="cls-13" d="M-212.7,396.3v-3.6h2.8v3.6h-2.8Z"/>
      </g>
      <g>
        <g>
          <path class="cls-12" d="M-352.2,224.3c0-5.8,4.3-10.1,10.3-10.1s9.2,3.3,10,8h-5.9c-.7-1.6-2.2-2.6-4.1-2.6s-4.4,1.9-4.4,4.6,1.8,4.6,4.4,4.6,3.4-1,4.1-2.6h5.9c-.8,4.7-4.7,8-10,8s-10.3-4.3-10.3-10.1v.2Z"/>
          <path class="cls-12" d="M-329.7,224.5c0-6.2,4.3-10.3,10.3-10.3s10.2,4,10.2,10.3v9.9h-5.3v-3.7c-1,2.4-3.2,3.7-5.9,3.7-4.3,0-9.3-3.2-9.3-9.8h0ZM-315,224.2c0-2.8-1.8-4.6-4.4-4.6s-4.4,1.9-4.4,4.6,1.8,4.6,4.4,4.6,4.4-1.9,4.4-4.7h0Z"/>
          <path class="cls-12" d="M-287.5,224.2c0-5.8,4.3-10.1,10.3-10.1s10.2,4.3,10.2,10.1v1.6h-14.4c.5,2.2,2.2,3.3,4.3,3.3s2.9-.3,3.6-1.4h6c-1.2,3.9-4.9,6.6-9.6,6.6s-10.3-4.3-10.3-10.1h0ZM-273,222.2c-.7-2-2.2-2.8-4.2-2.8s-3.6.9-4.1,2.8h8.4-.1Z"/>
          <path class="cls-12" d="M-264,223.9c0-6.4,3.8-9.7,9.4-9.7s9.5,3.2,9.5,9.7v10.4h-5.8v-10.4c0-3-1.5-4.3-3.6-4.3s-3.6,1.3-3.6,4.3v10.4h-5.8v-10.4h0Z"/>
          <path class="cls-12" d="M-242.1,224.4c0-6.2,4.3-10.3,10.3-10.3s10.2,4,10.2,10.3v9.9h-5.3v-3.7c-1,2.4-3.2,3.7-5.9,3.7-4.3,0-9.3-3.2-9.3-9.8h0ZM-227.3,224.2c0-2.8-1.8-4.6-4.4-4.6s-4.4,1.9-4.4,4.6,1.8,4.6,4.4,4.6,4.4-1.9,4.4-4.7h0Z"/>
          <path class="cls-12" d="M-217.7,222.9c0-6,3.5-8.8,8.6-8.8s8.6,2.7,8.6,8.8h0c0,.1-5.8.1-5.8.1v-.2c0-2.6-1.2-3.3-2.8-3.3s-2.8.8-2.8,3.3v11.4h-5.8v-11.4h0Z"/>
          <path class="cls-12" d="M-198.9,224.2c0-5.8,4.3-10.1,10.3-10.1s10.3,4.3,10.3,10.1-4.3,10.1-10.3,10.1-10.3-4.3-10.3-10.1ZM-184.2,224.2c0-2.8-1.8-4.6-4.4-4.6s-4.4,1.9-4.4,4.6,1.8,4.6,4.4,4.6,4.4-1.9,4.4-4.7h0Z"/>
        </g>
        <path class="cls-10" d="M-295.1,234.1c-.2,0-.3.3-.3.6,0,.5.2,1.1.2,1.6,0,1.4-.8,2.1-2.3,2.1s-2.3-.8-2.3-2,.2-1.2.2-1.6,0-.5-.3-.5c-5.1-.4-6.5-2.7-6.5-4.6s1-3.2,3.5-3.2,2,1.2,2.1,1.8c0,1.8.8,2.3,3,2.3s3.1-.5,3.1-2.2-.3-1.7-2.2-2c-3.9-.5-8.8-1.4-8.8-6.4s1.6-5,5.7-5.7c.2,0,.3-.3.3-.5,0-.5-.2-1.1-.2-1.6,0-1.4.8-2.1,2.3-2.1s2.3.8,2.3,2-.2,1.2-.2,1.6,0,.5.3.6c4.7.7,5.5,3.3,5.5,4.5s-1.2,2.9-3.2,2.9-1.9-1-2-1.7c0-1.4-.3-2.5-2.9-2.5s-2.7.7-2.7,2,1.2,1.9,3.1,2.2c3.9.6,8.4,1.5,8.4,6.2s-1.7,5.3-6.2,6.1h0Z"/>
      </g>
    </g>
  </g>
  <image width="352" height="316" transform="translate(-439.9 -178.9)" xlink:href="card-neon-back.png"/>
  <rect class="cls-6" x=".9" y="20.9" width="341.7" height="40.9"/>
  <text class="cls-15" transform="translate(92.7 14.6)"><tspan x="0" y="0">Tarjeta Multifuncional Casenaro</tspan></text>
  <g>
    <path class="cls-13" d="M41-85.4c0,2.7-1,4.1-2.7,4.1s-2.6-1.4-2.6-4c0-2.6,1.1-4.1,2.7-4.1s2.6,1.5,2.6,3.9ZM36.7-85.3c0,2,.6,3.2,1.6,3.2s1.6-1.3,1.6-3.3-.5-3.2-1.6-3.2-1.6,1.1-1.6,3.3Z"/>
    <path class="cls-13" d="M47.1-85.4c0,2.7-1,4.1-2.7,4.1s-2.6-1.4-2.6-4c0-2.6,1.1-4.1,2.7-4.1s2.6,1.5,2.6,3.9ZM42.9-85.3c0,2,.6,3.2,1.6,3.2s1.6-1.3,1.6-3.3-.5-3.2-1.6-3.2-1.6,1.1-1.6,3.3Z"/>
    <path class="cls-13" d="M53.3-85.4c0,2.7-1,4.1-2.7,4.1s-2.6-1.4-2.6-4c0-2.6,1.1-4.1,2.7-4.1s2.6,1.5,2.6,3.9ZM49.1-85.3c0,2,.6,3.2,1.6,3.2s1.6-1.3,1.6-3.3-.5-3.2-1.6-3.2-1.6,1.1-1.6,3.3Z"/>
    <path class="cls-13" d="M59.4-85.4c0,2.7-1,4.1-2.7,4.1s-2.6-1.4-2.6-4c0-2.6,1.1-4.1,2.7-4.1s2.6,1.5,2.6,3.9ZM55.2-85.3c0,2,.6,3.2,1.6,3.2s1.6-1.3,1.6-3.3-.5-3.2-1.6-3.2-1.6,1.1-1.6,3.3Z"/>
  </g>
  <rect class="cls-3" x="31.7" y="-93.4" width="31.8" height="16.3"/>
  <g>
    <path class="cls-13" d="M41-69.1c0,2.7-1,4.1-2.7,4.1s-2.6-1.4-2.6-4c0-2.6,1.1-4.1,2.7-4.1s2.6,1.5,2.6,3.9ZM36.7-68.9c0,2,.6,3.2,1.6,3.2s1.6-1.3,1.6-3.3-.5-3.2-1.6-3.2-1.6,1.1-1.6,3.3Z"/>
    <path class="cls-13" d="M47.1-69.1c0,2.7-1,4.1-2.7,4.1s-2.6-1.4-2.6-4c0-2.6,1.1-4.1,2.7-4.1s2.6,1.5,2.6,3.9ZM42.9-68.9c0,2,.6,3.2,1.6,3.2s1.6-1.3,1.6-3.3-.5-3.2-1.6-3.2-1.6,1.1-1.6,3.3Z"/>
    <path class="cls-13" d="M53.3-69.1c0,2.7-1,4.1-2.7,4.1s-2.6-1.4-2.6-4c0-2.6,1.1-4.1,2.7-4.1s2.6,1.5,2.6,3.9ZM49.1-68.9c0,2,.6,3.2,1.6,3.2s1.6-1.3,1.6-3.3-.5-3.2-1.6-3.2-1.6,1.1-1.6,3.3Z"/>
    <path class="cls-13" d="M59.4-69.1c0,2.7-1,4.1-2.7,4.1s-2.6-1.4-2.6-4c0-2.6,1.1-4.1,2.7-4.1s2.6,1.5,2.6,3.9ZM55.2-68.9c0,2,.6,3.2,1.6,3.2s1.6-1.3,1.6-3.3-.5-3.2-1.6-3.2-1.6,1.1-1.6,3.3Z"/>
  </g>
  <g>
    <path class="cls-13" d="M41-52.7c0,2.7-1,4.1-2.7,4.1s-2.6-1.4-2.6-4c0-2.6,1.1-4.1,2.7-4.1s2.6,1.5,2.6,3.9ZM36.7-52.6c0,2,.6,3.2,1.6,3.2s1.6-1.3,1.6-3.3-.5-3.2-1.6-3.2-1.6,1.1-1.6,3.3Z"/>
    <path class="cls-13" d="M47.1-52.7c0,2.7-1,4.1-2.7,4.1s-2.6-1.4-2.6-4c0-2.6,1.1-4.1,2.7-4.1s2.6,1.5,2.6,3.9ZM42.9-52.6c0,2,.6,3.2,1.6,3.2s1.6-1.3,1.6-3.3-.5-3.2-1.6-3.2-1.6,1.1-1.6,3.3Z"/>
    <path class="cls-13" d="M53.3-52.7c0,2.7-1,4.1-2.7,4.1s-2.6-1.4-2.6-4c0-2.6,1.1-4.1,2.7-4.1s2.6,1.5,2.6,3.9ZM49.1-52.6c0,2,.6,3.2,1.6,3.2s1.6-1.3,1.6-3.3-.5-3.2-1.6-3.2-1.6,1.1-1.6,3.3Z"/>
    <path class="cls-13" d="M59.4-52.7c0,2.7-1,4.1-2.7,4.1s-2.6-1.4-2.6-4c0-2.6,1.1-4.1,2.7-4.1s2.6,1.5,2.6,3.9ZM55.2-52.6c0,2,.6,3.2,1.6,3.2s1.6-1.3,1.6-3.3-.5-3.2-1.6-3.2-1.6,1.1-1.6,3.3Z"/>
  </g>
  <rect class="cls-3" x="31.7" y="-60.8" width="31.8" height="16.3"/>
  <g>
    <path class="cls-13" d="M41-36.4c0,2.7-1,4.1-2.7,4.1s-2.6-1.4-2.6-4c0-2.6,1.1-4.1,2.7-4.1s2.6,1.5,2.6,3.9ZM36.7-36.3c0,2,.6,3.2,1.6,3.2s1.6-1.3,1.6-3.3-.5-3.2-1.6-3.2-1.6,1.1-1.6,3.3Z"/>
    <path class="cls-13" d="M47.1-36.4c0,2.7-1,4.1-2.7,4.1s-2.6-1.4-2.6-4c0-2.6,1.1-4.1,2.7-4.1s2.6,1.5,2.6,3.9ZM42.9-36.3c0,2,.6,3.2,1.6,3.2s1.6-1.3,1.6-3.3-.5-3.2-1.6-3.2-1.6,1.1-1.6,3.3Z"/>
    <path class="cls-13" d="M53.3-36.4c0,2.7-1,4.1-2.7,4.1s-2.6-1.4-2.6-4c0-2.6,1.1-4.1,2.7-4.1s2.6,1.5,2.6,3.9ZM49.1-36.3c0,2,.6,3.2,1.6,3.2s1.6-1.3,1.6-3.3-.5-3.2-1.6-3.2-1.6,1.1-1.6,3.3Z"/>
    <path class="cls-13" d="M59.4-36.4c0,2.7-1,4.1-2.7,4.1s-2.6-1.4-2.6-4c0-2.6,1.1-4.1,2.7-4.1s2.6,1.5,2.6,3.9ZM55.2-36.3c0,2,.6,3.2,1.6,3.2s1.6-1.3,1.6-3.3-.5-3.2-1.6-3.2-1.6,1.1-1.6,3.3Z"/>
  </g>
  <rect class="cls-3" x="31.7" y="-44.5" width="31.8" height="16.3"/>
</svg>