<?xml version="1.0" encoding="UTF-8"?>
<svg id="Capa_1" data-name="Capa 1" xmlns="http://www.w3.org/2000/svg" xmlns:xlink="http://www.w3.org/1999/xlink" version="1.1" viewBox="0 0 377 423">
  <defs>
    <style>
      .cls-1 {
        fill: url(#Degradado_sin_nombre_4);
        fill-rule: evenodd;
        stroke-width: 0px;
      }
    </style>
    <linearGradient id="Degradado_sin_nombre_4" data-name="Degradado sin nombre 4" x1="-36.8" y1="351.9" x2="365.6" y2="128.8" gradientTransform="translate(0 424) scale(1 -1)" gradientUnits="userSpaceOnUse">
      <stop offset="0" stop-color="#00e977"/>
      <stop offset="1" stop-color="#02fb7e" stop-opacity=".1"/>
    </linearGradient>
  </defs>
  <path class="cls-1" d="M373.6,112.8c-2.4,6.1-6,11.7-10.6,16.4h0c-9.3,9.5-22,15-35.3,15.3-13.3.3-26.2-4.7-35.9-13.8-21.5-20.3-50.1-31.4-79.7-31s-57.8,12.3-78.8,33.2c-10.3,10.3-18.5,22.5-24.1,35.9-5.6,13.4-8.4,27.9-8.4,42.4s2.9,29,8.4,42.4c5.6,13.4,13.8,25.7,24.1,35.9,20.9,20.9,49.2,32.8,78.8,33.2,29.6.4,58.2-10.7,79.7-31,9.7-9.1,22.6-14.1,35.9-13.8,13.3.3,26,5.8,35.3,15.3,4.6,4.7,8.2,10.3,10.6,16.4,2.4,6.1,3.6,12.6,3.4,19.2-.1,6.6-1.6,13-4.3,19-2.7,6-6.5,11.4-11.3,15.9-30.2,28.6-68.1,47.8-109.1,55.3-41,7.4-83.2,2.8-121.5-13.4-38.3-16.2-71.1-43.2-94.4-77.7C13.2,293.4.6,252.9,0,211.3c.6-41.6,13.2-82.2,36.5-116.7,23.2-34.5,56-61.5,94.4-77.7C169.2.7,211.4-4,252.4,3.4c41,7.4,78.8,26.6,109.1,55.3,4.8,4.5,8.6,9.9,11.3,15.9,2.7,6,4.1,12.5,4.3,19,.1,6.6-1,13.1-3.4,19.2ZM264,211.1c.2,27.5-22.3,49.9-50.1,50.1s-50.5-22-50.7-49.5c-.2-27.5,22.3-49.9,50.1-50.1,27.8-.2,50.5,22,50.7,49.5Z"/>
</svg>