<?xml version="1.0" encoding="UTF-8"?>
<svg id="Capa_1" data-name="Capa 1" xmlns="http://www.w3.org/2000/svg" xmlns:xlink="http://www.w3.org/1999/xlink" version="1.1" viewBox="0 0 511 509">
  <defs>
    <style>
      .cls-1 {
        fill: #c3f4c3;
      }

      .cls-1, .cls-2, .cls-3 {
        stroke-width: 0px;
      }

      .cls-2 {
        fill: url(#Degradado_sin_nombre_4);
      }

      .cls-3 {
        fill: #364d7a;
      }
    </style>
    <linearGradient id="Degradado_sin_nombre_4" data-name="Degradado sin nombre 4" x1="624.3" y1="705.8" x2="92.3" y2="460.6" gradientTransform="translate(0 -282)" gradientUnits="userSpaceOnUse">
      <stop offset="0" stop-color="#00e977"/>
      <stop offset="1" stop-color="#02fb7e" stop-opacity=".1"/>
    </linearGradient>
  </defs>
  <path class="cls-2" d="M255.5,0C188.1-.3,123.4,26.1,75.5,73.5,27.6,120.8.5,185.2,0,252.6c0,67.8,26.9,132.7,74.8,180.6,47.9,47.9,112.9,74.8,180.6,74.8s132.7-26.9,180.6-74.8,74.8-112.9,74.8-180.6c-.5-67.3-27.6-131.8-75.5-179.1C387.5,26.1,322.8-.3,255.5,0ZM255.5,385.9c-26.3-.3-52-8.4-73.7-23.2-21.7-14.8-38.6-35.8-48.5-60.2-9.9-24.4-12.3-51.2-7-77s18.1-49.4,36.9-67.9c18.7-18.5,42.5-31.1,68.3-36.1s52.6-2.3,76.9,7.9c24.3,10.1,45,27.2,59.6,49.1s22.4,47.6,22.4,74c-.1,17.6-3.7,35-10.5,51.3-6.8,16.2-16.8,31-29.3,43.4s-27.4,22.2-43.7,28.8c-16.3,6.6-33.8,10-51.4,9.9h0Z"/>
  <g>
    <g>
      <path class="cls-1" d="M355.7,199.9c3.6,0,6.3,2.7,6.3,6.4s-2.1,5.7-5,6.2v-3.7c1-.4,1.6-1.4,1.6-2.5s-1.2-2.7-2.9-2.7-2.9,1.1-2.9,2.7.6,2.1,1.6,2.5v3.7c-2.9-.5-5-2.9-5-6.2s2.7-6.4,6.3-6.4h-.1Z"/>
      <path class="cls-1" d="M355.6,213.9c3.9,0,6.4,2.7,6.4,6.4s-2.5,6.3-6.4,6.3h-6.2v-3.3h2.3c-1.5-.6-2.3-2-2.3-3.7,0-2.7,2-5.8,6.1-5.8h0ZM355.8,223.1c1.7,0,2.9-1.1,2.9-2.7s-1.2-2.7-2.9-2.7-2.9,1.1-2.9,2.7,1.2,2.7,2.9,2.7h0Z"/>
      <path class="cls-1" d="M355.8,240.2c3.6,0,6.3,2.7,6.3,6.4s-2.7,6.3-6.3,6.3h-1v-9c-1.4.3-2.1,1.4-2.1,2.7s.2,1.8.9,2.2v3.7c-2.4-.7-4.1-3-4.1-6s2.7-6.4,6.3-6.4h0ZM357,249.2c1.2-.4,1.7-1.4,1.7-2.6s-.6-2.2-1.7-2.5v5.2h0q0,0,0,0Z"/>
      <path class="cls-1" d="M356,254.8c4,0,6,2.4,6,5.8s-2,5.9-6,5.9h-6.5v-3.6h6.5c1.9,0,2.7-.9,2.7-2.2s-.8-2.2-2.7-2.2h-6.5v-3.6h6.5Z"/>
      <path class="cls-1" d="M355.7,268.4c3.9,0,6.4,2.7,6.4,6.4s-2.5,6.3-6.4,6.3h-6.2v-3.3h2.3c-1.5-.6-2.3-2-2.3-3.7,0-2.7,2-5.8,6.1-5.8h0ZM355.8,277.6c1.7,0,2.9-1.1,2.9-2.7s-1.2-2.7-2.9-2.7-2.9,1.1-2.9,2.7,1.2,2.7,2.9,2.7h0Z"/>
      <path class="cls-1" d="M356.6,283.6c3.7,0,5.5,2.2,5.5,5.3s-1.7,5.3-5.5,5.3h0c0,0,0-3.6,0-3.6h.1c1.6,0,2.1-.7,2.1-1.7s-.5-1.7-2.1-1.7h-7.1v-3.6h7.1,0Z"/>
      <path class="cls-1" d="M355.8,295.3c3.6,0,6.3,2.7,6.3,6.4s-2.7,6.4-6.3,6.4-6.3-2.7-6.3-6.4,2.7-6.4,6.3-6.4ZM355.8,304.4c1.7,0,2.9-1.1,2.9-2.7s-1.2-2.7-2.9-2.7-2.9,1.1-2.9,2.7,1.2,2.7,2.9,2.7h0Z"/>
    </g>
    <path class="cls-3" d="M349.6,235.4c0-.1-.2-.2-.4-.2-.3,0-.7.1-1,.1-.9,0-1.3-.5-1.3-1.4s.5-1.4,1.2-1.4.7.1,1,.1.3,0,.3-.2c.2-3.2,1.7-4,2.9-4s2,.6,2,2.2-.7,1.2-1.1,1.3c-1.1,0-1.4.5-1.4,1.9s.3,1.9,1.4,1.9,1.1-.2,1.2-1.4c.3-2.4.9-5.5,4-5.5s3.1,1,3.5,3.5c0,.1.2.2.3.2.3,0,.7-.1,1-.1.9,0,1.3.5,1.3,1.4s-.5,1.4-1.2,1.4-.7-.1-1-.1-.3,0-.4.2c-.4,2.9-2.1,3.4-2.8,3.4s-1.8-.7-1.8-2,.6-1.2,1.1-1.2c.9,0,1.6-.2,1.6-1.8s-.4-1.7-1.2-1.7-1.2.7-1.4,1.9c-.4,2.4-.9,5.2-3.9,5.2s-3.3-1.1-3.8-3.9h0Z"/>
  </g>
</svg>