<?xml version="1.0" encoding="UTF-8"?>
<svg id="Capa_1" data-name="Capa 1" xmlns="http://www.w3.org/2000/svg" xmlns:xlink="http://www.w3.org/1999/xlink" version="1.1" viewBox="0 0 511 509">
  <defs>
    <style>
      .cls-1 {
        fill: #c4f3f7;
        fill-rule: evenodd;
      }

      .cls-1, .cls-2 {
        stroke-width: 0px;
      }

      .cls-2 {
        fill: url(#Degradado_sin_nombre);
      }
    </style>
    <linearGradient id="Degradado_sin_nombre" data-name="Degradado sin nombre" x1="624.3" y1="86.2" x2="92.3" y2="331.4" gradientTransform="translate(0 510) scale(1 -1)" gradientUnits="userSpaceOnUse">
      <stop offset="0" stop-color="#00a5f0"/>
      <stop offset="1" stop-color="#00d7d7" stop-opacity="0"/>
    </linearGradient>
  </defs>
  <path class="cls-2" d="M255.5,0C188.1-.3,123.4,26.1,75.5,73.5,27.6,120.8.5,185.2,0,252.6c0,67.8,26.9,132.7,74.8,180.6,47.9,47.9,112.9,74.8,180.6,74.8s132.7-26.9,180.6-74.8c47.9-47.9,74.8-112.9,74.8-180.6-.5-67.3-27.6-131.8-75.5-179.1C387.5,26.1,322.8-.3,255.5,0ZM255.5,385.9c-26.3-.3-52-8.4-73.7-23.2-21.7-14.8-38.6-35.8-48.5-60.2-9.9-24.4-12.3-51.2-7-77,5.3-25.8,18.1-49.4,36.9-67.9,18.7-18.5,42.5-31.1,68.3-36.1,25.8-5,52.6-2.3,76.9,7.9,24.3,10.1,45,27.2,59.6,49.1,14.6,21.9,22.4,47.6,22.4,74-.1,17.6-3.7,35-10.5,51.3-6.8,16.2-16.8,31-29.3,43.4-12.5,12.4-27.4,22.2-43.7,28.8-16.3,6.6-33.8,10-51.4,9.9Z"/>
  <path class="cls-1" d="M324.2,241.1c.2.2.5.4.7.5.3.1.6.2.9.2.3,0,.6,0,.9-.2.3-.1.5-.3.7-.5,1.3-1.4,2.1-3,2.5-4.9.3-1.8.1-3.7-.6-5.4-.7-1.7-1.9-3.2-3.5-4.2-1.5-1-3.4-1.6-5.2-1.6-1.9,0-3.7.6-5.2,1.6-1.5,1-2.8,2.5-3.5,4.2-.7,1.7-.9,3.6-.6,5.4.3,1.8,1.2,3.5,2.5,4.9.2.2.4.4.7.5.3.1.6.2.8.2s.6,0,.9-.2c.3-.1.5-.3.7-.5.4-.4.7-1,.7-1.6,0-.6-.2-1.2-.6-1.6-.9-1-1.4-2.2-1.4-3.6,0-1.3.6-2.6,1.5-3.5.5-.5,1-.8,1.6-1.1.6-.2,1.2-.4,1.9-.4s1.3.1,1.9.4c.6.2,1.1.6,1.6,1.1.9.9,1.5,2.2,1.5,3.5,0,1.3-.5,2.6-1.4,3.6-.4.4-.6,1-.6,1.6,0,.6.3,1.2.7,1.6h0ZM330,275.8c0-2.9-1.1-5.6-3.1-7.6-2-2-4.7-3.2-7.6-3.2-1.4,0-2.8.3-4.1.8-1.3.5-2.5,1.3-3.5,2.3-.4.4-.7,1-.7,1.6s.2,1.2.7,1.6c.2.2.5.4.7.5.3.1.6.2.9.2s.6,0,.9-.2c.3-.1.5-.3.7-.5.6-.6,1.3-1,2-1.4.8-.3,1.6-.5,2.4-.5s1.6.2,2.4.5c.8.3,1.4.8,2,1.4,1.2,1.2,1.8,2.8,1.8,4.5s-.7,3.3-1.8,4.5c-.6.6-1.3,1-2,1.4-.8.3-1.6.5-2.4.5s-1.6-.2-2.4-.5c-.8-.3-1.4-.8-2-1.4-.2-.2-.5-.4-.7-.5-.3-.1-.6-.2-.9-.2s-.6,0-.9.2c-.3.1-.5.3-.7.5-.4.4-.7,1-.7,1.6s.2,1.2.7,1.6c1,1,2.2,1.8,3.5,2.4,1.3.5,2.7.8,4.1.8,2.9,0,5.6-1.2,7.6-3.2,2-2,3.1-4.8,3.1-7.6ZM330,253.2c0-2.5-1-4.9-2.7-6.7-1.8-1.8-4.2-2.8-6.7-2.8-2.5,0-5,1-6.8,2.8-1.8,1.8-2.8,4.2-2.8,6.8s1,5,2.8,6.8c1.8,1.8,4.2,2.8,6.8,2.8,2.5,0,4.9-1,6.7-2.8,1.8-1.8,2.8-4.2,2.7-6.7ZM315.6,253.2c0-1,.3-1.9.9-2.8.6-.8,1.3-1.4,2.2-1.8.9-.4,1.9-.5,2.9-.3,1,.2,1.8.7,2.5,1.4.7.7,1.2,1.6,1.3,2.6.2,1,0,2-.3,2.9-.4.9-1,1.7-1.8,2.2-.8.5-1.8.8-2.8.8-.7,0-1.3-.1-1.9-.4-.6-.3-1.2-.6-1.6-1.1-.5-.5-.8-1-1.1-1.6-.2-.6-.4-1.3-.4-1.9ZM326.9,204.1c2,2,3.1,4.8,3.1,7.6,0,2.8-1.1,5.6-3.1,7.6-2,2-4.7,3.2-7.6,3.2-1.4,0-2.8-.3-4.1-.8-1.3-.5-2.5-1.3-3.5-2.4-.4-.4-.7-1-.7-1.6s.2-1.2.7-1.6c.2-.2.5-.4.7-.5.3-.1.6-.2.9-.2s.6,0,.9.2c.3.1.5.3.7.5.6.6,1.3,1,2,1.4.8.3,1.6.5,2.4.5s1.6-.2,2.4-.5c.8-.3,1.4-.8,2-1.4,1.2-1.2,1.8-2.8,1.8-4.5s-.7-3.3-1.8-4.5c-.6-.6-1.3-1-2-1.4-.8-.3-1.6-.5-2.4-.5s-1.6.2-2.4.5c-.8.3-1.4.8-2,1.4-.2.2-.5.4-.7.5-.3.1-.6.2-.9.2s-.6,0-.9-.2c-.3-.1-.5-.3-.7-.5-.4-.4-.7-1-.7-1.6s.2-1.2.7-1.6c1-1,2.2-1.8,3.5-2.3,1.3-.5,2.7-.8,4.1-.8,2.8,0,5.6,1.2,7.6,3.2ZM320.6,236.7c-1.2,0-2.2-1-2.2-2.2,0-1.2,1-2.3,2.2-2.3,1.2,0,2.2,1,2.2,2.2,0,1.2-1,2.3-2.2,2.3Z"/>
</svg>