<?xml version="1.0" encoding="UTF-8"?>
<svg id="Capa_1" data-name="Capa 1" xmlns="http://www.w3.org/2000/svg" xmlns:xlink="http://www.w3.org/1999/xlink" version="1.1" viewBox="0 0 511 509">
  <defs>
    <style>
      .cls-1 {
        fill: url(#Degradado_sin_nombre_4);
      }

      .cls-1, .cls-2, .cls-3, .cls-4, .cls-5, .cls-6, .cls-7, .cls-8, .cls-9 {
        stroke-width: 0px;
      }

      .cls-2 {
        fill: url(#Degradado_sin_nombre_8);
      }

      .cls-3 {
        fill: #0d121e;
      }

      .cls-10 {
        opacity: .8;
      }

      .cls-4 {
        fill: url(#Degradado_sin_nombre_8-6);
      }

      .cls-5 {
        fill: url(#Degradado_sin_nombre_8-5);
      }

      .cls-6 {
        fill: url(#Degradado_sin_nombre_8-4);
      }

      .cls-7 {
        fill: url(#Degradado_sin_nombre_8-3);
      }

      .cls-8 {
        fill: url(#Degradado_sin_nombre_8-2);
      }

      .cls-9 {
        fill: url(#Degradado_sin_nombre_8-7);
      }
    </style>
    <linearGradient id="Degradado_sin_nombre_4" data-name="Degradado sin nombre 4" x1="624.3" y1="86.2" x2="92.3" y2="331.4" gradientTransform="translate(0 510) scale(1 -1)" gradientUnits="userSpaceOnUse">
      <stop offset="0" stop-color="#00e977"/>
      <stop offset="1" stop-color="#02fb7e" stop-opacity=".1"/>
    </linearGradient>
    <linearGradient id="Degradado_sin_nombre_8" data-name="Degradado sin nombre 8" x1="313.9" y1="193" x2="327.1" y2="193" gradientUnits="userSpaceOnUse">
      <stop offset="0" stop-color="#00e977"/>
      <stop offset="1" stop-color="#02fb7e"/>
    </linearGradient>
    <linearGradient id="Degradado_sin_nombre_8-2" data-name="Degradado sin nombre 8" y1="207.9" y2="207.9" xlink:href="#Degradado_sin_nombre_8"/>
    <linearGradient id="Degradado_sin_nombre_8-3" data-name="Degradado sin nombre 8" y1="235.6" y2="235.6" xlink:href="#Degradado_sin_nombre_8"/>
    <linearGradient id="Degradado_sin_nombre_8-4" data-name="Degradado sin nombre 8" y1="250.6" y2="250.6" xlink:href="#Degradado_sin_nombre_8"/>
    <linearGradient id="Degradado_sin_nombre_8-5" data-name="Degradado sin nombre 8" y1="265.6" y2="265.6" xlink:href="#Degradado_sin_nombre_8"/>
    <linearGradient id="Degradado_sin_nombre_8-6" data-name="Degradado sin nombre 8" y1="280.5" y2="280.5" xlink:href="#Degradado_sin_nombre_8"/>
    <linearGradient id="Degradado_sin_nombre_8-7" data-name="Degradado sin nombre 8" y1="294" y2="294" xlink:href="#Degradado_sin_nombre_8"/>
  </defs>
  <path class="cls-1" d="M255.5,0C188.1-.3,123.4,26.1,75.5,73.5,27.6,120.8.5,185.2,0,252.6c0,67.8,26.9,132.7,74.8,180.6,47.9,47.9,112.9,74.8,180.6,74.8s132.7-26.9,180.6-74.8c47.9-47.9,74.8-112.9,74.8-180.6-.5-67.3-27.6-131.8-75.5-179.1C387.5,26.1,322.8-.3,255.5,0ZM255.5,385.9c-26.3-.3-52-8.4-73.7-23.2-21.7-14.8-38.6-35.8-48.5-60.2-9.9-24.4-12.3-51.2-7-77,5.3-25.8,18.1-49.4,36.9-67.9,18.7-18.5,42.5-31.1,68.3-36.1,25.8-5,52.6-2.3,76.9,7.9,24.3,10.1,45,27.2,59.6,49.1,14.6,21.9,22.4,47.6,22.4,74-.1,17.6-3.7,35-10.5,51.3-6.8,16.2-16.8,31-29.3,43.4-12.5,12.4-27.4,22.2-43.7,28.8-16.3,6.6-33.8,10-51.4,9.9Z"/>
  <g class="cls-10">
    <g>
      <path class="cls-2" d="M320.5,186.3c3.8,0,6.6,2.8,6.6,6.8s-2.2,6-5.3,6.6v-3.9c1-.4,1.7-1.4,1.7-2.7s-1.2-2.9-3.1-2.9-3.1,1.2-3.1,2.9.7,2.3,1.7,2.7v3.9c-3.1-.5-5.3-3.1-5.3-6.6s2.8-6.8,6.6-6.8Z"/>
      <path class="cls-8" d="M320.3,201.1c4.1,0,6.8,2.8,6.8,6.8s-2.6,6.7-6.8,6.7h-6.5v-3.5h2.4c-1.6-.7-2.4-2.1-2.4-3.9,0-2.8,2.1-6.1,6.5-6.1ZM320.5,210.8c1.8,0,3.1-1.2,3.1-2.9s-1.2-2.9-3.1-2.9-3.1,1.2-3.1,2.9,1.3,2.9,3.1,2.9Z"/>
      <path class="cls-7" d="M320.5,228.9c3.8,0,6.6,2.8,6.6,6.8s-2.8,6.7-6.6,6.7h-1.1v-9.5c-1.5.3-2.1,1.4-2.1,2.8s.2,1.9.9,2.4v4c-2.6-.8-4.3-3.2-4.3-6.4s2.8-6.8,6.6-6.8ZM321.9,238.5c1.3-.4,1.9-1.5,1.9-2.8s-.6-2.3-1.9-2.7v5.5Z"/>
      <path class="cls-6" d="M320.7,244.4c4.2,0,6.4,2.5,6.4,6.2s-2.1,6.2-6.4,6.2h-6.9v-3.8h6.9c2,0,2.8-1,2.8-2.4s-.8-2.4-2.8-2.4h-6.9v-3.8h6.9Z"/>
      <path class="cls-5" d="M320.3,258.8c4.1,0,6.8,2.8,6.8,6.8s-2.6,6.7-6.8,6.7h-6.5v-3.5h2.4c-1.6-.7-2.4-2.1-2.4-3.9,0-2.8,2.1-6.1,6.5-6.1ZM320.5,268.5c1.8,0,3.1-1.2,3.1-2.9s-1.2-2.9-3.1-2.9-3.1,1.2-3.1,2.9,1.3,2.9,3.1,2.9Z"/>
      <path class="cls-4" d="M321.4,274.9c3.9,0,5.8,2.3,5.8,5.7s-1.8,5.6-5.8,5.7h0v-3.8h.1c1.7,0,2.2-.8,2.2-1.8s-.5-1.8-2.2-1.8h-7.5v-3.8h7.5Z"/>
      <path class="cls-9" d="M320.5,287.2c3.8,0,6.6,2.8,6.6,6.8s-2.8,6.8-6.6,6.8-6.6-2.8-6.6-6.8,2.8-6.8,6.6-6.8ZM320.5,296.9c1.8,0,3.1-1.2,3.1-2.9s-1.2-2.9-3.1-2.9-3.1,1.2-3.1,2.9,1.3,2.9,3.1,2.9Z"/>
    </g>
    <path class="cls-3" d="M314,223.7c0-.2-.2-.2-.4-.2-.4,0-.8.1-1.1.1-.9,0-1.4-.5-1.4-1.5s.5-1.5,1.3-1.5.8.1,1.1.1.3,0,.4-.2c.3-3.3,1.8-4.3,3-4.3s2.1.7,2.1,2.3-.8,1.3-1.2,1.4c-1.2,0-1.5.5-1.5,2s.4,2,1.4,2,1.1-.2,1.3-1.4c.3-2.6.9-5.8,4.2-5.8s3.3,1,3.7,3.7c0,.1.2.2.4.2.3,0,.8-.1,1.1-.1.9,0,1.4.5,1.4,1.5s-.5,1.5-1.3,1.5-.8-.1-1.1-.1-.4,0-.4.2c-.5,3.1-2.2,3.6-3,3.6s-1.9-.8-1.9-2.1.6-1.3,1.1-1.3c.9,0,1.6-.2,1.6-1.9s-.5-1.7-1.3-1.7-1.3.8-1.5,2.1c-.4,2.6-1,5.5-4.1,5.5s-3.5-1.1-4-4.1Z"/>
  </g>
</svg>