<?xml version="1.0" encoding="UTF-8"?>
<svg id="Capa_1" data-name="Capa 1" xmlns="http://www.w3.org/2000/svg" xmlns:xlink="http://www.w3.org/1999/xlink" version="1.1" viewBox="0 0 61 61">
  <defs>
    <style>
      .cls-1 {
        fill: #00d7d7;
      }

      .cls-1, .cls-2, .cls-3, .cls-4 {
        stroke-width: 0px;
      }

      .cls-2 {
        fill: url(#Degradado_sin_nombre_15);
      }

      .cls-3 {
        fill: url(#Degradado_sin_nombre_2);
        isolation: isolate;
        opacity: .4;
      }

      .cls-4 {
        fill: #fff;
      }
    </style>
    <linearGradient id="Degradado_sin_nombre_15" data-name="Degradado sin nombre 15" x1="0" y1="31.5" x2="61" y2="31.5" gradientTransform="translate(0 62) scale(1 -1)" gradientUnits="userSpaceOnUse">
      <stop offset="0" stop-color="#59a962"/>
      <stop offset="1" stop-color="#64ab5f"/>
    </linearGradient>
    <linearGradient id="Degradado_sin_nombre_2" data-name="Degradado sin nombre 2" x1="683.8" y1="484.7" x2="668.2" y2="504.7" gradientTransform="translate(-114.5 -566.8) rotate(30) scale(1 .9) skewX(-26.6)" gradientUnits="userSpaceOnUse">
      <stop offset="0" stop-color="#fff"/>
      <stop offset="1" stop-color="#fff" stop-opacity="0"/>
    </linearGradient>
  </defs>
  <rect class="cls-2" width="61" height="61" rx="8" ry="8"/>
  <path class="cls-3" d="M29.4,22l20.1,11.6c1.4.8,1.4,2.2,0,3l-13.6,7.9c-1.4.8-3.8.8-5.2,0l-20.1-11.6c-1.4-.8-1.4-2.2,0-3l13.6-7.9c1.4-.8,3.8-.8,5.2,0Z"/>
  <path class="cls-4" d="M29.4,16.5l20.1,11.6c1.4.8,1.4,2.2,0,3l-13.6,7.9c-1.4.8-3.8.8-5.2,0l-20.1-11.6c-1.4-.8-1.4-2.2,0-3l13.6-7.9c1.4-.8,3.8-.8,5.2,0Z"/>
  <path class="cls-1" d="M30.9,21.4c-.9-.5-2.1-.8-3.3-.8s-2.4.3-3.3.8c-.4.3-.8.5-1,.9s-.4.7-.3,1c0,.2.1.3.3.4.2.1.4.2.7.2h.4c.1,0,.2,0,.3-.1,0,0,.2-.1.2-.2v-.2c0-.2,0-.4.2-.6.1-.2.3-.4.6-.5.3-.1.6-.3.9-.3s.7-.1,1-.1c.7,0,1.4.2,1.9.5s.8.7.8,1.1,0,.4-.2.6c-.1.2-.3.4-.6.5-.3.1-.6.3-.9.3s-.7.1-1,.1h-.4c-.1,0-.2,0-.3.1,0,0-.2.1-.2.2v.2c0,.2.1.3.3.4s.4.2.7.2c.6,0,1.2,0,1.8-.2.6-.1,1.1-.3,1.5-.6.9-.5,1.4-1.2,1.4-1.9s-.5-1.4-1.4-1.9h-.1Z"/>
</svg>