<?xml version="1.0" encoding="UTF-8"?>
<svg id="Capa_1" data-name="Capa 1" xmlns="http://www.w3.org/2000/svg" xmlns:xlink="http://www.w3.org/1999/xlink" version="1.1" viewBox="0 0 61 61">
  <defs>
    <style>
      .cls-1 {
        fill: url(#Degradado_sin_nombre_36);
        stroke-width: 0px;
      }

      .cls-2 {
        opacity: .8;
      }

      .cls-2, .cls-3 {
        isolation: isolate;
      }

      .cls-2, .cls-3, .cls-4 {
        fill: none;
        stroke-linecap: round;
        stroke-linejoin: round;
        stroke-width: 2px;
      }

      .cls-2, .cls-4 {
        stroke: #fff;
      }

      .cls-3 {
        opacity: .6;
        stroke: url(#Degradado_sin_nombre);
      }
    </style>
    <linearGradient id="Degradado_sin_nombre_36" data-name="Degradado sin nombre 36" x1="0" y1="30.5" x2="61" y2="30.5" gradientUnits="userSpaceOnUse">
      <stop offset="0" stop-color="#1e4726"/>
      <stop offset="1" stop-color="#305a30"/>
    </linearGradient>
    <linearGradient id="Degradado_sin_nombre" data-name="Degradado sin nombre" x1="30.5" y1="47" x2="30.5" y2="16" gradientTransform="translate(0 62) scale(1 -1)" gradientUnits="userSpaceOnUse">
      <stop offset="0" stop-color="#fff"/>
      <stop offset="1" stop-color="#fff" stop-opacity="0"/>
    </linearGradient>
  </defs>
  <rect class="cls-1" width="61" height="61" rx="8" ry="8"/>
  <circle class="cls-3" cx="30.5" cy="30.5" r="14.5"/>
  <path class="cls-2" d="M30.4,21v18"/>
  <path class="cls-4" d="M34.1,24.3h-5.6c-.7,0-1.4.3-1.8.8-.5.5-.8,1.3-.8,2s.3,1.5.8,2c.5.5,1.2.8,1.8.8h3.7c.7,0,1.4.3,1.8.8s.8,1.3.8,2-.3,1.5-.8,2-1.2.8-1.8.8h-6.3"/>
</svg>