<?xml version="1.0" encoding="UTF-8"?>
<svg id="Capa_1" data-name="Capa 1" xmlns="http://www.w3.org/2000/svg" xmlns:xlink="http://www.w3.org/1999/xlink" version="1.1" viewBox="0 0 278 582">
  <defs>
    <style>
      .cls-1, .cls-2 {
        fill: #00d7d7;
      }

      .cls-1, .cls-2, .cls-3, .cls-4, .cls-5, .cls-6, .cls-7, .cls-8, .cls-9, .cls-10, .cls-11, .cls-12, .cls-13, .cls-14 {
        stroke-width: 0px;
      }

      .cls-15, .cls-16, .cls-17, .cls-18, .cls-19 {
        fill: none;
      }

      .cls-15, .cls-20, .cls-18, .cls-19 {
        stroke: #fff;
      }

      .cls-15, .cls-17 {
        stroke-width: .9px;
      }

      .cls-2, .cls-11 {
        fill-rule: evenodd;
      }

      .cls-3 {
        fill: url(#Degradado_sin_nombre_73);
      }

      .cls-4 {
        fill: url(#Degradado_sin_nombre_78);
      }

      .cls-5 {
        fill: url(#Degradado_sin_nombre_25);
      }

      .cls-6 {
        fill: url(#Degradado_sin_nombre_33);
      }

      .cls-7 {
        fill: url(#Degradado_sin_nombre_30);
      }

      .cls-8 {
        fill: url(#Degradado_sin_nombre_68);
      }

      .cls-9 {
        fill: url(#Degradado_sin_nombre_56);
      }

      .cls-10 {
        fill: url(#Degradado_sin_nombre_82);
      }

      .cls-11 {
        fill: url(#Degradado_sin_nombre);
      }

      .cls-12 {
        fill: #0046a0;
      }

      .cls-13 {
        fill: #dfdfe6;
      }

      .cls-16 {
        stroke: #00d7d7;
        stroke-width: .7px;
      }

      .cls-20 {
        fill: url(#Degradado_sin_nombre_82-2);
      }

      .cls-20, .cls-18 {
        stroke-width: 1.4px;
      }

      .cls-20, .cls-18, .cls-19 {
        stroke-linejoin: round;
      }

      .cls-21 {
        opacity: .6;
      }

      .cls-17 {
        stroke: url(#Degradado_sin_nombre_3);
      }

      .cls-19 {
        stroke-width: 1.4px;
      }

      .cls-14 {
        fill: #fff;
      }
    </style>
    <linearGradient id="Degradado_sin_nombre_25" data-name="Degradado sin nombre 25" x1="8.2" y1="43.4" x2="269.8" y2="43.4" gradientUnits="userSpaceOnUse">
      <stop offset="0" stop-color="#606060"/>
      <stop offset="1" stop-color="#6f6f6f"/>
    </linearGradient>
    <linearGradient id="Degradado_sin_nombre_33" data-name="Degradado sin nombre 33" x1="8.2" y1="185.1" x2="269.8" y2="185.1" gradientUnits="userSpaceOnUse">
      <stop offset="0" stop-color="#767676"/>
      <stop offset="1" stop-color="#7d7d7d"/>
    </linearGradient>
    <linearGradient id="Degradado_sin_nombre_56" data-name="Degradado sin nombre 56" x1="8.2" y1="255.7" x2="269.8" y2="255.7" gradientUnits="userSpaceOnUse">
      <stop offset="0" stop-color="#7d7d7d"/>
      <stop offset="1" stop-color="#7d7d7d"/>
    </linearGradient>
    <linearGradient id="Degradado_sin_nombre_82" data-name="Degradado sin nombre 82" x1="8.2" y1="326.4" x2="269.8" y2="326.4" gradientUnits="userSpaceOnUse">
      <stop offset="0" stop-color="#02f77d"/>
      <stop offset="1" stop-color="#02fb7e"/>
    </linearGradient>
    <linearGradient id="Degradado_sin_nombre_78" data-name="Degradado sin nombre 78" x1="8.2" y1="397.1" x2="269.8" y2="397.1" gradientUnits="userSpaceOnUse">
      <stop offset="0" stop-color="#01f27b"/>
      <stop offset="1" stop-color="#02f77d"/>
    </linearGradient>
    <linearGradient id="Degradado_sin_nombre_73" data-name="Degradado sin nombre 73" x1="8.2" y1="467.9" x2="269.8" y2="467.9" gradientUnits="userSpaceOnUse">
      <stop offset="0" stop-color="#01ee79"/>
      <stop offset="1" stop-color="#01f27b"/>
    </linearGradient>
    <linearGradient id="Degradado_sin_nombre_68" data-name="Degradado sin nombre 68" x1="8.2" y1="538.6" x2="269.8" y2="538.6" gradientUnits="userSpaceOnUse">
      <stop offset="0" stop-color="#00e977"/>
      <stop offset="1" stop-color="#01ee79"/>
    </linearGradient>
    <linearGradient id="Degradado_sin_nombre_30" data-name="Degradado sin nombre 30" x1="8.2" y1="114.5" x2="269.8" y2="114.5" gradientUnits="userSpaceOnUse">
      <stop offset="0" stop-color="#6f6f6f"/>
      <stop offset="1" stop-color="#767676"/>
    </linearGradient>
    <linearGradient id="Degradado_sin_nombre_3" data-name="Degradado sin nombre 3" x1="228.7" y1="555.5" x2="228.7" y2="518.7" gradientTransform="translate(0 584) scale(1 -1)" gradientUnits="userSpaceOnUse">
      <stop offset="0" stop-color="#00d7d7"/>
      <stop offset="1" stop-color="#00d7d7" stop-opacity="0"/>
    </linearGradient>
    <linearGradient id="Degradado_sin_nombre_82-2" data-name="Degradado sin nombre 82" x1="217.9" y1="331" x2="241.7" y2="331" xlink:href="#Degradado_sin_nombre_82"/>
    <linearGradient id="Degradado_sin_nombre" data-name="Degradado sin nombre" x1="243" y1="602.3" x2="44.5" y2="12.8" gradientTransform="translate(0 584) scale(1 -1)" gradientUnits="userSpaceOnUse">
      <stop offset="0" stop-color="#f1f0f5"/>
      <stop offset="1" stop-color="#e7e7e7"/>
    </linearGradient>
  </defs>
  <g>
    <path class="cls-5" d="M28.3,8h221.4c11.1,0,20.1,9,20.1,20.1v50.6H8.2V28.1c0-11.1,9-20.1,20.1-20.1Z"/>
    <rect class="cls-6" x="8.2" y="149.7" width="261.6" height="70.8"/>
    <rect class="cls-9" x="8.2" y="220.4" width="261.6" height="70.8"/>
    <rect class="cls-10" x="8.2" y="291" width="261.6" height="70.8"/>
    <rect class="cls-4" x="8.2" y="361.8" width="261.6" height="70.8"/>
    <rect class="cls-3" x="8.2" y="432.5" width="261.6" height="70.8"/>
    <path class="cls-8" d="M8.2,503.3h261.6v43.5c0,15.1-12.2,27.3-27.3,27.3H35.4c-15.1,0-27.3-12.2-27.3-27.3v-43.5Z"/>
    <path class="cls-14" d="M223.9,550.8h10.6c1.1,0,1.9-.9,1.9-1.9v-19.9c0-1-.9-1.9-1.9-1.9h-10.6c-1,0-1.9.9-1.9,1.9v19.9c0,1,.9,1.9,1.9,1.9ZM235,545.3h-11.8v-13.8h11.8v13.8ZM234.5,549.5h-10.6c-.3,0-.6-.3-.6-.6v-2.3h11.8v2.3c0,.3-.3.6-.6.6ZM223.9,528.4h10.6c.3,0,.6.3.6.6v1.2h-11.8v-1.2c0-.3.3-.6.6-.6Z"/>
    <path class="cls-14" d="M230.4,547.2h-2.6c-.4,0-.7.3-.7.7s.3.7.7.7h2.6c.4,0,.7-.3.7-.7s-.3-.7-.7-.7Z"/>
    <rect class="cls-7" x="8.2" y="79.1" width="261.6" height="70.8"/>
    <path class="cls-14" d="M177.7,118.9c0,0-.1,0-.2,0,0,0,0-.1,0-.2v-7.9c0,0,0-.2,0-.2,0,0,.1,0,.2,0h2.9c.9,0,1.6.2,2.2.7.5.4.8,1.1.8,1.9s-.2,1.1-.5,1.5c-.3.4-.7.7-1.3.8l1.9,3.2s0,0,0,.1c0,0,0,.1,0,.2,0,0-.1,0-.2,0h-.5c-.1,0-.2,0-.3,0,0,0-.1-.1-.2-.2l-1.8-3.1h-2.2v3.1c0,0,0,.1,0,.2,0,0-.1,0-.2,0h-.6ZM180.6,114.5c1.2,0,1.8-.5,1.8-1.5s-.6-1.5-1.8-1.5h-2v3.1h2ZM187.8,120.1c0,0-.1,0-.2,0,0,0,0-.1,0-.2v-.8c-.6,0-1.1-.2-1.5-.4-.4-.2-.7-.5-.9-.8-.2-.3-.3-.7-.3-1,0,0,0-.1,0-.2,0,0,.1,0,.2,0h.6c.2,0,.3,0,.3.2,0,.3.3.6.6.9.3.2.8.4,1.5.4s1.2-.1,1.5-.4c.3-.2.5-.6.5-1s0-.5-.3-.7c-.2-.2-.4-.3-.7-.5-.3-.1-.8-.3-1.5-.5-.6-.2-1.1-.4-1.5-.6-.4-.2-.6-.4-.8-.7-.2-.3-.3-.7-.3-1.1s.2-1.1.7-1.5c.4-.4,1.1-.7,1.8-.7v-.8c0,0,0-.2,0-.2,0,0,.1,0,.2,0h.4c0,0,.1,0,.2,0,0,0,0,.1,0,.2v.8c.5,0,1,.2,1.3.4.4.2.6.5.8.8.2.3.3.6.3.9,0,0,0,.1,0,.2,0,0-.1,0-.2,0h-.6c0,0-.1,0-.2,0,0,0,0-.1-.1-.2,0-.3-.2-.6-.6-.9-.3-.2-.8-.3-1.3-.3s-1,.1-1.3.3c-.3.2-.5.5-.5.9s0,.5.2.7c.2.2.4.3.7.5.3.1.8.3,1.4.5.7.2,1.2.4,1.6.6.4.2.7.4.9.7.2.3.3.6.3,1.1,0,.7-.2,1.2-.7,1.7-.5.4-1.1.7-2,.7v.8c0,0,0,.1,0,.2,0,0-.1,0-.2,0h-.4ZM198.2,119c-.6,0-1.2,0-1.6-.3-.5-.2-.8-.5-1.1-.8-.2-.3-.4-.7-.4-1,0,0,0-.1,0-.2,0,0,.1,0,.2,0h.5c0,0,.2,0,.2,0,0,0,.1.1.1.2.1.4.3.7.7.9.4.2.8.3,1.2.3s1-.1,1.4-.4c.3-.3.5-.7.5-1.2,0-1-.6-1.5-1.8-1.5h-1.1c0,0-.1,0-.2,0,0,0,0-.1,0-.2v-.3c0-.1,0-.2.1-.3l2.4-2.6h-3.6c0,0-.1,0-.2,0,0,0,0-.1,0-.2v-.4c0,0,0-.2,0-.2,0,0,.1,0,.2,0h4.8c0,0,.2,0,.2,0,0,0,0,.1,0,.2v.4c0,0,0,.2-.1.3l-2.4,2.6h.2c.8,0,1.5.2,1.9.6.5.4.7,1,.7,1.8s-.1,1-.4,1.4c-.3.4-.6.7-1.1.9-.5.2-1,.3-1.6.3ZM203,118.9c0,0-.1,0-.2,0,0,0,0-.1,0-.2v-.8c0,0,0-.1,0-.2,0,0,.1,0,.2,0h.8c0,0,.1,0,.2,0,0,0,0,.1,0,.2v.8c0,0,0,.1,0,.2s-.1,0-.2,0h-.8ZM205.8,118.9c0,0-.1,0-.2,0,0,0,0-.1,0-.2v-.4c0-.2.1-.4.3-.5l2.6-2.6c.6-.5,1-.9,1.2-1.2.2-.3.3-.7.3-1s-.1-.8-.4-1.1c-.3-.3-.7-.4-1.2-.4s-.9.1-1.1.4c-.3.3-.5.7-.5,1.1,0,0,0,.2-.1.2,0,0-.1,0-.2,0h-.6c0,0-.1,0-.2,0,0,0,0-.1,0-.2,0-.4.1-.8.3-1.2.2-.4.5-.7,1-1,.4-.3.9-.4,1.5-.4.9,0,1.6.2,2,.7.5.5.7,1.1.7,1.8s-.1,1-.4,1.4c-.2.4-.6.8-1.1,1.3l-2.4,2.4h3.8c0,0,.2,0,.2,0,0,0,0,.1,0,.2v.5c0,0,0,.1,0,.2,0,0-.1,0-.2,0h-5.3ZM215.8,119c-1,0-1.8-.3-2.3-.9-.5-.6-.7-1.4-.8-2.4v-1s0-1.1,0-1.1c0-1,.3-1.8.8-2.4.5-.6,1.3-.9,2.3-.9s1.8.3,2.3.9c.5.6.7,1.4.8,2.4,0,.2,0,.6,0,1.1s0,.8,0,1c0,1-.3,1.8-.8,2.4-.5.6-1.2.9-2.3.9ZM215.8,118c.6,0,1.1-.2,1.4-.6.3-.4.5-1,.5-1.7,0-.2,0-.6,0-1s0-.8,0-1c0-.7-.2-1.3-.5-1.7-.3-.4-.8-.6-1.4-.6s-1.1.2-1.4.6c-.3.4-.5,1-.5,1.7v1s0,1,0,1c0,.7.2,1.3.5,1.7.3.4.8.6,1.4.6ZM223.4,119c-1,0-1.8-.3-2.3-.9-.5-.6-.7-1.4-.8-2.4v-1s0-1.1,0-1.1c0-1,.3-1.8.8-2.4.5-.6,1.3-.9,2.3-.9s1.8.3,2.3.9c.5.6.7,1.4.8,2.4,0,.2,0,.6,0,1.1s0,.8,0,1c0,1-.3,1.8-.8,2.4-.5.6-1.2.9-2.3.9ZM223.4,118c.6,0,1.1-.2,1.4-.6.3-.4.5-1,.5-1.7,0-.2,0-.6,0-1s0-.8,0-1c0-.7-.2-1.3-.5-1.7-.3-.4-.8-.6-1.4-.6s-1.1.2-1.4.6c-.3.4-.5,1-.5,1.7v1s0,1,0,1c0,.7.2,1.3.5,1.7.3.4.8.6,1.4.6ZM228.2,118.9c0,0-.1,0-.2,0,0,0,0-.1,0-.2v-.8c0,0,0-.1,0-.2,0,0,.1,0,.2,0h.8c0,0,.1,0,.2,0,0,0,0,.1,0,.2v.8c0,0,0,.1,0,.2,0,0-.1,0-.2,0h-.8ZM233.7,119c-1,0-1.8-.3-2.3-.9-.5-.6-.7-1.4-.8-2.4v-1s0-1.1,0-1.1c0-1,.3-1.8.8-2.4.5-.6,1.3-.9,2.3-.9s1.8.3,2.3.9c.5.6.7,1.4.8,2.4,0,.2,0,.6,0,1.1s0,.8,0,1c0,1-.3,1.8-.8,2.4-.5.6-1.2.9-2.3.9ZM233.7,118c.6,0,1.1-.2,1.4-.6.3-.4.5-1,.5-1.7,0-.2,0-.6,0-1s0-.8,0-1c0-.7-.2-1.3-.5-1.7-.3-.4-.8-.6-1.4-.6s-1.1.2-1.4.6c-.3.4-.5,1-.5,1.7v1s0,1,0,1c0,.7.2,1.3.5,1.7.3.4.8.6,1.4.6ZM241.4,119c-1,0-1.8-.3-2.3-.9-.5-.6-.7-1.4-.8-2.4v-1s0-1.1,0-1.1c0-1,.3-1.8.8-2.4.5-.6,1.3-.9,2.3-.9s1.8.3,2.3.9c.5.6.7,1.4.8,2.4,0,.2,0,.6,0,1.1s0,.8,0,1c0,1-.3,1.8-.8,2.4-.5.6-1.2.9-2.3.9ZM241.4,118c.6,0,1.1-.2,1.4-.6.3-.4.5-1,.5-1.7,0-.2,0-.6,0-1s0-.8,0-1c0-.7-.2-1.3-.5-1.7-.3-.4-.8-.6-1.4-.6s-1.1.2-1.4.6c-.3.4-.5,1-.5,1.7v1s0,1,0,1c0,.7.2,1.3.5,1.7.3.4.8.6,1.4.6Z"/>
    <path class="cls-14" d="M177.6,189.5c0,0-.1,0-.2,0,0,0,0-.1,0-.2v-7.9c0,0,0-.2,0-.2,0,0,.1,0,.2,0h2.9c.9,0,1.6.2,2.2.7.5.4.8,1.1.8,1.9s-.2,1.1-.5,1.5c-.3.4-.7.7-1.3.8l1.9,3.2s0,0,0,.1c0,0,0,.1,0,.2s-.1,0-.2,0h-.5c-.1,0-.2,0-.3,0,0,0-.1-.1-.2-.2l-1.8-3.1h-2.2v3.1c0,0,0,.1,0,.2,0,0-.1,0-.2,0h-.6ZM180.5,185.1c1.2,0,1.8-.5,1.8-1.5s-.6-1.5-1.8-1.5h-2v3.1h2ZM187.7,190.7c0,0-.1,0-.2,0,0,0,0-.1,0-.2v-.8c-.6,0-1.1-.2-1.5-.4-.4-.2-.7-.5-.9-.8-.2-.3-.3-.7-.3-1,0,0,0-.1,0-.2,0,0,.1,0,.2,0h.6c.2,0,.3,0,.3.2,0,.3.3.6.6.9.3.2.8.4,1.5.4s1.2-.1,1.5-.4c.3-.2.5-.6.5-1s0-.5-.3-.7c-.2-.2-.4-.3-.7-.5-.3-.1-.8-.3-1.5-.5-.6-.2-1.1-.4-1.5-.6-.4-.2-.6-.4-.8-.7-.2-.3-.3-.7-.3-1.1s.2-1.1.7-1.5c.4-.4,1.1-.7,1.8-.7v-.8c0,0,0-.2,0-.2,0,0,.1,0,.2,0h.4c0,0,.1,0,.2,0,0,0,0,.1,0,.2v.8c.5,0,1,.2,1.3.4.4.2.6.5.8.8.2.3.3.6.3.9,0,0,0,.1,0,.2,0,0-.1,0-.2,0h-.6c0,0-.1,0-.2,0,0,0,0-.1-.1-.2,0-.3-.2-.6-.6-.9-.3-.2-.8-.3-1.3-.3s-1,.1-1.3.3c-.3.2-.5.5-.5.9s0,.5.2.7c.2.2.4.3.7.5.3.1.8.3,1.4.5.7.2,1.2.4,1.6.6.4.2.7.4.9.7.2.3.3.6.3,1.1,0,.7-.2,1.2-.7,1.7-.5.4-1.1.7-2,.7v.8c0,0,0,.1,0,.2,0,0-.1,0-.2,0h-.4ZM198.1,189.7c-.6,0-1.1-.1-1.6-.3-.4-.2-.8-.5-1-.8-.2-.4-.4-.7-.4-1.1h0c0,0,0-.1,0-.2,0,0,.1,0,.2,0h.6c.2,0,.3,0,.3.3.1.4.3.8.7,1,.3.2.7.3,1.1.3s1-.2,1.4-.5c.4-.3.5-.8.5-1.4s-.2-1-.5-1.3c-.4-.3-.8-.5-1.4-.5s-.5,0-.7.1c-.2,0-.4.2-.5.3-.1,0-.2.1-.3.2,0,0-.1,0-.2,0h-.6c0,0-.1,0-.2,0,0,0,0-.1,0-.2l.4-4c0-.2.1-.3.3-.3h4.2c0,0,.2,0,.2,0,0,0,0,.1,0,.2v.4c0,0,0,.1,0,.2,0,0-.1,0-.2,0h-3.5l-.2,2.4c.4-.3.9-.4,1.6-.4s1,.1,1.5.3c.4.2.8.5,1.1.9.3.4.4.9.4,1.5s-.1,1.1-.4,1.5c-.3.4-.6.8-1.1,1-.5.2-1,.3-1.6.3ZM202.8,189.5c0,0-.1,0-.2,0,0,0,0-.1,0-.2v-.8c0,0,0-.1,0-.2,0,0,.1,0,.2,0h.8c0,0,.1,0,.2,0,0,0,0,.1,0,.2v.8c0,0,0,.1,0,.2s-.1,0-.2,0h-.8ZM209.3,189.5c0,0-.1,0-.2,0,0,0,0-.1,0-.2v-1.8h-3.9c0,0-.1,0-.2,0,0,0,0-.1,0-.2v-.4c0-.1,0-.2.1-.4l3.6-5.1c0,0,.1-.1.2-.1,0,0,.2,0,.3,0h.8c0,0,.2,0,.2,0,0,0,0,.1,0,.2v5.1h1.1c0,0,.1,0,.2,0,0,0,0,.1,0,.2v.5c0,0,0,.1,0,.2,0,0-.1,0-.2,0h-1.1v1.8c0,0,0,.1,0,.2,0,0-.1,0-.2,0h-.6ZM206.1,186.5h3v-4.2l-3,4.2ZM215.8,189.7c-1,0-1.8-.3-2.3-.9-.5-.6-.7-1.4-.8-2.4v-1s0-1.1,0-1.1c0-1,.3-1.8.8-2.4.5-.6,1.3-.9,2.3-.9s1.8.3,2.3.9c.5.6.7,1.4.8,2.4,0,.2,0,.6,0,1.1s0,.8,0,1c0,1-.3,1.8-.8,2.4-.5.6-1.2.9-2.3.9ZM215.8,188.7c.6,0,1.1-.2,1.4-.6.3-.4.5-1,.5-1.7,0-.2,0-.6,0-1s0-.8,0-1c0-.7-.2-1.3-.5-1.7-.3-.4-.8-.6-1.4-.6s-1.1.2-1.4.6c-.3.4-.5,1-.5,1.7v1s0,1,0,1c0,.7.2,1.3.5,1.7.3.4.8.6,1.4.6ZM223.4,189.7c-1,0-1.8-.3-2.3-.9-.5-.6-.7-1.4-.8-2.4v-1s0-1.1,0-1.1c0-1,.3-1.8.8-2.4.5-.6,1.3-.9,2.3-.9s1.8.3,2.3.9c.5.6.7,1.4.8,2.4,0,.2,0,.6,0,1.1s0,.8,0,1c0,1-.3,1.8-.8,2.4-.5.6-1.2.9-2.3.9ZM223.4,188.7c.6,0,1.1-.2,1.4-.6.3-.4.5-1,.5-1.7,0-.2,0-.6,0-1s0-.8,0-1c0-.7-.2-1.3-.5-1.7-.3-.4-.8-.6-1.4-.6s-1.1.2-1.4.6c-.3.4-.5,1-.5,1.7v1s0,1,0,1c0,.7.2,1.3.5,1.7.3.4.8.6,1.4.6ZM228.2,189.5c0,0-.1,0-.2,0,0,0,0-.1,0-.2v-.8c0,0,0-.1,0-.2,0,0,.1,0,.2,0h.8c0,0,.1,0,.2,0,0,0,0,.1,0,.2v.8c0,0,0,.1,0,.2,0,0-.1,0-.2,0h-.8ZM233.7,189.7c-1,0-1.8-.3-2.3-.9-.5-.6-.7-1.4-.8-2.4v-1s0-1.1,0-1.1c0-1,.3-1.8.8-2.4.5-.6,1.3-.9,2.3-.9s1.8.3,2.3.9c.5.6.7,1.4.8,2.4,0,.2,0,.6,0,1.1s0,.8,0,1c0,1-.3,1.8-.8,2.4-.5.6-1.2.9-2.3.9ZM233.7,188.7c.6,0,1.1-.2,1.4-.6.3-.4.5-1,.5-1.7,0-.2,0-.6,0-1s0-.8,0-1c0-.7-.2-1.3-.5-1.7-.3-.4-.8-.6-1.4-.6s-1.1.2-1.4.6c-.3.4-.5,1-.5,1.7v1s0,1,0,1c0,.7.2,1.3.5,1.7.3.4.8.6,1.4.6ZM241.4,189.7c-1,0-1.8-.3-2.3-.9-.5-.6-.7-1.4-.8-2.4v-1s0-1.1,0-1.1c0-1,.3-1.8.8-2.4.5-.6,1.3-.9,2.3-.9s1.8.3,2.3.9c.5.6.7,1.4.8,2.4,0,.2,0,.6,0,1.1s0,.8,0,1c0,1-.3,1.8-.8,2.4-.5.6-1.2.9-2.3.9ZM241.4,188.7c.6,0,1.1-.2,1.4-.6.3-.4.5-1,.5-1.7,0-.2,0-.6,0-1s0-.8,0-1c0-.7-.2-1.3-.5-1.7-.3-.4-.8-.6-1.4-.6s-1.1.2-1.4.6c-.3.4-.5,1-.5,1.7v1s0,1,0,1c0,.7.2,1.3.5,1.7.3.4.8.6,1.4.6Z"/>
    <path class="cls-14" d="M177.5,260.2c0,0-.1,0-.2,0,0,0,0-.1,0-.2v-7.9c0,0,0-.2,0-.2,0,0,.1,0,.2,0h2.9c.9,0,1.6.2,2.2.7.5.4.8,1.1.8,1.9s-.2,1.1-.5,1.5-.7.7-1.3.8l1.9,3.2s0,0,0,.1c0,0,0,.1,0,.2,0,0-.1,0-.2,0h-.5c-.1,0-.2,0-.3,0,0,0-.1-.1-.2-.2l-1.8-3.1h-2.2v3.1c0,0,0,.1,0,.2,0,0-.1,0-.2,0h-.6ZM180.4,255.8c1.2,0,1.8-.5,1.8-1.5s-.6-1.5-1.8-1.5h-2v3.1h2ZM187.6,261.4c0,0-.1,0-.2,0,0,0,0-.1,0-.2v-.8c-.6,0-1.1-.2-1.5-.4-.4-.2-.7-.5-.9-.8-.2-.3-.3-.7-.3-1,0,0,0-.1,0-.2,0,0,.1,0,.2,0h.6c.2,0,.3,0,.3.2,0,.3.3.6.6.9.3.2.8.4,1.5.4s1.2-.1,1.5-.4c.3-.2.5-.6.5-1s0-.5-.3-.7c-.2-.2-.4-.3-.7-.5-.3-.1-.8-.3-1.5-.5-.6-.2-1.1-.4-1.5-.6-.4-.2-.6-.4-.8-.7-.2-.3-.3-.7-.3-1.1s.2-1.1.7-1.5c.4-.4,1.1-.7,1.8-.7v-.8c0,0,0-.2,0-.2,0,0,.1,0,.2,0h.4c0,0,.1,0,.2,0,0,0,0,.1,0,.2v.8c.5,0,1,.2,1.3.4.4.2.6.5.8.8.2.3.3.6.3.9,0,0,0,.1,0,.2,0,0-.1,0-.2,0h-.6c0,0-.1,0-.2,0,0,0,0-.1-.1-.2,0-.3-.2-.6-.6-.9-.3-.2-.8-.3-1.3-.3s-1,.1-1.3.3c-.3.2-.5.5-.5.9s0,.5.2.7c.2.2.4.3.7.5.3.1.8.3,1.4.5.7.2,1.2.4,1.6.6.4.2.7.4.9.7.2.3.3.6.3,1.1,0,.7-.2,1.2-.7,1.7-.5.4-1.1.7-2,.7v.8c0,0,0,.1,0,.2,0,0-.1,0-.2,0h-.4ZM198.2,260.3c-.6,0-1.2-.1-1.7-.4-.5-.3-.8-.6-1.1-1.1-.2-.4-.4-.9-.4-1.5s.3-1.4.8-2.2l2.3-3.2s0,0,0,0c0,0,0,0,.1-.1,0,0,.1,0,.2,0h.6c0,0,.1,0,.2,0,0,0,0,.1,0,.2s0,0,0,.2l-1.8,2.5c.2,0,.4,0,.7,0,.6,0,1.1.1,1.5.4.5.3.8.6,1,1,.2.4.4.9.4,1.4s-.1,1-.4,1.5c-.2.4-.6.8-1.1,1.1-.5.3-1,.4-1.7.4ZM198.2,259.3c.4,0,.7,0,1-.2.3-.1.5-.4.7-.6.2-.3.3-.6.3-1s0-.7-.3-1c-.2-.3-.4-.5-.7-.7-.3-.2-.6-.2-1-.2s-.7,0-1,.2c-.3.1-.5.4-.7.7-.2.3-.3.6-.3,1s0,.7.3,1c.2.3.4.5.7.6.3.1.6.2,1,.2ZM202.8,260.2c0,0-.1,0-.2,0,0,0,0-.1,0-.2v-.8c0,0,0-.1,0-.2,0,0,.1,0,.2,0h.8c0,0,.1,0,.2,0,0,0,0,.1,0,.2v.8c0,0,0,.1,0,.2,0,0-.1,0-.2,0h-.8ZM208.3,260.3c-.6,0-1.2-.1-1.6-.3-.5-.2-.8-.5-1.1-.8-.2-.3-.4-.7-.4-1,0,0,0-.1,0-.2,0,0,.1,0,.2,0h.5c0,0,.2,0,.2,0,0,0,.1.1.1.2.1.4.3.7.7.9.4.2.8.3,1.2.3s1-.1,1.4-.4c.3-.3.5-.7.5-1.2,0-1-.6-1.5-1.8-1.5h-1.1c0,0-.1,0-.2,0,0,0,0-.1,0-.2v-.3c0-.1,0-.2.1-.3l2.4-2.6h-3.6c0,0-.1,0-.2,0,0,0,0-.1,0-.2v-.4c0,0,0-.2,0-.2,0,0,.1,0,.2,0h4.8c0,0,.2,0,.2,0,0,0,0,.1,0,.2v.4c0,0,0,.2-.1.3l-2.4,2.6h.2c.8,0,1.5.2,1.9.6.5.4.7,1,.7,1.8s-.1,1-.4,1.4c-.3.4-.6.7-1.1.9-.5.2-1,.3-1.6.3ZM215.8,260.3c-1,0-1.8-.3-2.3-.9-.5-.6-.7-1.4-.8-2.4v-1s0-1.1,0-1.1c0-1,.3-1.8.8-2.4.5-.6,1.3-.9,2.3-.9s1.8.3,2.3.9c.5.6.7,1.4.8,2.4,0,.2,0,.6,0,1.1s0,.8,0,1c0,1-.3,1.8-.8,2.4-.5.6-1.2.9-2.3.9ZM215.8,259.3c.6,0,1.1-.2,1.4-.6s.5-1,.5-1.7c0-.2,0-.6,0-1s0-.8,0-1c0-.7-.2-1.3-.5-1.7-.3-.4-.8-.6-1.4-.6s-1.1.2-1.4.6c-.3.4-.5,1-.5,1.7v1s0,1,0,1c0,.7.2,1.3.5,1.7s.8.6,1.4.6ZM223.4,260.3c-1,0-1.8-.3-2.3-.9-.5-.6-.7-1.4-.8-2.4v-1s0-1.1,0-1.1c0-1,.3-1.8.8-2.4.5-.6,1.3-.9,2.3-.9s1.8.3,2.3.9c.5.6.7,1.4.8,2.4,0,.2,0,.6,0,1.1s0,.8,0,1c0,1-.3,1.8-.8,2.4-.5.6-1.2.9-2.3.9ZM223.4,259.3c.6,0,1.1-.2,1.4-.6.3-.4.5-1,.5-1.7,0-.2,0-.6,0-1s0-.8,0-1c0-.7-.2-1.3-.5-1.7-.3-.4-.8-.6-1.4-.6s-1.1.2-1.4.6c-.3.4-.5,1-.5,1.7v1s0,1,0,1c0,.7.2,1.3.5,1.7.3.4.8.6,1.4.6ZM228.2,260.2c0,0-.1,0-.2,0,0,0,0-.1,0-.2v-.8c0,0,0-.1,0-.2,0,0,.1,0,.2,0h.8c0,0,.1,0,.2,0,0,0,0,.1,0,.2v.8c0,0,0,.1,0,.2,0,0-.1,0-.2,0h-.8ZM233.7,260.3c-1,0-1.8-.3-2.3-.9-.5-.6-.7-1.4-.8-2.4v-1s0-1.1,0-1.1c0-1,.3-1.8.8-2.4.5-.6,1.3-.9,2.3-.9s1.8.3,2.3.9c.5.6.7,1.4.8,2.4,0,.2,0,.6,0,1.1s0,.8,0,1c0,1-.3,1.8-.8,2.4-.5.6-1.2.9-2.3.9ZM233.7,259.3c.6,0,1.1-.2,1.4-.6.3-.4.5-1,.5-1.7,0-.2,0-.6,0-1s0-.8,0-1c0-.7-.2-1.3-.5-1.7-.3-.4-.8-.6-1.4-.6s-1.1.2-1.4.6c-.3.4-.5,1-.5,1.7v1s0,1,0,1c0,.7.2,1.3.5,1.7.3.4.8.6,1.4.6ZM241.4,260.3c-1,0-1.8-.3-2.3-.9-.5-.6-.7-1.4-.8-2.4v-1s0-1.1,0-1.1c0-1,.3-1.8.8-2.4.5-.6,1.3-.9,2.3-.9s1.8.3,2.3.9c.5.6.7,1.4.8,2.4,0,.2,0,.6,0,1.1s0,.8,0,1c0,1-.3,1.8-.8,2.4-.5.6-1.2.9-2.3.9ZM241.4,259.3c.6,0,1.1-.2,1.4-.6s.5-1,.5-1.7c0-.2,0-.6,0-1s0-.8,0-1c0-.7-.2-1.3-.5-1.7-.3-.4-.8-.6-1.4-.6s-1.1.2-1.4.6c-.3.4-.5,1-.5,1.7v1s0,1,0,1c0,.7.2,1.3.5,1.7.3.4.8.6,1.4.6Z"/>
    <path class="cls-16" d="M127.2,34.8h33c4.8,0,8.7,3.9,8.7,8.7h0c0,4.8-3.9,8.7-8.7,8.7h-33c-4.8,0-8.7-3.9-8.7-8.7h0c0-4.8,3.9-8.7,8.7-8.7Z"/>
    <path class="cls-2" d="M127.4,41.6c-.5.1-.8.6-.7,1.1l1.2,4.5c.1.5.6.8,1.1.7l8.2-2.2c.5-.1.8-.6.7-1.1l-.8-3.2-10,2.7-.2-.7,10-2.7-.2-.6c-.1-.5-.6-.8-1.1-.7l-8.2,2.2Z"/>
    <path class="cls-14" d="M236.7,385.8h-15.9c-1.6,0-2.9,1.3-2.9,2.9v13.1l-1.8-1.8c-.3-.3-.7-.3-1,0-.3.3-.3.7,0,1l3,3c.1.1.3.2.5.2s.4,0,.5-.2l3-3c.3-.3.3-.7,0-1-.3-.3-.7-.3-1,0l-1.8,1.8v-13.1c0-.8.7-1.5,1.5-1.5h15.9c.8,0,1.5.7,1.5,1.5v1.9c0,.4.3.7.7.7s.7-.3.7-.7v-1.9c0-1.6-1.3-2.9-2.9-2.9Z"/>
    <path class="cls-14" d="M238.4,393.7l-3,3c-.3.3-.3.7,0,1,.1.1.3.2.5.2s.4,0,.5-.2l1.8-1.8v13.1c0,.8-.7,1.5-1.5,1.5h-15.9c-.8,0-1.5-.7-1.5-1.5v-1.9c0-.4-.3-.7-.7-.7s-.7.3-.7.7v1.9c0,1.6,1.3,2.9,2.9,2.9h15.9c1.6,0,2.9-1.3,2.9-2.9v-13.1l1.8,1.8c.3.3.7.3,1,0,.3-.3.3-.7,0-1l-3-3c-.2-.3-.7-.3-1,0Z"/>
    <path class="cls-14" d="M228.8,392.7c-.4,0-.7.3-.7.7v1.1h0c-1.3,0-2.4,1.1-2.4,2.5s1.1,2.5,2.4,2.5h1.6c.6,0,1,.5,1,1.1s-.5,1.1-1,1.1h-2.8c-.4,0-.7.3-.7.7s.3.7.7.7h1.3v1.1c0,.4.3.7.7.7s.7-.3.7-.7v-1.1h.1c1.3,0,2.4-1.1,2.4-2.5s-1.1-2.5-2.4-2.5h-1.6c-.6,0-1-.5-1-1.1s.5-1.1,1-1.1h2.7c.4,0,.7-.3.7-.7s-.3-.7-.7-.7h-1.3v-1.1c0-.4-.3-.7-.7-.7Z"/>
    <path class="cls-1" d="M143.8,45.5s0,0-.1,0c0,0,0,0,0-.1v-3.6l-1.1.8s0,0-.1,0,0,0-.1,0l-.3-.4s0,0,0,0c0,0,0-.1,0-.1l1.6-1.2c0,0,.1,0,.2,0h.6s0,0,.1,0c0,0,0,0,0,.1v4.5s0,0,0,.1c0,0,0,0-.1,0h-.6ZM147.3,45.6c-.6,0-1.1-.2-1.4-.5-.3-.3-.5-.8-.5-1.4,0-.1,0-.3,0-.6s0-.5,0-.7c0-.5.2-1,.5-1.3.3-.3.8-.5,1.4-.5s1.1.2,1.4.5c.3.3.5.8.5,1.3,0,.3,0,.5,0,.7s0,.4,0,.6c0,.6-.2,1-.5,1.4-.3.3-.8.5-1.4.5ZM147.3,44.8c.3,0,.5,0,.6-.3.1-.2.2-.5.2-.8,0-.1,0-.3,0-.6s0-.5,0-.6c0-.3,0-.6-.2-.8-.1-.2-.4-.3-.6-.3-.3,0-.5.1-.6.3-.1.2-.2.5-.2.8,0,.1,0,.3,0,.6s0,.5,0,.6c0,.3,0,.6.2.8.1.2.4.3.6.3ZM149.8,46.1s0,0,0,0,0,0,0-.1,0,0,0,0l2.4-5.7s0,0,0,0c0,0,0,0,.1,0h.5s0,0,.1,0c0,0,0,0,0,.1s0,0,0,0l-2.4,5.7s0,0,0,0c0,0,0,0-.1,0h-.5ZM154.9,45.5s0,0-.1,0c0,0,0,0,0-.1v-3.6l-1.1.8s0,0-.1,0,0,0-.1,0l-.3-.4s0,0,0,0c0,0,0-.1,0-.1l1.6-1.2c0,0,.1,0,.2,0h.6s0,0,.1,0c0,0,0,0,0,.1v4.5s0,0,0,.1c0,0,0,0-.1,0h-.6ZM158.5,45.6c-.6,0-1.1-.2-1.4-.5-.3-.3-.5-.8-.5-1.4,0-.1,0-.3,0-.6s0-.5,0-.7c0-.5.2-1,.5-1.3s.8-.5,1.4-.5,1.1.2,1.4.5c.3.3.5.8.5,1.3,0,.3,0,.5,0,.7s0,.4,0,.6c0,.6-.2,1-.5,1.4-.3.3-.8.5-1.4.5ZM158.5,44.8c.3,0,.5,0,.6-.3.1-.2.2-.5.2-.8,0-.1,0-.3,0-.6s0-.5,0-.6c0-.3,0-.6-.2-.8-.1-.2-.4-.3-.6-.3-.3,0-.5.1-.6.3-.1.2-.2.5-.2.8,0,.1,0,.3,0,.6s0,.5,0,.6c0,.3,0,.6.2.8.1.2.4.3.6.3Z"/>
    <circle class="cls-17" cx="228.7" cy="46.9" r="17.9"/>
    <path class="cls-14" d="M225.8,49.7c-.9,0-1.6-.2-2.1-.7-.5-.5-.8-1.1-.8-1.9,0-.2,0-.5,0-.9s0-.7,0-.9c0-.8.3-1.4.8-1.9.5-.5,1.2-.7,2.1-.7s1.1.1,1.5.3c.4.2.8.5,1,.8.2.3.3.6.4.9,0,0,0,.1,0,.1,0,0,0,0-.2,0h-1c0,0-.1,0-.1,0,0,0,0,0,0-.1,0-.2-.3-.4-.5-.6-.2-.2-.5-.3-.9-.3s-.8.1-1.1.4c-.3.2-.4.6-.4,1.1,0,.2,0,.5,0,.9s0,.7,0,.9c0,.5.1.9.4,1.2.3.2.6.4,1.1.4s.8-.1,1.1-.4c.3-.2.4-.6.4-1.1v-.3h-1.2c0,0-.1,0-.2,0,0,0,0-.1,0-.2v-.5c0,0,0-.1,0-.2,0,0,.1,0,.2,0h2.3c0,0,.1,0,.2,0,0,0,0,.1,0,.2v1c0,.5-.1,1-.4,1.4-.2.4-.6.7-1,.9-.4.2-1,.3-1.6.3Z"/>
    <path class="cls-14" d="M230.2,49.6c0,0-.1,0-.2,0,0,0,0-.1,0-.2v-6.4c0,0,0-.1,0-.2,0,0,.1,0,.2,0h2.6c.8,0,1.4.2,1.9.6.4.4.7.9.7,1.6s-.2,1.2-.7,1.6c-.4.4-1.1.5-1.9.5h-1.4v2.3c0,0,0,.1,0,.2,0,0-.1,0-.2,0h-.9ZM232.8,45.9c.4,0,.7,0,.9-.3.2-.2.3-.4.3-.8s0-.6-.3-.8c-.2-.2-.5-.3-.9-.3h-1.4v2.1h1.4Z"/>
    <circle class="cls-15" cx="228.7" cy="46.9" r="14.4"/>
    <circle class="cls-1" cx="228.7" cy="61.8" r="6.3"/>
    <path class="cls-12" d="M228.7,58.4c-1,0-2,.4-2.7,1.1-.7.7-1.1,1.7-1.1,2.7,0,.5.1,1,.3,1.5.2.5.5.9.8,1.2.2.2.4.2.6.2s.4,0,.6-.2c0,0,.1-.2.2-.3,0,0,0-.2,0-.3s0-.2,0-.3c0,0-.1-.2-.2-.3-.2-.2-.4-.5-.5-.7-.1-.3-.2-.6-.2-.9s0-.6.2-.9c.1-.3.3-.5.5-.7.4-.4,1-.7,1.6-.7s1.2.2,1.6.7c.2.2.4.5.5.7.1.3.2.6.2.9s0,.6-.2.9c-.1.3-.3.5-.5.7,0,0-.1.2-.2.3,0,0,0,.2,0,.3s0,.2,0,.3.1.2.2.3c.2.2.4.2.6.2s.4,0,.6-.2c.4-.4.6-.8.8-1.2.2-.5.3-1,.3-1.5,0-1-.4-2-1.1-2.7-.7-.7-1.7-1.1-2.7-1.1Z"/>
    <path class="cls-18" d="M219.2,462.5v-4h3.7"/>
    <path class="cls-18" d="M241.5,473.6v4h-3.7"/>
    <path class="cls-18" d="M241.5,462.5v-4h-3.7"/>
    <path class="cls-18" d="M219.2,473.6v4h3.7"/>
    <path class="cls-18" d="M223.8,461.6v13.5"/>
    <path class="cls-18" d="M233.6,461.6v13.5"/>
    <path class="cls-18" d="M230.3,461.6v13.5"/>
    <path class="cls-18" d="M230.3,461.6v13.5"/>
    <path class="cls-18" d="M236.8,461.6v13.5"/>
    <path class="cls-18" d="M227.1,461.6v13.5"/>
    <rect class="cls-19" x="215.5" y="319.5" width="23.8" height="17.3" rx="2.8" ry="2.8" transform="translate(-82.1 76) rotate(-16.1)"/>
    <rect class="cls-20" x="217.9" y="322.3" width="23.8" height="17.3" rx="2.8" ry="2.8"/>
    <path class="cls-14" d="M223.7,325.6c-.7,0-1.3.3-1.8.7-.5.5-.7,1.1-.7,1.7,0,.3,0,.6.2.9s.3.6.5.8c0,0,.2.1.4.1s.3,0,.4-.1c0,0,0-.1.1-.2,0,0,0-.1,0-.2s0-.1,0-.2c0,0,0-.1-.1-.2-.1-.1-.2-.3-.3-.5,0-.2-.1-.4-.1-.5s0-.4.1-.5c0-.2.2-.3.3-.5.3-.3.7-.4,1-.4s.8.1,1,.4c.1.1.2.3.3.5,0,.2.1.4.1.5s0,.4-.1.5c0,.2-.2.3-.3.5,0,0,0,.1-.1.2,0,0,0,.1,0,.2s0,.1,0,.2c0,0,0,.1.1.2,0,0,.2.1.4.1s.3,0,.4-.1c.2-.2.4-.5.5-.8.1-.3.2-.6.2-.9,0-.7-.3-1.3-.7-1.7-.5-.5-1.1-.7-1.8-.7Z"/>
    <g>
      <path class="cls-14" d="M47.2,40.1v8.4h-1.7v-5.4l-2.2,5.4h-1.3l-2.3-5.4v5.4h-1.7v-8.4h1.9l2.7,6.2,2.7-6.2h1.9Z"/>
      <path class="cls-14" d="M48.9,40.7c-.2-.2-.3-.4-.3-.7s0-.5.3-.7c.2-.2.4-.3.7-.3s.5,0,.7.3.3.4.3.7,0,.5-.3.7c-.2.2-.4.3-.7.3s-.5,0-.7-.3ZM50.5,41.8v6.6h-1.7v-6.6h1.7Z"/>
      <path class="cls-14" d="M55,43.3c.3-.5.7-.9,1.2-1.2.5-.3,1.1-.4,1.7-.4s1.5.2,2,.6c.5.4.9,1,1.1,1.7h-1.8c0-.3-.3-.5-.5-.7-.2-.2-.5-.2-.8-.2-.5,0-.9.2-1.1.5-.3.3-.4.8-.4,1.5s.1,1.1.4,1.5c.3.3.7.5,1.1.5.7,0,1.1-.3,1.3-.9h1.8c-.2.7-.5,1.3-1.1,1.7-.5.4-1.2.6-2,.6s-1.2-.1-1.7-.4c-.5-.3-.9-.7-1.2-1.2-.3-.5-.4-1.1-.4-1.8s.1-1.3.4-1.8Z"/>
      <path class="cls-14" d="M68.5,41.8v6.6h-1.7v-.8c-.2.3-.5.5-.8.7-.3.2-.7.2-1.1.2s-1-.1-1.4-.3c-.4-.2-.7-.5-.9-1-.2-.4-.3-.9-.3-1.5v-3.9h1.7v3.7c0,.5.1.9.4,1.2.3.3.6.4,1.1.4s.8-.1,1.1-.4c.3-.3.4-.7.4-1.2v-3.7h1.7Z"/>
      <path class="cls-14" d="M76.3,45.6h-4.9c0,.5.2.9.5,1.1s.7.4,1.1.4c.6,0,1.1-.3,1.3-.8h1.8c-.2.6-.6,1.2-1.1,1.6-.5.4-1.2.6-2,.6s-1.2-.1-1.7-.4c-.5-.3-.9-.7-1.2-1.2-.3-.5-.4-1.1-.4-1.8s.1-1.3.4-1.8c.3-.5.7-.9,1.2-1.2.5-.3,1.1-.4,1.7-.4s1.2.1,1.7.4.9.7,1.2,1.2c.3.5.4,1.1.4,1.7s0,.5,0,.6ZM74.6,44.5c0-.4-.2-.8-.5-1-.3-.3-.7-.4-1.1-.4s-.8.1-1,.4-.5.6-.5,1h3.2Z"/>
      <path class="cls-14" d="M83.2,42.5c.5.5.7,1.2.7,2.1v3.9h-1.7v-3.7c0-.5-.1-.9-.4-1.2-.3-.3-.6-.4-1.1-.4s-.8.1-1.1.4c-.3.3-.4.7-.4,1.2v3.7h-1.7v-6.6h1.7v.8c.2-.3.5-.5.9-.7.3-.2.7-.2,1.1-.2.8,0,1.4.3,1.9.8Z"/>
      <path class="cls-14" d="M87.5,43.2v3.2c0,.2,0,.4.2.5.1.1.3.1.5.1h.8v1.4h-1.1c-1.4,0-2.1-.7-2.1-2.1v-3.2h-.8v-1.4h.8v-1.6h1.7v1.6h1.5v1.4h-1.5Z"/>
      <path class="cls-14" d="M90.1,43.3c.3-.5.6-.9,1.1-1.2.5-.3,1-.4,1.5-.4s.9.1,1.3.3c.4.2.7.5.9.8v-.9h1.7v6.6h-1.7v-1c-.2.3-.5.6-.9.8-.4.2-.8.3-1.3.3s-1.1-.1-1.5-.4c-.5-.3-.8-.7-1.1-1.2-.3-.5-.4-1.1-.4-1.8s.1-1.3.4-1.8ZM94.7,44.1c-.2-.3-.4-.5-.6-.7-.3-.2-.6-.2-.9-.2s-.6,0-.9.2c-.3.2-.5.4-.6.7-.2.3-.2.6-.2,1s0,.8.2,1.1c.2.3.4.5.6.7.3.2.6.2.9.2s.6,0,.9-.2c.3-.2.5-.4.6-.7s.2-.6.2-1.1,0-.8-.2-1Z"/>
    </g>
    <g>
      <path class="cls-14" d="M47.2,110.8v8.4h-1.7v-5.4l-2.2,5.4h-1.3l-2.3-5.4v5.4h-1.7v-8.4h1.9l2.7,6.2,2.7-6.2h1.9Z"/>
      <path class="cls-14" d="M48.9,111.4c-.2-.2-.3-.4-.3-.7s0-.5.3-.7c.2-.2.4-.3.7-.3s.5,0,.7.3.3.4.3.7,0,.5-.3.7c-.2.2-.4.3-.7.3s-.5,0-.7-.3ZM50.5,112.5v6.6h-1.7v-6.6h1.7Z"/>
      <path class="cls-14" d="M56.1,119c-.4-.2-.8-.5-1-.8s-.4-.7-.4-1.1h1.7c0,.3.2.5.4.6s.5.3.8.3.6,0,.8-.2c.2-.1.3-.3.3-.5s-.1-.4-.3-.5c-.2-.1-.6-.2-1-.4-.5-.1-.9-.2-1.2-.4-.3-.1-.6-.3-.8-.6-.2-.3-.3-.6-.3-1.1s.1-.7.3-1c.2-.3.5-.5.9-.7.4-.2.9-.3,1.4-.3.8,0,1.4.2,1.9.6.5.4.7.9.8,1.6h-1.6c0-.3-.1-.5-.3-.6-.2-.2-.5-.2-.8-.2s-.5,0-.7.2c-.2.1-.2.3-.2.5s.1.4.3.5c.2.1.6.2,1,.4.5.1.9.2,1.2.4.3.1.6.3.8.6.2.3.3.6.4,1.1,0,.4-.1.7-.3,1-.2.3-.5.5-.9.7-.4.2-.9.3-1.4.3s-1,0-1.5-.3Z"/>
      <path class="cls-14" d="M61.5,114c.3-.5.6-.9,1.1-1.2.5-.3,1-.4,1.5-.4s.9.1,1.3.3c.4.2.7.5.9.8v-.9h1.7v6.6h-1.7v-1c-.2.3-.5.6-.9.8-.4.2-.8.3-1.3.3s-1.1-.1-1.5-.4c-.5-.3-.8-.7-1.1-1.2-.3-.5-.4-1.1-.4-1.8s.1-1.3.4-1.8ZM66.1,114.8c-.2-.3-.4-.5-.6-.7-.3-.2-.6-.2-.9-.2s-.6,0-.9.2c-.3.2-.5.4-.6.7-.2.3-.2.6-.2,1s0,.8.2,1.1c.2.3.4.5.6.7.3.2.6.2.9.2s.6,0,.9-.2c.3-.2.5-.4.6-.7s.2-.6.2-1.1,0-.8-.2-1Z"/>
      <path class="cls-14" d="M71.4,110.3v8.9h-1.7v-8.9h1.7Z"/>
      <path class="cls-14" d="M73,114c.3-.5.6-.9,1.1-1.2.5-.3,1-.4,1.5-.4s.8,0,1.2.3c.4.2.7.4.9.8v-3.2h1.7v8.9h-1.7v-1c-.2.3-.5.6-.9.8-.4.2-.8.3-1.3.3s-1.1-.1-1.5-.4c-.5-.3-.8-.7-1.1-1.2-.3-.5-.4-1.1-.4-1.8s.1-1.3.4-1.8ZM77.6,114.8c-.2-.3-.4-.5-.6-.7-.3-.2-.6-.2-.9-.2s-.6,0-.9.2c-.3.2-.5.4-.6.7-.2.3-.2.6-.2,1s0,.8.2,1.1c.2.3.4.5.6.7.3.2.6.2.9.2s.6,0,.9-.2c.3-.2.5-.4.6-.7s.2-.6.2-1.1,0-.8-.2-1Z"/>
      <path class="cls-14" d="M82.4,118.8c-.5-.3-.9-.7-1.2-1.2s-.4-1.1-.4-1.8.1-1.3.5-1.8c.3-.5.7-.9,1.2-1.2.5-.3,1.1-.4,1.7-.4s1.2.1,1.7.4c.5.3.9.7,1.2,1.2s.5,1.1.5,1.8-.2,1.3-.5,1.8c-.3.5-.7.9-1.2,1.2-.5.3-1.1.4-1.8.4s-1.2-.1-1.7-.4ZM85,117.6c.3-.1.5-.4.6-.7.2-.3.2-.7.2-1.1,0-.6-.2-1.1-.5-1.5-.3-.3-.7-.5-1.2-.5s-.9.2-1.2.5c-.3.3-.5.8-.5,1.5s.2,1.1.5,1.5c.3.3.7.5,1.2.5s.6,0,.9-.2Z"/>
    </g>
    <g>
      <path class="cls-14" d="M39.7,186.6h2.8v1.3h-4.4v-8.4h1.7v7Z"/>
      <path class="cls-14" d="M44.8,187.6c-.5-.3-.9-.7-1.2-1.2s-.4-1.1-.4-1.8.1-1.3.5-1.8c.3-.5.7-.9,1.2-1.2.5-.3,1.1-.4,1.7-.4s1.2.1,1.7.4c.5.3.9.7,1.2,1.2s.5,1.1.5,1.8-.2,1.3-.5,1.8c-.3.5-.7.9-1.2,1.2-.5.3-1.1.4-1.8.4s-1.2-.1-1.7-.4ZM47.3,186.4c.3-.1.5-.4.6-.7.2-.3.2-.7.2-1.1,0-.6-.2-1.1-.5-1.5-.3-.3-.7-.5-1.2-.5s-.9.2-1.2.5c-.3.3-.5.8-.5,1.5s.2,1.1.5,1.5c.3.3.7.5,1.2.5s.6,0,.9-.2Z"/>
      <path class="cls-14" d="M54,182.9c.3-.5.7-.9,1.1-1.2.5-.3,1-.4,1.6-.4s.9,0,1.3.3c.4.2.7.4.9.7v-.9h1.7v9.8h-1.7v-4.1c-.2.3-.5.5-.9.7s-.8.3-1.3.3-1.1-.1-1.5-.4-.8-.7-1.1-1.2c-.3-.5-.4-1.1-.4-1.8s.1-1.3.4-1.8ZM58.6,183.6c-.2-.3-.4-.5-.7-.7-.3-.2-.6-.2-.9-.2s-.6,0-.8.2c-.3.2-.5.4-.7.7-.2.3-.3.6-.3,1.1s0,.8.3,1.1c.2.3.4.5.7.7.3.2.6.2.8.2s.6,0,.9-.2c.3-.2.5-.4.7-.7s.3-.6.3-1.1,0-.8-.3-1.1Z"/>
      <path class="cls-14" d="M68.5,181.3v6.6h-1.7v-.8c-.2.3-.5.5-.8.7-.3.2-.7.2-1.1.2s-1-.1-1.4-.3c-.4-.2-.7-.5-.9-1-.2-.4-.3-.9-.3-1.5v-3.9h1.7v3.7c0,.5.1.9.4,1.2.3.3.6.4,1.1.4s.8-.1,1.1-.4c.3-.3.4-.7.4-1.2v-3.7h1.7Z"/>
      <path class="cls-14" d="M76.3,185.1h-4.9c0,.5.2.9.5,1.1s.7.4,1.1.4c.6,0,1.1-.3,1.3-.8h1.8c-.2.6-.6,1.2-1.1,1.6-.5.4-1.2.6-2,.6s-1.2-.1-1.7-.4c-.5-.3-.9-.7-1.2-1.2-.3-.5-.4-1.1-.4-1.8s.1-1.3.4-1.8c.3-.5.7-.9,1.2-1.2.5-.3,1.1-.4,1.7-.4s1.2.1,1.7.4.9.7,1.2,1.2c.3.5.4,1.1.4,1.7s0,.5,0,.6ZM74.6,184c0-.4-.2-.8-.5-1-.3-.3-.7-.4-1.1-.4s-.8.1-1,.4-.5.6-.5,1h3.2Z"/>
      <path class="cls-14" d="M80.3,182.8c.3-.5.6-.9,1.1-1.2.5-.3,1-.4,1.5-.4s.8,0,1.2.3c.4.2.7.4.9.8v-3.2h1.7v8.9h-1.7v-1c-.2.3-.5.6-.9.8-.4.2-.8.3-1.3.3s-1.1-.1-1.5-.4c-.5-.3-.8-.7-1.1-1.2-.3-.5-.4-1.1-.4-1.8s.1-1.3.4-1.8ZM84.9,183.6c-.2-.3-.4-.5-.6-.7-.3-.2-.6-.2-.9-.2s-.6,0-.9.2c-.3.2-.5.4-.6.7-.2.3-.2.6-.2,1s0,.8.2,1.1c.2.3.4.5.6.7.3.2.6.2.9.2s.6,0,.9-.2c.3-.2.5-.4.6-.7s.2-.6.2-1.1,0-.8-.2-1Z"/>
      <path class="cls-14" d="M94.6,185.1h-4.9c0,.5.2.9.5,1.1s.7.4,1.1.4c.6,0,1.1-.3,1.3-.8h1.8c-.2.6-.6,1.2-1.1,1.6-.5.4-1.2.6-2,.6s-1.2-.1-1.7-.4c-.5-.3-.9-.7-1.2-1.2-.3-.5-.4-1.1-.4-1.8s.1-1.3.4-1.8c.3-.5.7-.9,1.2-1.2.5-.3,1.1-.4,1.7-.4s1.2.1,1.7.4.9.7,1.2,1.2c.3.5.4,1.1.4,1.7s0,.5,0,.6ZM93,184c0-.4-.2-.8-.5-1-.3-.3-.7-.4-1.1-.4s-.8.1-1,.4-.5.6-.5,1h3.2Z"/>
      <path class="cls-14" d="M98.5,181.5c.4-.2.8-.3,1.3-.3s1.1.1,1.5.4c.5.3.8.7,1.1,1.2s.4,1.1.4,1.8-.1,1.3-.4,1.8-.6.9-1.1,1.2c-.5.3-1,.4-1.5.4s-.9,0-1.3-.3-.7-.5-.9-.8v.9h-1.7v-8.9h1.7v3.2c.2-.3.5-.6.9-.8ZM100.9,183.6c-.2-.3-.4-.5-.6-.7-.3-.2-.6-.2-.9-.2s-.6,0-.9.2c-.3.2-.5.4-.6.7-.2.3-.2.6-.2,1s0,.7.2,1,.4.5.6.7c.3.2.6.2.9.2s.6,0,.9-.2.5-.4.6-.7c.2-.3.2-.6.2-1.1s0-.7-.2-1Z"/>
      <path class="cls-14" d="M105.3,187.6c-.5-.3-.9-.7-1.2-1.2s-.4-1.1-.4-1.8.1-1.3.5-1.8c.3-.5.7-.9,1.2-1.2.5-.3,1.1-.4,1.7-.4s1.2.1,1.7.4c.5.3.9.7,1.2,1.2s.5,1.1.5,1.8-.2,1.3-.5,1.8c-.3.5-.7.9-1.2,1.2-.5.3-1.1.4-1.8.4s-1.2-.1-1.7-.4ZM107.9,186.4c.3-.1.5-.4.6-.7.2-.3.2-.7.2-1.1,0-.6-.2-1.1-.5-1.5-.3-.3-.7-.5-1.2-.5s-.9.2-1.2.5c-.3.3-.5.8-.5,1.5s.2,1.1.5,1.5c.3.3.7.5,1.2.5s.6,0,.9-.2Z"/>
    </g>
    <g>
      <path class="cls-14" d="M47.2,251.2v8.4h-1.7v-5.4l-2.2,5.4h-1.3l-2.3-5.4v5.4h-1.7v-8.4h1.9l2.7,6.2,2.7-6.2h1.9Z"/>
      <path class="cls-14" d="M48.9,251.9c-.2-.2-.3-.4-.3-.7s0-.5.3-.7c.2-.2.4-.3.7-.3s.5,0,.7.3.3.4.3.7,0,.5-.3.7c-.2.2-.4.3-.7.3s-.5,0-.7-.3ZM50.5,253v6.6h-1.7v-6.6h1.7Z"/>
      <path class="cls-14" d="M53.2,259.4c-.4-.2-.8-.5-1-.8s-.4-.7-.4-1.1h1.7c0,.3.2.5.4.6s.5.3.8.3.6,0,.8-.2c.2-.1.3-.3.3-.5s-.1-.4-.3-.5c-.2-.1-.6-.2-1-.4-.5-.1-.9-.2-1.2-.4-.3-.1-.6-.3-.8-.6-.2-.3-.3-.6-.3-1.1s.1-.7.3-1c.2-.3.5-.5.9-.7.4-.2.9-.3,1.4-.3.8,0,1.4.2,1.9.6.5.4.7.9.8,1.6h-1.6c0-.3-.1-.5-.3-.6-.2-.2-.5-.2-.8-.2s-.5,0-.7.2c-.2.1-.2.3-.2.5s.1.4.3.5c.2.1.6.2,1,.4.5.1.9.2,1.2.4.3.1.6.3.8.6.2.3.3.6.4,1.1,0,.4-.1.7-.3,1-.2.3-.5.5-.9.7-.4.2-.9.3-1.4.3s-1,0-1.5-.3Z"/>
      <path class="cls-14" d="M61.7,251.9c-.2-.2-.3-.4-.3-.7s0-.5.3-.7c.2-.2.4-.3.7-.3s.5,0,.7.3.3.4.3.7,0,.5-.3.7c-.2.2-.4.3-.7.3s-.5,0-.7-.3ZM63.2,253v6.6h-1.7v-6.6h1.7Z"/>
      <path class="cls-14" d="M70.5,253.6c.5.5.7,1.2.7,2.1v3.9h-1.7v-3.7c0-.5-.1-.9-.4-1.2-.3-.3-.6-.4-1.1-.4s-.8.1-1.1.4c-.3.3-.4.7-.4,1.2v3.7h-1.7v-6.6h1.7v.8c.2-.3.5-.5.9-.7.3-.2.7-.2,1.1-.2.8,0,1.4.3,1.9.8Z"/>
      <path class="cls-14" d="M75.6,258.1l1.7-5.1h1.8l-2.5,6.6h-2l-2.4-6.6h1.8l1.7,5.1Z"/>
      <path class="cls-14" d="M86.1,256.8h-4.9c0,.5.2.9.5,1.1s.7.4,1.1.4c.6,0,1.1-.3,1.3-.8h1.8c-.2.6-.6,1.2-1.1,1.6-.5.4-1.2.6-2,.6s-1.2-.1-1.7-.4c-.5-.3-.9-.7-1.2-1.2-.3-.5-.4-1.1-.4-1.8s.1-1.3.4-1.8c.3-.5.7-.9,1.2-1.2.5-.3,1.1-.4,1.7-.4s1.2.1,1.7.4.9.7,1.2,1.2c.3.5.4,1.1.4,1.7s0,.5,0,.6ZM84.4,255.7c0-.4-.2-.8-.5-1-.3-.3-.7-.4-1.1-.4s-.8.1-1,.4-.5.6-.5,1h3.2Z"/>
      <path class="cls-14" d="M89.9,253.2c.3-.2.7-.3,1.2-.3v1.8h-.4c-.5,0-.9.1-1.2.4-.3.2-.4.7-.4,1.3v3.3h-1.7v-6.6h1.7v1c.2-.4.5-.6.8-.8Z"/>
      <path class="cls-14" d="M93.3,259.4c-.4-.2-.8-.5-1-.8s-.4-.7-.4-1.1h1.7c0,.3.2.5.4.6s.5.3.8.3.6,0,.8-.2c.2-.1.3-.3.3-.5s-.1-.4-.3-.5c-.2-.1-.6-.2-1-.4-.5-.1-.9-.2-1.2-.4-.3-.1-.6-.3-.8-.6-.2-.3-.3-.6-.3-1.1s.1-.7.3-1c.2-.3.5-.5.9-.7.4-.2.9-.3,1.4-.3.8,0,1.4.2,1.9.6.5.4.7.9.8,1.6h-1.6c0-.3-.1-.5-.3-.6-.2-.2-.5-.2-.8-.2s-.5,0-.7.2c-.2.1-.2.3-.2.5s.1.4.3.5c.2.1.6.2,1,.4.5.1.9.2,1.2.4.3.1.6.3.8.6.2.3.3.6.4,1.1,0,.4-.1.7-.3,1-.2.3-.5.5-.9.7-.4.2-.9.3-1.4.3s-1,0-1.5-.3Z"/>
      <path class="cls-14" d="M98.9,251.9c-.2-.2-.3-.4-.3-.7s0-.5.3-.7c.2-.2.4-.3.7-.3s.5,0,.7.3.3.4.3.7,0,.5-.3.7c-.2.2-.4.3-.7.3s-.5,0-.7-.3ZM100.5,253v6.6h-1.7v-6.6h1.7Z"/>
      <path class="cls-14" d="M103.4,259.3c-.5-.3-.9-.7-1.2-1.2s-.4-1.1-.4-1.8.1-1.3.5-1.8c.3-.5.7-.9,1.2-1.2.5-.3,1.1-.4,1.7-.4s1.2.1,1.7.4c.5.3.9.7,1.2,1.2s.5,1.1.5,1.8-.2,1.3-.5,1.8c-.3.5-.7.9-1.2,1.2-.5.3-1.1.4-1.8.4s-1.2-.1-1.7-.4ZM105.9,258c.3-.1.5-.4.6-.7.2-.3.2-.7.2-1.1,0-.6-.2-1.1-.5-1.5-.3-.3-.7-.5-1.2-.5s-.9.2-1.2.5c-.3.3-.5.8-.5,1.5s.2,1.1.5,1.5c.3.3.7.5,1.2.5s.6,0,.9-.2Z"/>
      <path class="cls-14" d="M115.4,253.6c.5.5.7,1.2.7,2.1v3.9h-1.7v-3.7c0-.5-.1-.9-.4-1.2-.3-.3-.6-.4-1.1-.4s-.8.1-1.1.4c-.3.3-.4.7-.4,1.2v3.7h-1.7v-6.6h1.7v.8c.2-.3.5-.5.9-.7.3-.2.7-.2,1.1-.2.8,0,1.4.3,1.9.8Z"/>
      <path class="cls-14" d="M123.9,256.8h-4.9c0,.5.2.9.5,1.1s.7.4,1.1.4c.6,0,1.1-.3,1.3-.8h1.8c-.2.6-.6,1.2-1.1,1.6-.5.4-1.2.6-2,.6s-1.2-.1-1.7-.4c-.5-.3-.9-.7-1.2-1.2-.3-.5-.4-1.1-.4-1.8s.1-1.3.4-1.8c.3-.5.7-.9,1.2-1.2.5-.3,1.1-.4,1.7-.4s1.2.1,1.7.4.9.7,1.2,1.2c.3.5.4,1.1.4,1.7s0,.5,0,.6ZM122.2,255.7c0-.4-.2-.8-.5-1-.3-.3-.7-.4-1.1-.4s-.8.1-1,.4-.5.6-.5,1h3.2Z"/>
      <path class="cls-14" d="M126.2,259.4c-.4-.2-.8-.5-1-.8s-.4-.7-.4-1.1h1.7c0,.3.2.5.4.6s.5.3.8.3.6,0,.8-.2c.2-.1.3-.3.3-.5s-.1-.4-.3-.5c-.2-.1-.6-.2-1-.4-.5-.1-.9-.2-1.2-.4-.3-.1-.6-.3-.8-.6-.2-.3-.3-.6-.3-1.1s.1-.7.3-1c.2-.3.5-.5.9-.7.4-.2.9-.3,1.4-.3.8,0,1.4.2,1.9.6.5.4.7.9.8,1.6h-1.6c0-.3-.1-.5-.3-.6-.2-.2-.5-.2-.8-.2s-.5,0-.7.2c-.2.1-.2.3-.2.5s.1.4.3.5c.2.1.6.2,1,.4.5.1.9.2,1.2.4.3.1.6.3.8.6.2.3.3.6.4,1.1,0,.4-.1.7-.3,1-.2.3-.5.5-.9.7-.4.2-.9.3-1.4.3s-1,0-1.5-.3Z"/>
    </g>
    <g>
      <path class="cls-14" d="M47.2,320.3v8.4h-1.7v-5.4l-2.2,5.4h-1.3l-2.3-5.4v5.4h-1.7v-8.4h1.9l2.7,6.2,2.7-6.2h1.9Z"/>
      <path class="cls-14" d="M48.9,321c-.2-.2-.3-.4-.3-.7s0-.5.3-.7c.2-.2.4-.3.7-.3s.5,0,.7.3.3.4.3.7,0,.5-.3.7c-.2.2-.4.3-.7.3s-.5,0-.7-.3ZM50.5,322v6.6h-1.7v-6.6h1.7Z"/>
      <path class="cls-14" d="M53.2,328.5c-.4-.2-.8-.5-1-.8s-.4-.7-.4-1.1h1.7c0,.3.2.5.4.6s.5.3.8.3.6,0,.8-.2c.2-.1.3-.3.3-.5s-.1-.4-.3-.5c-.2-.1-.6-.2-1-.4-.5-.1-.9-.2-1.2-.4-.3-.1-.6-.3-.8-.6-.2-.3-.3-.6-.3-1.1s.1-.7.3-1c.2-.3.5-.5.9-.7.4-.2.9-.3,1.4-.3.8,0,1.4.2,1.9.6.5.4.7.9.8,1.6h-1.6c0-.3-.1-.5-.3-.6-.2-.2-.5-.2-.8-.2s-.5,0-.7.2c-.2.1-.2.3-.2.5s.1.4.3.5c.2.1.6.2,1,.4.5.1.9.2,1.2.4.3.1.6.3.8.6.2.3.3.6.4,1.1,0,.4-.1.7-.3,1-.2.3-.5.5-.9.7-.4.2-.9.3-1.4.3s-1,0-1.5-.3Z"/>
      <path class="cls-14" d="M63.5,323.4v3.2c0,.2,0,.4.2.5.1.1.3.1.5.1h.8v1.4h-1.1c-1.4,0-2.1-.7-2.1-2.1v-3.2h-.8v-1.4h.8v-1.6h1.7v1.6h1.5v1.4h-1.5Z"/>
      <path class="cls-14" d="M66.2,323.6c.3-.5.6-.9,1.1-1.2.5-.3,1-.4,1.5-.4s.9.1,1.3.3c.4.2.7.5.9.8v-.9h1.7v6.6h-1.7v-1c-.2.3-.5.6-.9.8-.4.2-.8.3-1.3.3s-1.1-.1-1.5-.4c-.5-.3-.8-.7-1.1-1.2-.3-.5-.4-1.1-.4-1.8s.1-1.3.4-1.8ZM70.8,324.3c-.2-.3-.4-.5-.6-.7-.3-.2-.6-.2-.9-.2s-.6,0-.9.2c-.3.2-.5.4-.6.7-.2.3-.2.6-.2,1s0,.8.2,1.1c.2.3.4.5.6.7.3.2.6.2.9.2s.6,0,.9-.2c.3-.2.5-.4.6-.7s.2-.6.2-1.1,0-.8-.2-1Z"/>
      <path class="cls-14" d="M76.9,322.3c.3-.2.7-.3,1.2-.3v1.8h-.4c-.5,0-.9.1-1.2.4-.3.2-.4.7-.4,1.3v3.3h-1.7v-6.6h1.7v1c.2-.4.5-.6.8-.8Z"/>
      <path class="cls-14" d="M80.9,329.8c0,.7-.2,1.3-.5,1.6-.4.3-.9.5-1.6.5h-.7v-1.4h.5c.3,0,.4,0,.5-.2s.2-.3.2-.5v-7.8h1.7v7.7ZM79.3,321c-.2-.2-.3-.4-.3-.7s0-.5.3-.7.4-.3.8-.3.5,0,.7.3c.2.2.3.4.3.7s0,.5-.3.7c-.2.2-.4.3-.7.3s-.6,0-.8-.3Z"/>
      <path class="cls-14" d="M88.7,325.9h-4.9c0,.5.2.9.5,1.1s.7.4,1.1.4c.6,0,1.1-.3,1.3-.8h1.8c-.2.6-.6,1.2-1.1,1.6-.5.4-1.2.6-2,.6s-1.2-.1-1.7-.4c-.5-.3-.9-.7-1.2-1.2-.3-.5-.4-1.1-.4-1.8s.1-1.3.4-1.8c.3-.5.7-.9,1.2-1.2.5-.3,1.1-.4,1.7-.4s1.2.1,1.7.4.9.7,1.2,1.2c.3.5.4,1.1.4,1.7s0,.5,0,.6ZM87,324.7c0-.4-.2-.8-.5-1-.3-.3-.7-.4-1.1-.4s-.8.1-1,.4-.5.6-.5,1h3.2Z"/>
      <path class="cls-14" d="M91.9,323.4v3.2c0,.2,0,.4.2.5.1.1.3.1.5.1h.8v1.4h-1.1c-1.4,0-2.1-.7-2.1-2.1v-3.2h-.8v-1.4h.8v-1.6h1.7v1.6h1.5v1.4h-1.5Z"/>
      <path class="cls-14" d="M94.6,323.6c.3-.5.6-.9,1.1-1.2.5-.3,1-.4,1.5-.4s.9.1,1.3.3c.4.2.7.5.9.8v-.9h1.7v6.6h-1.7v-1c-.2.3-.5.6-.9.8-.4.2-.8.3-1.3.3s-1.1-.1-1.5-.4c-.5-.3-.8-.7-1.1-1.2-.3-.5-.4-1.1-.4-1.8s.1-1.3.4-1.8ZM99.1,324.3c-.2-.3-.4-.5-.6-.7-.3-.2-.6-.2-.9-.2s-.6,0-.9.2c-.3.2-.5.4-.6.7-.2.3-.2.6-.2,1s0,.8.2,1.1c.2.3.4.5.6.7.3.2.6.2.9.2s.6,0,.9-.2c.3-.2.5-.4.6-.7s.2-.6.2-1.1,0-.8-.2-1Z"/>
      <path class="cls-14" d="M103.8,328.5c-.4-.2-.8-.5-1-.8s-.4-.7-.4-1.1h1.7c0,.3.2.5.4.6s.5.3.8.3.6,0,.8-.2c.2-.1.3-.3.3-.5s-.1-.4-.3-.5c-.2-.1-.6-.2-1-.4-.5-.1-.9-.2-1.2-.4-.3-.1-.6-.3-.8-.6-.2-.3-.3-.6-.3-1.1s.1-.7.3-1c.2-.3.5-.5.9-.7.4-.2.9-.3,1.4-.3.8,0,1.4.2,1.9.6.5.4.7.9.8,1.6h-1.6c0-.3-.1-.5-.3-.6-.2-.2-.5-.2-.8-.2s-.5,0-.7.2c-.2.1-.2.3-.2.5s.1.4.3.5c.2.1.6.2,1,.4.5.1.9.2,1.2.4.3.1.6.3.8.6.2.3.3.6.4,1.1,0,.4-.1.7-.3,1-.2.3-.5.5-.9.7-.4.2-.9.3-1.4.3s-1,0-1.5-.3Z"/>
    </g>
    <g>
      <path class="cls-14" d="M44.2,393.6v1.4h-2.2v7h-1.7v-7h-2.2v-1.4h6.1Z"/>
      <path class="cls-14" d="M47.9,395.6c.3-.2.7-.3,1.2-.3v1.8h-.4c-.5,0-.9.1-1.2.4-.3.2-.4.7-.4,1.3v3.3h-1.7v-6.6h1.7v1c.2-.4.5-.6.8-.8Z"/>
      <path class="cls-14" d="M50.2,396.9c.3-.5.6-.9,1.1-1.2.5-.3,1-.4,1.5-.4s.9.1,1.3.3c.4.2.7.5.9.8v-.9h1.7v6.6h-1.7v-1c-.2.3-.5.6-.9.8-.4.2-.8.3-1.3.3s-1.1-.1-1.5-.4c-.5-.3-.8-.7-1.1-1.2-.3-.5-.4-1.1-.4-1.8s.1-1.3.4-1.8ZM54.8,397.6c-.2-.3-.4-.5-.6-.7-.3-.2-.6-.2-.9-.2s-.6,0-.9.2-.5.4-.6.7c-.2.3-.2.6-.2,1s0,.8.2,1c.2.3.4.5.6.7.3.2.6.2.9.2s.6,0,.9-.2c.3-.2.5-.4.6-.7s.2-.6.2-1.1,0-.8-.2-1Z"/>
      <path class="cls-14" d="M64,396c.5.5.7,1.2.7,2.1v3.9h-1.7v-3.7c0-.5-.1-.9-.4-1.2s-.6-.4-1.1-.4-.8.1-1.1.4c-.3.3-.4.7-.4,1.2v3.7h-1.7v-6.6h1.7v.8c.2-.3.5-.5.9-.7.3-.2.7-.2,1.1-.2.8,0,1.4.3,1.9.8Z"/>
      <path class="cls-14" d="M67.4,401.8c-.4-.2-.8-.5-1-.8s-.4-.7-.4-1.1h1.7c0,.3.2.5.4.6s.5.3.8.3.6,0,.8-.2c.2-.1.3-.3.3-.5s-.1-.4-.3-.5-.6-.2-1-.4c-.5-.1-.9-.2-1.2-.4-.3-.1-.6-.3-.8-.6-.2-.3-.3-.6-.3-1.1s.1-.7.3-1c.2-.3.5-.5.9-.7.4-.2.9-.3,1.4-.3.8,0,1.4.2,1.9.6.5.4.7.9.8,1.6h-1.6c0-.3-.1-.5-.3-.6-.2-.2-.5-.2-.8-.2s-.5,0-.7.2-.2.3-.2.5.1.4.3.5c.2.1.6.2,1,.4.5.1.9.2,1.2.4.3.1.6.3.8.6.2.3.3.6.4,1.1,0,.4-.1.7-.3,1-.2.3-.5.5-.9.7-.4.2-.9.3-1.4.3s-1,0-1.5-.3Z"/>
      <path class="cls-14" d="M75.9,396.7h-1.2v5.3h-1.7v-5.3h-.8v-1.4h.8v-.3c0-.8.2-1.4.7-1.8.5-.4,1.2-.6,2.1-.5v1.4c-.4,0-.7,0-.9.2-.2.1-.2.4-.2.8v.3h1.2v1.4Z"/>
      <path class="cls-14" d="M83.1,399.2h-4.9c0,.5.2.9.5,1.1.3.3.7.4,1.1.4.6,0,1.1-.3,1.3-.8h1.8c-.2.6-.6,1.2-1.1,1.6-.5.4-1.2.6-2,.6s-1.2-.1-1.7-.4c-.5-.3-.9-.7-1.2-1.2-.3-.5-.4-1.1-.4-1.8s.1-1.3.4-1.8c.3-.5.7-.9,1.2-1.2.5-.3,1.1-.4,1.7-.4s1.2.1,1.7.4c.5.3.9.7,1.2,1.2.3.5.4,1.1.4,1.7s0,.5,0,.6ZM81.4,398.1c0-.4-.2-.8-.5-1-.3-.3-.7-.4-1.1-.4s-.8.1-1,.4-.5.6-.5,1h3.2Z"/>
      <path class="cls-14" d="M86.9,395.6c.3-.2.7-.3,1.2-.3v1.8h-.4c-.5,0-.9.1-1.2.4-.3.2-.4.7-.4,1.3v3.3h-1.7v-6.6h1.7v1c.2-.4.5-.6.8-.8Z"/>
      <path class="cls-14" d="M95.4,399.2h-4.9c0,.5.2.9.5,1.1.3.3.7.4,1.1.4.6,0,1.1-.3,1.3-.8h1.8c-.2.6-.6,1.2-1.1,1.6-.5.4-1.2.6-2,.6s-1.2-.1-1.7-.4c-.5-.3-.9-.7-1.2-1.2-.3-.5-.4-1.1-.4-1.8s.1-1.3.4-1.8c.3-.5.7-.9,1.2-1.2.5-.3,1.1-.4,1.7-.4s1.2.1,1.7.4c.5.3.9.7,1.2,1.2.3.5.4,1.1.4,1.7s0,.5,0,.6ZM93.7,398.1c0-.4-.2-.8-.5-1-.3-.3-.7-.4-1.1-.4s-.8.1-1,.4-.5.6-.5,1h3.2Z"/>
      <path class="cls-14" d="M102.3,396c.5.5.7,1.2.7,2.1v3.9h-1.7v-3.7c0-.5-.1-.9-.4-1.2s-.6-.4-1.1-.4-.8.1-1.1.4c-.3.3-.4.7-.4,1.2v3.7h-1.7v-6.6h1.7v.8c.2-.3.5-.5.9-.7.3-.2.7-.2,1.1-.2.8,0,1.4.3,1.9.8Z"/>
      <path class="cls-14" d="M104.6,396.9c.3-.5.7-.9,1.2-1.2.5-.3,1.1-.4,1.7-.4s1.5.2,2,.6c.5.4.9,1,1.1,1.7h-1.8c0-.3-.3-.5-.5-.7-.2-.2-.5-.2-.8-.2-.5,0-.9.2-1.1.5-.3.3-.4.8-.4,1.5s.1,1.1.4,1.5c.3.3.7.5,1.1.5.7,0,1.1-.3,1.3-.9h1.8c-.2.7-.5,1.3-1.1,1.7-.5.4-1.2.6-2,.6s-1.2-.1-1.7-.4c-.5-.3-.9-.7-1.2-1.2-.3-.5-.4-1.1-.4-1.8s.1-1.3.4-1.8Z"/>
      <path class="cls-14" d="M111.9,394.3c-.2-.2-.3-.4-.3-.7s0-.5.3-.7c.2-.2.4-.3.7-.3s.5,0,.7.3c.2.2.3.4.3.7s0,.5-.3.7-.4.3-.7.3-.5,0-.7-.3ZM113.5,395.4v6.6h-1.7v-6.6h1.7Z"/>
      <path class="cls-14" d="M115.1,396.9c.3-.5.6-.9,1.1-1.2.5-.3,1-.4,1.5-.4s.9.1,1.3.3c.4.2.7.5.9.8v-.9h1.7v6.6h-1.7v-1c-.2.3-.5.6-.9.8-.4.2-.8.3-1.3.3s-1.1-.1-1.5-.4c-.5-.3-.8-.7-1.1-1.2-.3-.5-.4-1.1-.4-1.8s.1-1.3.4-1.8ZM119.7,397.6c-.2-.3-.4-.5-.6-.7-.3-.2-.6-.2-.9-.2s-.6,0-.9.2-.5.4-.6.7c-.2.3-.2.6-.2,1s0,.8.2,1c.2.3.4.5.6.7.3.2.6.2.9.2s.6,0,.9-.2c.3-.2.5-.4.6-.7s.2-.6.2-1.1,0-.8-.2-1Z"/>
      <path class="cls-14" d="M124.4,401.8c-.4-.2-.8-.5-1-.8s-.4-.7-.4-1.1h1.7c0,.3.2.5.4.6s.5.3.8.3.6,0,.8-.2c.2-.1.3-.3.3-.5s-.1-.4-.3-.5-.6-.2-1-.4c-.5-.1-.9-.2-1.2-.4-.3-.1-.6-.3-.8-.6-.2-.3-.3-.6-.3-1.1s.1-.7.3-1c.2-.3.5-.5.9-.7.4-.2.9-.3,1.4-.3.8,0,1.4.2,1.9.6.5.4.7.9.8,1.6h-1.6c0-.3-.1-.5-.3-.6-.2-.2-.5-.2-.8-.2s-.5,0-.7.2-.2.3-.2.5.1.4.3.5c.2.1.6.2,1,.4.5.1.9.2,1.2.4.3.1.6.3.8.6.2.3.3.6.4,1.1,0,.4-.1.7-.3,1-.2.3-.5.5-.9.7-.4.2-.9.3-1.4.3s-1,0-1.5-.3Z"/>
    </g>
    <g>
      <path class="cls-14" d="M47.2,463.3v8.4h-1.7v-5.4l-2.2,5.4h-1.3l-2.3-5.4v5.4h-1.7v-8.4h1.9l2.7,6.2,2.7-6.2h1.9Z"/>
      <path class="cls-14" d="M48.9,464c-.2-.2-.3-.4-.3-.7s0-.5.3-.7c.2-.2.4-.3.7-.3s.5,0,.7.3c.2.2.3.4.3.7s0,.5-.3.7-.4.3-.7.3-.5,0-.7-.3ZM50.5,465.1v6.6h-1.7v-6.6h1.7Z"/>
      <path class="cls-14" d="M53.2,471.5c-.4-.2-.8-.5-1-.8s-.4-.7-.4-1.1h1.7c0,.3.2.5.4.6s.5.3.8.3.6,0,.8-.2c.2-.1.3-.3.3-.5s-.1-.4-.3-.5-.6-.2-1-.4c-.5-.1-.9-.2-1.2-.4-.3-.1-.6-.3-.8-.6-.2-.3-.3-.6-.3-1.1s.1-.7.3-1c.2-.3.5-.5.9-.7.4-.2.9-.3,1.4-.3.8,0,1.4.2,1.9.6.5.4.7.9.8,1.6h-1.6c0-.3-.1-.5-.3-.6-.2-.2-.5-.2-.8-.2s-.5,0-.7.2-.2.3-.2.5.1.4.3.5c.2.1.6.2,1,.4.5.1.9.2,1.2.4.3.1.6.3.8.6.2.3.3.6.4,1.1,0,.4-.1.7-.3,1-.2.3-.5.5-.9.7-.4.2-.9.3-1.4.3s-1,0-1.5-.3Z"/>
      <path class="cls-14" d="M64.1,465.3c.4-.2.8-.3,1.3-.3s1.1.1,1.5.4c.5.3.8.7,1.1,1.2.3.5.4,1.1.4,1.8s-.1,1.3-.4,1.8c-.3.5-.6.9-1.1,1.2-.5.3-1,.4-1.5.4s-.9-.1-1.3-.3c-.4-.2-.7-.5-.9-.8v4.1h-1.7v-9.8h1.7v1c.2-.3.5-.6.9-.8ZM66.5,467.3c-.2-.3-.4-.5-.6-.7s-.6-.2-.9-.2-.6,0-.9.2c-.3.2-.5.4-.6.7-.2.3-.2.6-.2,1s0,.7.2,1,.4.5.6.7c.3.2.6.2.9.2s.6,0,.9-.2.5-.4.6-.7c.2-.3.2-.6.2-1.1s0-.7-.2-1Z"/>
      <path class="cls-14" d="M69.7,466.6c.3-.5.6-.9,1.1-1.2.5-.3,1-.4,1.5-.4s.9.1,1.3.3c.4.2.7.5.9.8v-.9h1.7v6.6h-1.7v-1c-.2.3-.5.6-.9.8-.4.2-.8.3-1.3.3s-1.1-.1-1.5-.4c-.5-.3-.8-.7-1.1-1.2-.3-.5-.4-1.1-.4-1.8s.1-1.3.4-1.8ZM74.2,467.3c-.2-.3-.4-.5-.6-.7-.3-.2-.6-.2-.9-.2s-.6,0-.9.2-.5.4-.6.7c-.2.3-.2.6-.2,1s0,.8.2,1c.2.3.4.5.6.7.3.2.6.2.9.2s.6,0,.9-.2c.3-.2.5-.4.6-.7s.2-.6.2-1.1,0-.8-.2-1Z"/>
      <path class="cls-14" d="M81.7,465.3c.4.2.7.5.9.8v-.9h1.7v6.7c0,.6-.1,1.2-.4,1.7s-.6.9-1.1,1.2c-.5.3-1.1.4-1.8.4s-1.7-.2-2.3-.7c-.6-.4-.9-1-1-1.8h1.7c0,.3.3.5.6.7.3.2.6.3,1.1.3s.9-.1,1.2-.4.5-.7.5-1.3v-1c-.2.3-.5.6-.9.8-.4.2-.8.3-1.3.3s-1.1-.1-1.5-.4c-.5-.3-.8-.7-1.1-1.2-.3-.5-.4-1.1-.4-1.8s.1-1.3.4-1.8c.3-.5.6-.9,1.1-1.2.5-.3,1-.4,1.5-.4s.9,0,1.3.3ZM82.4,467.3c-.2-.3-.4-.5-.6-.7-.3-.2-.6-.2-.9-.2s-.6,0-.9.2-.5.4-.6.7c-.2.3-.2.6-.2,1s0,.8.2,1c.2.3.4.5.6.7.3.2.6.2.9.2s.6,0,.9-.2c.3-.2.5-.4.6-.7s.2-.6.2-1.1,0-.8-.2-1Z"/>
      <path class="cls-14" d="M87.2,471.4c-.5-.3-.9-.7-1.2-1.2-.3-.5-.4-1.1-.4-1.8s.1-1.3.5-1.8c.3-.5.7-.9,1.2-1.2.5-.3,1.1-.4,1.7-.4s1.2.1,1.7.4c.5.3.9.7,1.2,1.2.3.5.5,1.1.5,1.8s-.2,1.3-.5,1.8c-.3.5-.7.9-1.2,1.2-.5.3-1.1.4-1.8.4s-1.2-.1-1.7-.4ZM89.8,470.1c.3-.1.5-.4.6-.7.2-.3.2-.7.2-1.1,0-.6-.2-1.1-.5-1.5-.3-.3-.7-.5-1.2-.5s-.9.2-1.2.5c-.3.3-.5.8-.5,1.5s.2,1.1.5,1.5c.3.3.7.5,1.2.5s.6,0,.9-.2Z"/>
      <path class="cls-14" d="M94.7,471.5c-.4-.2-.8-.5-1-.8s-.4-.7-.4-1.1h1.7c0,.3.2.5.4.6s.5.3.8.3.6,0,.8-.2c.2-.1.3-.3.3-.5s-.1-.4-.3-.5-.6-.2-1-.4c-.5-.1-.9-.2-1.2-.4-.3-.1-.6-.3-.8-.6-.2-.3-.3-.6-.3-1.1s.1-.7.3-1c.2-.3.5-.5.9-.7.4-.2.9-.3,1.4-.3.8,0,1.4.2,1.9.6.5.4.7.9.8,1.6h-1.6c0-.3-.1-.5-.3-.6-.2-.2-.5-.2-.8-.2s-.5,0-.7.2-.2.3-.2.5.1.4.3.5c.2.1.6.2,1,.4.5.1.9.2,1.2.4.3.1.6.3.8.6.2.3.3.6.4,1.1,0,.4-.1.7-.3,1-.2.3-.5.5-.9.7-.4.2-.9.3-1.4.3s-1,0-1.5-.3Z"/>
    </g>
    <g>
      <path class="cls-14" d="M42.4,542.2l-1.8-3.3h-.8v3.3h-1.7v-8.4h3.1c.6,0,1.2.1,1.7.3.5.2.8.5,1,.9.2.4.3.8.3,1.3s-.2,1-.5,1.5c-.3.4-.8.8-1.4.9l2,3.4h-1.9ZM39.7,537.6h1.4c.5,0,.8-.1,1-.3.2-.2.3-.5.3-.9s-.1-.7-.3-.9c-.2-.2-.6-.3-1-.3h-1.4v2.5Z"/>
      <path class="cls-14" d="M51.9,539.3h-4.9c0,.5.2.9.5,1.1.3.3.7.4,1.1.4.6,0,1.1-.3,1.3-.8h1.8c-.2.6-.6,1.2-1.1,1.6-.5.4-1.2.6-2,.6s-1.2-.1-1.7-.4c-.5-.3-.9-.7-1.2-1.2-.3-.5-.4-1.1-.4-1.8s.1-1.3.4-1.8c.3-.5.7-.9,1.2-1.2.5-.3,1.1-.4,1.7-.4s1.2.1,1.7.4c.5.3.9.7,1.2,1.2.3.5.4,1.1.4,1.7s0,.5,0,.6ZM50.2,538.2c0-.4-.2-.8-.5-1-.3-.3-.7-.4-1.1-.4s-.8.1-1,.4-.5.6-.5,1h3.2Z"/>
      <path class="cls-14" d="M53.1,537c.3-.5.7-.9,1.2-1.2.5-.3,1.1-.4,1.7-.4s1.5.2,2,.6c.5.4.9,1,1.1,1.7h-1.8c0-.3-.3-.5-.5-.7-.2-.2-.5-.2-.8-.2-.5,0-.9.2-1.1.5-.3.3-.4.8-.4,1.5s.1,1.1.4,1.5c.3.3.7.5,1.1.5.7,0,1.1-.3,1.3-.9h1.8c-.2.7-.5,1.3-1.1,1.7-.5.4-1.2.6-2,.6s-1.2-.1-1.7-.4c-.5-.3-.9-.7-1.2-1.2-.3-.5-.4-1.1-.4-1.8s.1-1.3.4-1.8Z"/>
      <path class="cls-14" d="M60.3,537c.3-.5.6-.9,1.1-1.2.5-.3,1-.4,1.5-.4s.9.1,1.3.3c.4.2.7.5.9.8v-.9h1.7v6.6h-1.7v-1c-.2.3-.5.6-.9.8-.4.2-.8.3-1.3.3s-1.1-.1-1.5-.4c-.5-.3-.8-.7-1.1-1.2-.3-.5-.4-1.1-.4-1.8s.1-1.3.4-1.8ZM64.9,537.8c-.2-.3-.4-.5-.6-.7-.3-.2-.6-.2-.9-.2s-.6,0-.9.2-.5.4-.6.7c-.2.3-.2.6-.2,1s0,.8.2,1c.2.3.4.5.6.7.3.2.6.2.9.2s.6,0,.9-.2c.3-.2.5-.4.6-.7s.2-.6.2-1.1,0-.8-.2-1Z"/>
      <path class="cls-14" d="M71,535.7c.3-.2.7-.3,1.2-.3v1.8h-.4c-.5,0-.9.1-1.2.4-.3.2-.4.7-.4,1.3v3.3h-1.7v-6.6h1.7v1c.2-.4.5-.6.8-.8Z"/>
      <path class="cls-14" d="M77.2,535.7c.4.2.7.5.9.8v-.9h1.7v6.7c0,.6-.1,1.2-.4,1.7s-.6.9-1.1,1.2c-.5.3-1.1.4-1.8.4s-1.7-.2-2.3-.7c-.6-.4-.9-1-1-1.8h1.7c0,.3.3.5.6.7.3.2.6.3,1.1.3s.9-.1,1.2-.4.5-.7.5-1.3v-1c-.2.3-.5.6-.9.8-.4.2-.8.3-1.3.3s-1.1-.1-1.5-.4c-.5-.3-.8-.7-1.1-1.2-.3-.5-.4-1.1-.4-1.8s.1-1.3.4-1.8c.3-.5.6-.9,1.1-1.2.5-.3,1-.4,1.5-.4s.9,0,1.3.3ZM77.9,537.8c-.2-.3-.4-.5-.6-.7-.3-.2-.6-.2-.9-.2s-.6,0-.9.2-.5.4-.6.7c-.2.3-.2.6-.2,1s0,.8.2,1c.2.3.4.5.6.7.3.2.6.2.9.2s.6,0,.9-.2c.3-.2.5-.4.6-.7s.2-.6.2-1.1,0-.8-.2-1Z"/>
      <path class="cls-14" d="M81.4,537c.3-.5.6-.9,1.1-1.2.5-.3,1-.4,1.5-.4s.9.1,1.3.3c.4.2.7.5.9.8v-.9h1.7v6.6h-1.7v-1c-.2.3-.5.6-.9.8-.4.2-.8.3-1.3.3s-1.1-.1-1.5-.4c-.5-.3-.8-.7-1.1-1.2-.3-.5-.4-1.1-.4-1.8s.1-1.3.4-1.8ZM86,537.8c-.2-.3-.4-.5-.6-.7-.3-.2-.6-.2-.9-.2s-.6,0-.9.2-.5.4-.6.7c-.2.3-.2.6-.2,1s0,.8.2,1c.2.3.4.5.6.7.3.2.6.2.9.2s.6,0,.9-.2c.3-.2.5-.4.6-.7s.2-.6.2-1.1,0-.8-.2-1Z"/>
      <path class="cls-14" d="M90.7,542c-.4-.2-.8-.5-1-.8s-.4-.7-.4-1.1h1.7c0,.3.2.5.4.6s.5.3.8.3.6,0,.8-.2c.2-.1.3-.3.3-.5s-.1-.4-.3-.5-.6-.2-1-.4c-.5-.1-.9-.2-1.2-.4-.3-.1-.6-.3-.8-.6-.2-.3-.3-.6-.3-1.1s.1-.7.3-1c.2-.3.5-.5.9-.7.4-.2.9-.3,1.4-.3.8,0,1.4.2,1.9.6.5.4.7.9.8,1.6h-1.6c0-.3-.1-.5-.3-.6-.2-.2-.5-.2-.8-.2s-.5,0-.7.2-.2.3-.2.5.1.4.3.5c.2.1.6.2,1,.4.5.1.9.2,1.2.4.3.1.6.3.8.6.2.3.3.6.4,1.1,0,.4-.1.7-.3,1-.2.3-.5.5-.9.7-.4.2-.9.3-1.4.3s-1,0-1.5-.3Z"/>
    </g>
  </g>
  <path class="cls-11" d="M237.3,0H40.7C18.4,0,.3,18,.3,40.3v500.4c0,22.3,18,40.3,40.3,40.3h196.7c22.3,0,40.3-18,40.3-40.3V40.3c0-22.3-18-40.3-40.3-40.3ZM8.7,40.3c0-17.7,14.3-32,32-32h20.2c2.4.8,4.1,3.1,4.1,5.8,0,8.5,6.9,15.4,15.4,15.4h116.6c8.5,0,15.4-6.9,15.4-15.4s1.7-5,4.1-5.8h20.9c17.7,0,32,14.3,32,32v500.4c0,17.7-14.3,32-32,32H40.7c-17.7,0-32-14.3-32-32V40.3Z"/>
  <g class="cls-21">
    <circle class="cls-13" cx="118" cy="16" r="3"/>
    <path class="cls-13" d="M128,13h32c1.7,0,3,1.3,3,3h0c0,1.7-1.3,3-3,3h-32c-1.7,0-3-1.3-3-3h0c0-1.7,1.3-3,3-3Z"/>
  </g>
</svg>