<?xml version="1.0" encoding="UTF-8"?>
<svg xmlns="http://www.w3.org/2000/svg" xmlns:xlink="http://www.w3.org/1999/xlink" version="1.1" viewBox="0 0 226 479">
  <defs>
    <style>
      .cls-1, .cls-2, .cls-3 {
        font-family: AllRoundGothic-Bold, 'All Round Gothic';
        font-weight: 700;
      }

      .cls-1, .cls-2, .cls-4, .cls-5 {
        fill: #fff;
      }

      .cls-1, .cls-3 {
        font-size: 9.6px;
      }

      .cls-6 {
        fill: url(#Degradado_sin_nombre_12);
      }

      .cls-6, .cls-7, .cls-8, .cls-9, .cls-10, .cls-11, .cls-12, .cls-4, .cls-5 {
        stroke-width: 0px;
      }

      .cls-7 {
        fill: url(#Degradado_sin_nombre_11);
      }

      .cls-8, .cls-13, .cls-14 {
        fill: none;
      }

      .cls-13 {
        stroke: url(#Degradado_sin_nombre_6-2);
      }

      .cls-13, .cls-14 {
        stroke-width: 2px;
      }

      .cls-13, .cls-14, .cls-15, .cls-5 {
        isolation: isolate;
      }

      .cls-13, .cls-14, .cls-5 {
        opacity: .4;
      }

      .cls-14 {
        stroke: url(#Degradado_sin_nombre_6);
      }

      .cls-9 {
        fill: url(#Degradado_sin_nombre);
        fill-rule: evenodd;
      }

      .cls-2 {
        font-size: 16.6px;
      }

      .cls-10 {
        fill: #dfdfe6;
      }

      .cls-3 {
        fill: #000;
      }

      .cls-11 {
        fill: url(#Degradado_sin_nombre_8);
      }

      .cls-16 {
        opacity: .3;
      }

      .cls-17 {
        opacity: .6;
      }

      .cls-12 {
        fill: #0d2b47;
      }

      .cls-18 {
        mix-blend-mode: multiply;
        opacity: .2;
      }
    </style>
    <linearGradient id="Degradado_sin_nombre_11" data-name="Degradado sin nombre 11" x1="137.8" y1="74.5" x2="84.3" y2="445.4" gradientTransform="translate(0 480) scale(1 -1)" gradientUnits="userSpaceOnUse">
      <stop offset="0" stop-color="#131927"/>
      <stop offset="1" stop-color="#0d2c28"/>
    </linearGradient>
    <linearGradient id="Degradado_sin_nombre_6" data-name="Degradado sin nombre 6" x1="-5.1" y1="209.8" x2="219.6" y2="173" gradientTransform="translate(0 480) scale(1 -1)" gradientUnits="userSpaceOnUse">
      <stop offset="0" stop-color="#00a5f0" stop-opacity="0"/>
      <stop offset="1" stop-color="#00d7d7"/>
    </linearGradient>
    <linearGradient id="Degradado_sin_nombre_6-2" data-name="Degradado sin nombre 6" x1="21.4" y1="206.1" x2="192.1" y2="178.1" xlink:href="#Degradado_sin_nombre_6"/>
    <linearGradient id="Degradado_sin_nombre_12" data-name="Degradado sin nombre 12" x1="45.8" y1="404.5" x2="181.8" y2="404.5" gradientUnits="userSpaceOnUse">
      <stop offset="0" stop-color="#00e977"/>
      <stop offset="1" stop-color="#02fb7e"/>
    </linearGradient>
    <linearGradient id="Degradado_sin_nombre" data-name="Degradado sin nombre" x1="197.4" y1="494.8" x2="36.3" y2="16.3" gradientTransform="translate(0 480) scale(1 -1)" gradientUnits="userSpaceOnUse">
      <stop offset="0" stop-color="#f7f7fb"/>
      <stop offset="1" stop-color="#e7e7e7"/>
    </linearGradient>
    <linearGradient id="Degradado_sin_nombre_8" data-name="Degradado sin nombre 8" x1="93.3" y1="53.6" x2="93.3" y2="68.3" gradientUnits="userSpaceOnUse">
      <stop offset="0" stop-color="#00e977"/>
      <stop offset="1" stop-color="#02fb7e"/>
    </linearGradient>
  </defs>
  <g class="cls-15">
    <g id="Capa_1" data-name="Capa 1">
      <g>
        <rect class="cls-7" x="6" y="4.6" width="215.1" height="465.8" rx="24" ry="24"/>
        <path class="cls-14" d="M215.5,287.9c0,62.1-50.3,112.4-112.4,112.4S-9.3,350-9.3,287.9c0-62.1,50.3-112.4,112.4-112.4s112.4,50.3,112.4,112.4Z"/>
        <path class="cls-13" d="M188.8,287.4c0,47-38.1,85.2-85.2,85.2s-85.2-38.1-85.2-85.2,38.1-85.2,85.2-85.2,85.2,38.1,85.2,85.2Z"/>
        <g class="cls-18">
          <g class="cls-16">
            <path class="cls-12" d="M26.1,334.3l21.6-87.5c.6-2.3,2.8-3.8,5.2-3.4l146.1,23.4c2.6.4,4.3,2.9,3.8,5.4l-18.4,90.6c-.5,2.4-2.8,4-5.3,3.6l-149.2-26.4c-2.6-.5-4.3-3-3.7-5.6Z"/>
          </g>
          <path class="cls-12" d="M31.9,318.9l19.5-79.1c.6-2.3,2.8-3.8,5.2-3.4l132.4,21.2c2.6.4,4.3,2.9,3.8,5.4l-16.6,81.9c-.5,2.4-2.8,4-5.3,3.6l-135.2-24c-2.6-.5-4.3-3-3.7-5.6Z"/>
        </g>
        <path class="cls-8" d="M24.5,308.4l21.1-85.5c.6-2.3,2.8-3.8,5.2-3.4l142.8,22.8c2.6.4,4.3,2.9,3.8,5.4l-18,88.5c-.5,2.4-2.8,4-5.3,3.6l-145.9-25.8c-2.6-.5-4.3-3-3.7-5.6Z"/>
        <path class="cls-4" d="M100.1,362.3h4.5c.8,0,1.5.7,1.5,1.5h0c0,.8-.7,1.5-1.5,1.5h-4.5c-.8,0-1.5-.7-1.5-1.5h0c0-.8.7-1.5,1.5-1.5Z"/>
        <path class="cls-5" d="M111.4,362.3h.7c.8,0,1.5.7,1.5,1.5h0c0,.8-.7,1.5-1.5,1.5h-.7c-.8,0-1.5-.7-1.5-1.5h0c0-.8.7-1.5,1.5-1.5Z"/>
        <path class="cls-5" d="M119,362.3h.7c.8,0,1.5.7,1.5,1.5h0c0,.8-.7,1.5-1.5,1.5h-.7c-.8,0-1.5-.7-1.5-1.5h0c0-.8.7-1.5,1.5-1.5Z"/>
        <path class="cls-5" d="M126.6,362.3h.7c.8,0,1.5.7,1.5,1.5h0c0,.8-.7,1.5-1.5,1.5h-.7c-.8,0-1.5-.7-1.5-1.5h0c0-.8.7-1.5,1.5-1.5Z"/>
        <path class="cls-6" d="M59.7,390.5h108.2c7.7,0,14,6.2,14,14h0c0,7.7-6.2,14-14,14H59.7c-7.7,0-14-6.2-14-14h0c0-7.7,6.2-14,14-14Z"/>
      </g>
      <path class="cls-9" d="M192.8,0H33.2C15.1,0,.5,14.7.5,32.7v406.2c0,18.1,14.7,32.7,32.7,32.7h159.7c18.1,0,32.7-14.7,32.7-32.7V32.7c0-18.1-14.7-32.7-32.7-32.7ZM7.2,32.7c0-14.3,11.6-26,26-26h16.4c1.9.7,3.3,2.5,3.3,4.7,0,6.9,5.6,12.5,12.5,12.5h94.6c6.9,0,12.5-5.6,12.5-12.5s1.4-4,3.3-4.7h17c14.3,0,26,11.6,26,26v406.2c0,14.3-11.6,26-26,26H33.2c-14.3,0-26-11.6-26-26V32.7Z"/>
      <g class="cls-17">
        <circle class="cls-10" cx="99" cy="13.1" r="2"/>
        <path class="cls-10" d="M105.7,11.1h21.3c1.1,0,2,.9,2,2h0c0,1.1-.9,2-2,2h-21.3c-1.1,0-2-.9-2-2h0c0-1.1.9-2,2-2Z"/>
      </g>
      <text class="cls-2" transform="translate(44.5 106.9)"><tspan x="0" y="0">Un cajero virtual</tspan><tspan x="4.3" y="20">que no te cobra</tspan><tspan x="45.7" y="39.9">más...</tspan></text>
      <text class="cls-2" transform="translate(34.9 183.3)"><tspan x="0" y="0">¡Ahora con tarjeta!</tspan></text>
      <text class="cls-1" transform="translate(82.2 436.4)"><tspan x="0" y="0">Iniciar sesión</tspan></text>
      <text class="cls-3" transform="translate(66.4 407.3)"><tspan x="0" y="0">Quiero Registrarme</tspan></text>
      <g>
        <g>
          <path class="cls-4" d="M60.6,62.1c0-3.5,2.6-6.1,6.2-6.1s5.5,2,6,4.8h-3.6c-.4-1-1.3-1.6-2.5-1.6s-2.7,1.1-2.7,2.8,1.1,2.8,2.7,2.8,2.1-.6,2.5-1.6h3.6c-.5,2.9-2.8,4.8-6,4.8s-6.2-2.6-6.2-6.1Z"/>
          <path class="cls-4" d="M74.1,62.2c0-3.7,2.6-6.2,6.2-6.2s6.1,2.4,6.1,6.2v6h-3.2v-2.2c-.6,1.4-1.9,2.2-3.6,2.2-2.6,0-5.6-1.9-5.6-5.9ZM83,62.1c0-1.7-1.1-2.8-2.7-2.8s-2.7,1.1-2.7,2.8,1.1,2.8,2.7,2.8,2.7-1.1,2.7-2.8Z"/>
          <path class="cls-4" d="M99.6,62.1c0-3.5,2.6-6.1,6.2-6.1s6.1,2.6,6.1,6.1v1h-8.7c.3,1.4,1.3,2,2.6,2s1.8-.2,2.2-.8h3.6c-.7,2.4-2.9,4-5.8,4s-6.2-2.6-6.2-6.1ZM108.3,60.9c-.4-1.2-1.3-1.7-2.5-1.7s-2.1.5-2.5,1.7h5Z"/>
          <path class="cls-4" d="M113.8,61.9c0-3.9,2.3-5.9,5.7-5.9s5.7,2,5.7,5.9v6.3h-3.5v-6.3c0-1.8-.9-2.6-2.2-2.6s-2.2.8-2.2,2.6v6.3h-3.5v-6.3Z"/>
          <path class="cls-4" d="M127,62.2c0-3.7,2.6-6.2,6.2-6.2s6.1,2.4,6.1,6.2v6h-3.2v-2.2c-.6,1.4-1.9,2.2-3.6,2.2-2.6,0-5.6-1.9-5.6-5.9ZM135.9,62.1c0-1.7-1.1-2.8-2.7-2.8s-2.7,1.1-2.7,2.8,1.1,2.8,2.7,2.8,2.7-1.1,2.7-2.8Z"/>
          <path class="cls-4" d="M141.7,61.3c0-3.6,2.1-5.3,5.2-5.3s5.2,1.7,5.2,5.3h0c0,0-3.5,0-3.5,0h0c0-1.6-.7-2.1-1.7-2.1s-1.7.5-1.7,2v6.9h-3.5v-6.9Z"/>
          <path class="cls-4" d="M153,62.1c0-3.5,2.6-6.1,6.2-6.1s6.2,2.6,6.2,6.1-2.6,6.1-6.2,6.1-6.2-2.6-6.2-6.1ZM161.9,62.1c0-1.7-1.1-2.8-2.7-2.8s-2.7,1.1-2.7,2.8,1.1,2.8,2.7,2.8,2.7-1.1,2.7-2.8Z"/>
        </g>
        <path class="cls-11" d="M94.8,68c-.1,0-.2.2-.2.4,0,.3.1.7.1,1,0,.8-.5,1.2-1.4,1.2s-1.4-.5-1.4-1.2.1-.7.1-1,0-.3-.2-.3c-3.1-.3-3.9-1.7-3.9-2.8s.6-1.9,2.1-1.9,1.2.7,1.2,1.1c0,1.1.5,1.4,1.8,1.4s1.9-.3,1.9-1.3-.2-1-1.3-1.2c-2.4-.3-5.3-.8-5.3-3.8s1-3,3.4-3.4c.1,0,.2-.2.2-.3,0-.3-.1-.7-.1-1,0-.8.5-1.2,1.4-1.2s1.4.5,1.4,1.2-.1.7-.1,1,0,.3.2.4c2.8.4,3.3,2,3.3,2.7s-.7,1.7-1.9,1.7-1.2-.6-1.2-1c0-.8-.2-1.5-1.7-1.5s-1.6.4-1.6,1.2.7,1.2,1.9,1.3c2.3.3,5,.9,5,3.7s-1,3.2-3.7,3.7Z"/>
      </g>
      <image width="435" height="303" transform="translate(35.8 237.5) scale(.4)" xlink:href="card-neon-front.png"/>
    </g>
  </g>
</svg>