<?xml version="1.0" encoding="UTF-8"?>
<svg id="Capa_1" data-name="Capa 1" xmlns="http://www.w3.org/2000/svg" xmlns:xlink="http://www.w3.org/1999/xlink" version="1.1" viewBox="0 0 226 479">
  <defs>
    <style>
      .cls-1 {
        font-size: 12.5px;
      }

      .cls-1, .cls-2, .cls-3 {
        font-family: AllRoundGothic-Bold, 'All Round Gothic';
        font-weight: 700;
      }

      .cls-1, .cls-4, .cls-5, .cls-6, .cls-7 {
        isolation: isolate;
      }

      .cls-1, .cls-8, .cls-9 {
        fill: #fff;
      }

      .cls-10 {
        font-size: 12.2px;
      }

      .cls-10, .cls-11 {
        font-family: AllRoundGothic-Medium, 'All Round Gothic';
        font-weight: 500;
      }

      .cls-10, .cls-12 {
        fill: #855b35;
      }

      .cls-4 {
        fill: #0070ea;
        font-size: 9.3px;
      }

      .cls-12, .cls-13, .cls-14, .cls-15, .cls-16, .cls-17, .cls-18, .cls-19, .cls-5, .cls-20, .cls-8, .cls-21, .cls-22, .cls-23, .cls-24, .cls-25, .cls-26, .cls-27, .cls-28, .cls-9 {
        stroke-width: 0px;
      }

      .cls-13 {
        fill: url(#Degradado_sin_nombre);
      }

      .cls-13, .cls-16, .cls-8 {
        fill-rule: evenodd;
      }

      .cls-14 {
        fill: #6a6a6a;
      }

      .cls-15 {
        fill: #dfdfe6;
      }

      .cls-16, .cls-18 {
        fill: #fbf9be;
      }

      .cls-3 {
        fill: #00ea77;
        font-size: 9.9px;
      }

      .cls-17 {
        fill: url(#Degradado_sin_nombre_8);
      }

      .cls-29, .cls-5 {
        opacity: .6;
      }

      .cls-19 {
        fill: #616161;
      }

      .cls-5 {
        fill: url(#Degradado_sin_nombre_4);
      }

      .cls-20 {
        fill: #01bde4;
      }

      .cls-21 {
        fill: url(#Degradado_sin_nombre_8-6);
      }

      .cls-22 {
        fill: url(#Degradado_sin_nombre_8-5);
      }

      .cls-23 {
        fill: url(#Degradado_sin_nombre_8-4);
      }

      .cls-24 {
        fill: url(#Degradado_sin_nombre_8-3);
      }

      .cls-25 {
        fill: url(#Degradado_sin_nombre_8-2);
      }

      .cls-26 {
        fill: url(#Degradado_sin_nombre_8-8);
      }

      .cls-27 {
        fill: url(#Degradado_sin_nombre_8-7);
      }

      .cls-28 {
        fill: url(#Degradado_sin_nombre_8-9);
      }

      .cls-7 {
        fill: none;
        opacity: .3;
        stroke: #855b35;
        stroke-width: .8px;
      }
    </style>
    <linearGradient id="Degradado_sin_nombre_8" data-name="Degradado sin nombre 8" x1="137.1" y1="75.5" x2="83.9" y2="444.8" gradientTransform="translate(0 480) scale(1 -1)" gradientUnits="userSpaceOnUse">
      <stop offset="0" stop-color="#131927"/>
      <stop offset="1" stop-color="#0d2c28"/>
    </linearGradient>
    <linearGradient id="Degradado_sin_nombre_4" data-name="Degradado sin nombre 4" x1="112.7" y1="143.6" x2="112.8" y2="87.8" gradientTransform="translate(0 480) scale(1 -1)" gradientUnits="userSpaceOnUse">
      <stop offset="0" stop-color="#ccb579" stop-opacity="0"/>
      <stop offset="1" stop-color="#ccb579"/>
    </linearGradient>
    <linearGradient id="Degradado_sin_nombre_8-2" data-name="Degradado sin nombre 8" x1="59.5" y1="108.6" x2="71.9" y2="108.6" gradientTransform="matrix(1,0,0,1,0,0)" xlink:href="#Degradado_sin_nombre_8"/>
    <linearGradient id="Degradado_sin_nombre_8-3" data-name="Degradado sin nombre 8" x1="73.1" y1="108.7" x2="85.7" y2="108.7" gradientTransform="matrix(1,0,0,1,0,0)" xlink:href="#Degradado_sin_nombre_8"/>
    <linearGradient id="Degradado_sin_nombre_8-4" data-name="Degradado sin nombre 8" x1="99.1" y1="108.7" x2="111.5" y2="108.7" gradientTransform="matrix(1,0,0,1,0,0)" xlink:href="#Degradado_sin_nombre_8"/>
    <linearGradient id="Degradado_sin_nombre_8-5" data-name="Degradado sin nombre 8" x1="113.5" y1="108.7" x2="125" y2="108.7" gradientTransform="matrix(1,0,0,1,0,0)" xlink:href="#Degradado_sin_nombre_8"/>
    <linearGradient id="Degradado_sin_nombre_8-6" data-name="Degradado sin nombre 8" x1="126.7" y1="108.7" x2="139.3" y2="108.7" gradientTransform="matrix(1,0,0,1,0,0)" xlink:href="#Degradado_sin_nombre_8"/>
    <linearGradient id="Degradado_sin_nombre_8-7" data-name="Degradado sin nombre 8" x1="141.7" y1="108.6" x2="152.3" y2="108.6" gradientTransform="matrix(1,0,0,1,0,0)" xlink:href="#Degradado_sin_nombre_8"/>
    <linearGradient id="Degradado_sin_nombre_8-8" data-name="Degradado sin nombre 8" x1="153.2" y1="108.7" x2="165.7" y2="108.7" gradientTransform="matrix(1,0,0,1,0,0)" xlink:href="#Degradado_sin_nombre_8"/>
    <linearGradient id="Degradado_sin_nombre_8-9" data-name="Degradado sin nombre 8" x1="92.6" y1="379.9" x2="92.6" y2="365" xlink:href="#Degradado_sin_nombre_8"/>
    <linearGradient id="Degradado_sin_nombre" data-name="Degradado sin nombre" x1="197" y1="494.2" x2="35.8" y2="15.7" gradientTransform="translate(0 480) scale(1 -1)" gradientUnits="userSpaceOnUse">
      <stop offset="0" stop-color="#f7f7fb"/>
      <stop offset="1" stop-color="#e7e7e7"/>
    </linearGradient>
  </defs>
  <g>
    <rect class="cls-17" x="5.9" y="5.3" width="214.2" height="463.8" rx="23.7" ry="23.7"/>
    <path class="cls-16" d="M60.1,80.3c.1.3.5.3.7,0l2.8-5.8h.3l2.8,5.8c.1.3.5.3.7,0l2.8-5.8h.3l2.8,5.8c.1.3.5.3.7,0l2.8-5.8h.3l2.8,5.8c.1.3.5.3.7,0l2.8-5.8h.3l2.8,5.8c.1.3.5.3.7,0l2.8-5.8h.3l2.8,5.8c.1.3.5.3.7,0l2.8-5.8h.3l2.8,5.8c.1.3.5.3.7,0l2.8-5.8h.3l2.8,5.8c.1.3.5.3.7,0l2.8-5.8h.3l2.8,5.8c.1.3.5.3.7,0l2.8-5.8h.3l2.8,5.8c.1.3.6.3.7,0l2.8-5.8h.3l2.8,5.8c.1.3.5.3.7,0l2.8-5.8h.3l2.8,5.8c.1.3.6.3.7,0l2.8-5.8h.3l2.8,5.8c.1.3.5.3.7,0l2.8-5.8h.3l2.8,5.8c.1.3.6.3.7,0l2.8-5.8h.3l2.8,5.8c.1.3.5.3.7,0l2.8-5.8h.3l2.8,5.8c.1.3.6.3.7,0l2.8-5.8h.3l2.8,5.8c.1.3.5.3.7,0l2.8-5.8h.3l2.8,5.8c.1.3.5.3.7,0l2.8-5.8h.3l2.8,5.8c.1.3.5.3.7,0l2.8-5.8h.3l2.8,5.8c.1.3.5.3.7,0l2.8-5.8h.3l2.8,5.8c.1.3.6.3.7,0l2.8-5.8h.3l2.8,5.8c.1.3.5.3.7,0l2.8-5.8h.4v305.4H24.2V74.4h.5l2.8,5.8c.1.3.5.3.7,0l2.8-5.8h.3l2.8,5.8c.1.3.5.3.7,0l2.8-5.8h.3l2.8,5.8c.1.3.5.3.7,0l2.8-5.8h.3l2.8,5.8c.1.3.5.3.7,0l2.8-5.8h.3l2.8,5.8c.1.3.5.3.7,0l2.8-5.8h.3l2.8,5.8Z"/>
    <rect class="cls-5" x="24.2" y="336.4" width="177.1" height="38.1"/>
    <path class="cls-14" d="M14.7,363.1h196.1v19.8c0,1.7-1.4,3-3,3H17.7c-1.7,0-3-1.4-3-3v-19.8Z"/>
    <path class="cls-19" d="M24.2,363.1h-9.5l9.5-5v5Z"/>
    <path class="cls-19" d="M201.2,363.1h9.5l-9.5-5v5Z"/>
    <path class="cls-8" d="M29.2,48.8l-4.6,4.6.8.8,4.6-4.6,4.6,4.6.8-.8-4.6-4.6,4.6-4.6-.8-.8-4.6,4.6-4.6-4.6-.8.8,4.6,4.6Z"/>
    <path class="cls-9" d="M58.6,416.2h107.7c7.7,0,13.9,6.2,13.9,13.9h0c0,7.7-6.2,13.9-13.9,13.9H58.6c-7.7,0-13.9-6.2-13.9-13.9h0c0-7.7,6.2-13.9,13.9-13.9Z"/>
    <path class="cls-7" d="M37.5,149.1h149.6"/>
    <path class="cls-7" d="M37.5,252.6h149.6"/>
    <path class="cls-12" d="M79.5,176.3h2c1.6,0,2.7-1,2.7-2.5s-1.1-2.5-2.7-2.5h-2v5.1ZM80.6,175.4v-3.2h.9c1,0,1.6.7,1.6,1.6s-.6,1.6-1.6,1.6h-.9ZM85,176.3h3.6v-.9h-2.5v-1.2h2.5v-.9h-2.5v-1.1h2.5v-.9h-3.6v5.1ZM91.1,173.8c0,1.6,1.2,2.6,2.7,2.6s1.6-.4,2.2-1v-1.9h-2.4v.9h1.4v.6c-.2.2-.6.4-1.1.4-.9,0-1.6-.7-1.6-1.7s.7-1.7,1.6-1.7,1,.3,1.2.6l.9-.5c-.4-.6-1.1-1.1-2.1-1.1s-2.7,1-2.7,2.6ZM96.9,176.3h1.1v-5.1h-1.1v5.1ZM98.9,176.3h3.2v-1h-2.1v-4.1h-1.1v5.1ZM102.9,176.3h2.8c1,0,1.5-.6,1.5-1.4s-.4-1.2-1-1.2c.5,0,.9-.5.9-1.2s-.5-1.3-1.5-1.3h-2.7v5.1ZM104,173.3v-1.1h1.4c.4,0,.6.2.6.6s-.2.6-.6.6h-1.4ZM104,175.4v-1.2h1.4c.4,0,.7.3.7.6s-.2.6-.7.6h-1.4ZM108,176.3h3.6v-.9h-2.5v-1.2h2.5v-.9h-2.5v-1.1h2.5v-.9h-3.6v5.1ZM115.3,176.3h1.2l-1.1-1.9c.5-.1,1.1-.6,1.1-1.5s-.6-1.6-1.7-1.6h-2.4v5.1h1.1v-1.8h.8l1,1.8ZM115.4,172.9c0,.4-.3.7-.8.7h-1.1v-1.4h1.1c.4,0,.8.3.8.7ZM118.4,176.3h1.1v-4.1h1.5v-1h-4.1v1h1.5v4.1ZM121.2,173.8c0,1.5,1.1,2.6,2.6,2.6s2.7-1.1,2.7-2.6-1.1-2.6-2.7-2.6-2.6,1.1-2.6,2.6ZM125.4,173.8c0,.9-.6,1.7-1.5,1.7s-1.5-.7-1.5-1.7.6-1.7,1.5-1.7,1.5.7,1.5,1.7ZM129.3,176.3h1.1v-1.8h1.3c1.1,0,1.7-.7,1.7-1.6s-.6-1.6-1.7-1.6h-2.4v5.1ZM132.2,172.9c0,.4-.3.7-.7.7h-1.2v-1.4h1.2c.4,0,.7.3.7.7ZM136.9,176.3h1.2l-1.1-1.9c.5-.1,1.1-.6,1.1-1.5s-.6-1.6-1.7-1.6h-2.4v5.1h1.1v-1.8h.8l1,1.8ZM137,172.9c0,.4-.3.7-.8.7h-1.1v-1.4h1.1c.4,0,.8.3.8.7ZM142.5,176.3h1.2l-2-5.1h-1.4l-2,5.1h1.2l.3-.9h2.3l.3.9ZM141,172.2l.8,2.3h-1.7l.8-2.3ZM144.1,176.3h2c1.6,0,2.7-1,2.7-2.5s-1.1-2.5-2.7-2.5h-2v5.1ZM145.2,175.4v-3.2h.9c1,0,1.6.7,1.6,1.6s-.6,1.6-1.6,1.6h-.9ZM149.3,173.8c0,1.5,1.1,2.6,2.7,2.6s2.7-1.1,2.7-2.6-1.1-2.6-2.7-2.6-2.7,1.1-2.7,2.6ZM153.5,173.8c0,.9-.6,1.7-1.5,1.7s-1.5-.7-1.5-1.7.6-1.7,1.5-1.7,1.5.7,1.5,1.7Z"/>
    <path class="cls-12" d="M79.5,279.9h1.1v-1.8h1.3c1.1,0,1.7-.7,1.7-1.6s-.6-1.6-1.7-1.6h-2.4v5.1ZM82.5,276.5c0,.4-.3.7-.7.7h-1.1v-1.4h1.1c.4,0,.7.3.7.7ZM87.3,279.9h1.2l-2-5.1h-1.4l-2,5.1h1.2l.3-.9h2.3l.3.9ZM85.8,275.8l.8,2.3h-1.7l.8-2.3ZM91.8,279.9h1.2l-1.1-1.9c.5-.1,1.1-.6,1.1-1.5s-.6-1.6-1.7-1.6h-2.4v5.1h1.1v-1.8h.8l1,1.8ZM91.9,276.5c0,.4-.3.7-.8.7h-1.1v-1.4h1.1c.4,0,.8.3.8.7ZM97.4,279.9h1.2l-2-5.1h-1.4l-2,5.1h1.2l.3-.9h2.3l.3.9ZM95.9,275.8l.8,2.3h-1.7l.8-2.3ZM103.4,280c1.2,0,1.8-.6,2.2-1.2l-.9-.4c-.2.4-.7.7-1.2.7-.9,0-1.6-.7-1.6-1.7s.7-1.7,1.6-1.7,1,.3,1.2.7l.9-.5c-.4-.6-1-1.2-2.2-1.2s-2.7,1.1-2.7,2.6,1.2,2.6,2.7,2.6ZM109.7,279.9h1.2l-2-5.1h-1.4l-2,5.1h1.2l.3-.9h2.3l.3.9ZM108.2,275.8l.8,2.3h-1.7l.8-2.3ZM114.2,279.9h1.2l-1.1-1.9c.5-.1,1.1-.6,1.1-1.5s-.6-1.6-1.7-1.6h-2.4v5.1h1.1v-1.8h.8l1,1.8ZM114.3,276.5c0,.4-.3.7-.8.7h-1.1v-1.4h1.1c.4,0,.8.3.8.7ZM116,277.4c0,1.5,1.1,2.6,2.6,2.6s2.7-1.1,2.7-2.6-1.1-2.6-2.7-2.6-2.6,1.1-2.6,2.6ZM120.2,277.4c0,.9-.6,1.7-1.5,1.7s-1.5-.7-1.5-1.7.6-1.7,1.5-1.7,1.5.7,1.5,1.7ZM122.1,279.9h3.2v-1h-2.1v-4.1h-1.1v5.1ZM131.6,279.9h1.2l-2-5.1h-1.4l-2,5.1h1.2l.3-.9h2.3l.3.9ZM130.1,275.8l.8,2.3h-1.7l.8-2.3ZM136.1,279.9h1.2l-1.1-1.9c.5-.1,1.1-.6,1.1-1.5s-.6-1.6-1.7-1.6h-2.4v5.1h1.1v-1.8h.8l1,1.8ZM136.2,276.5c0,.4-.3.7-.8.7h-1.1v-1.4h1.1c.4,0,.8.3.8.7ZM141.6,279.9h1.2l-2-5.1h-1.4l-2,5.1h1.2l.3-.9h2.3l.3.9ZM140.2,275.8l.8,2.3h-1.7l.8-2.3ZM145.6,274.4l1.2-1.1h-.9l-1,1.1h.7ZM143,277.9c0,1.2.7,2.1,2.3,2.1s2.3-.9,2.3-2.1v-3h-1.1v3c0,.7-.4,1.2-1.2,1.2s-1.2-.5-1.2-1.2v-3h-1.1v3.1ZM147.9,279.5c.4.4.9.5,1.4.5,1,0,1.8-.6,1.8-1.8v-3.4h-1.1v3.4c0,.5-.3.8-.8.8s-.6-.2-.8-.4l-.5.8ZM151.8,277.4c0,1.5,1.1,2.6,2.6,2.6s2.7-1.1,2.7-2.6-1.1-2.6-2.7-2.6-2.6,1.1-2.6,2.6ZM156,277.4c0,.9-.6,1.7-1.5,1.7s-1.5-.7-1.5-1.7.6-1.7,1.5-1.7,1.5.7,1.5,1.7Z"/>
    <circle class="cls-20" cx="48.2" cy="173.1" r="10.7"/>
    <path class="cls-18" d="M44.4,173.1l.8.8,2.4-2.4v5.4h1.1v-5.4l2.4,2.4.8-.8-3.8-3.8-3.8,3.8Z"/>
    <circle class="cls-20" cx="48.2" cy="276.6" r="10.7"/>
    <path class="cls-18" d="M52,276.6l-.8-.8-2.4,2.4v-5.4h-1.1v5.4l-2.4-2.4-.8.8,3.8,3.8,3.8-3.8Z"/>
    <g class="cls-6">
      <text class="cls-1" transform="translate(69.7 57.3)"><tspan x="0" y="0">Comprobante</tspan></text>
    </g>
    <g class="cls-6">
      <text class="cls-4" transform="translate(58.6 135.2)"><tspan class="cls-11" x="0" y="0">Comprobante -</tspan><tspan class="cls-2" x="68.3" y="0" xml:space="preserve"> 20294910</tspan></text>
    </g>
    <text class="cls-3" transform="translate(55 433)"><tspan x="0" y="0">compartir comprobante</tspan></text>
    <g>
      <g>
        <path class="cls-25" d="M59.5,108.7c0-3.5,2.6-6.2,6.3-6.2s5.6,2,6.1,4.9h-3.6c-.4-1-1.3-1.6-2.5-1.6s-2.7,1.1-2.7,2.8,1.1,2.8,2.7,2.8,2.1-.6,2.5-1.6h3.6c-.5,2.9-2.8,4.9-6.1,4.9s-6.3-2.6-6.3-6.2v.2Z"/>
        <path class="cls-24" d="M73.2,108.8c0-3.7,2.6-6.3,6.3-6.3s6.2,2.4,6.2,6.3v6.1h-3.2v-2.2c-.6,1.4-1.9,2.2-3.6,2.2-2.6,0-5.7-1.9-5.7-6h.1ZM82.2,108.7c0-1.7-1.1-2.8-2.7-2.8s-2.7,1.1-2.7,2.8,1.1,2.8,2.7,2.8,2.7-1.1,2.7-2.8Z"/>
        <path class="cls-23" d="M99.1,108.7c0-3.5,2.6-6.2,6.3-6.2s6.2,2.6,6.2,6.2v1h-8.8c.3,1.4,1.3,2,2.6,2s1.8-.2,2.2-.8h3.6c-.7,2.4-2.9,4.1-5.9,4.1s-6.3-2.6-6.3-6.2h0ZM107.9,107.5c-.4-1.2-1.3-1.7-2.5-1.7s-2.1.5-2.5,1.7h5.1Z"/>
        <path class="cls-22" d="M113.5,108.5c0-4,2.3-6,5.8-6s5.8,2,5.8,6v6.4h-3.5v-6.4c0-1.8-.9-2.6-2.2-2.6s-2.2.8-2.2,2.6v6.4h-3.5v-6.4Z"/>
        <path class="cls-21" d="M126.8,108.8c0-3.7,2.6-6.3,6.3-6.3s6.2,2.4,6.2,6.3v6.1h-3.2v-2.2c-.6,1.4-1.9,2.2-3.6,2.2-2.6,0-5.7-1.9-5.7-6h.1ZM135.9,108.7c0-1.7-1.1-2.8-2.7-2.8s-2.7,1.1-2.7,2.8,1.1,2.8,2.7,2.8,2.7-1.1,2.7-2.8Z"/>
        <path class="cls-27" d="M141.7,107.9c0-3.6,2.1-5.4,5.3-5.4s5.3,1.7,5.3,5.4h-3.5c0-1.6-.7-2.1-1.7-2.1s-1.7.5-1.7,2v7h-3.5v-7h0Z"/>
        <path class="cls-26" d="M153.2,108.7c0-3.5,2.6-6.2,6.3-6.2s6.3,2.6,6.3,6.2-2.6,6.2-6.3,6.2-6.3-2.6-6.3-6.2ZM162.2,108.7c0-1.7-1.1-2.8-2.7-2.8s-2.7,1.1-2.7,2.8,1.1,2.8,2.7,2.8,2.7-1.1,2.7-2.8Z"/>
      </g>
      <path class="cls-28" d="M94.2,114.7c-.1,0-.2.2-.2.4,0,.3.1.7.1,1,0,.8-.5,1.2-1.4,1.2s-1.4-.5-1.4-1.2.1-.7.1-1,0-.3-.2-.3c-3.1-.3-4-1.7-4-2.8s.6-1.9,2.1-1.9,1.2.7,1.2,1.1c0,1.1.5,1.4,1.8,1.4s1.9-.3,1.9-1.3-.2-1-1.3-1.2c-2.4-.3-5.4-.8-5.4-3.9s1-3,3.4-3.4c.1,0,.2-.2.2-.3,0-.3-.1-.7-.1-1,0-.8.5-1.2,1.4-1.2s1.4.5,1.4,1.2-.1.7-.1,1,0,.3.2.4c2.8.4,3.3,2,3.3,2.7s-.7,1.7-1.9,1.7-1.2-.6-1.2-1c0-.8-.2-1.5-1.7-1.5s-1.6.4-1.6,1.2.7,1.2,1.9,1.3c2.3.3,5.1.9,5.1,3.7s-1,3.2-3.7,3.7h0Z"/>
    </g>
    <text class="cls-10" transform="translate(48.2 200.3)"><tspan x="0" y="0">Nro. Cta....... 1090239234</tspan></text>
    <text class="cls-10" transform="translate(48.2 212.4)"><tspan x="0" y="0">Retiro........... 1090239234</tspan></text>
    <text class="cls-10" transform="translate(48.2 223.9)"><tspan x="0" y="0">Nro. Cta....... 1090239234</tspan></text>
    <text class="cls-10" transform="translate(48.2 236.1)"><tspan x="0" y="0">Retiro........... 1090239234</tspan></text>
    <text class="cls-10" transform="translate(48.2 307.3)"><tspan x="0" y="0">Nro. Cta....... 1090239234</tspan></text>
    <text class="cls-10" transform="translate(48.2 319.4)"><tspan x="0" y="0">Retiro........... 1090239234</tspan></text>
    <text class="cls-10" transform="translate(48.2 330.9)"><tspan x="0" y="0">Nro. Cta....... 1090239234</tspan></text>
    <text class="cls-10" transform="translate(48.2 343.1)"><tspan x="0" y="0">Retiro........... 1090239234</tspan></text>
  </g>
  <path class="cls-13" d="M192.4.6H32.7C14.7.6,0,15.2,0,33.3v406.2c0,18.1,14.7,32.7,32.7,32.7h159.7c18.1,0,32.7-14.7,32.7-32.7V33.3c0-18.1-14.6-32.7-32.7-32.7ZM6.8,33.3c0-14.3,11.6-26,26-26h16.4c1.9.7,3.3,2.5,3.3,4.7,0,6.9,5.6,12.5,12.5,12.5h94.6c6.9,0,12.5-5.6,12.5-12.5s1.4-4,3.3-4.7h17c14.3,0,26,11.6,26,26v406.2c0,14.3-11.6,26-26,26H32.7c-14.3,0-26-11.6-26-26V33.3Z"/>
  <g class="cls-29">
    <circle class="cls-15" cx="99" cy="14.1" r="2"/>
    <path class="cls-15" d="M105.7,12.1h21.3c1.1,0,2,.9,2,2h0c0,1.1-.9,2-2,2h-21.3c-1.1,0-2-.9-2-2h0c0-1.1.9-2,2-2Z"/>
  </g>
</svg>